<?xml version="1.0" standalone="no"?>
<!DOCTYPE svg PUBLIC "-//W3C//DTD SVG 1.1//EN" "http://www.w3.org/Graphics/SVG/1.1/DTD/svg11.dtd" >
<svg xmlns="http://www.w3.org/2000/svg">
<metadata></metadata>
<defs>
<font id="geomanistitalic" horiz-adv-x="409" >
<font-face units-per-em="2048" ascent="1536" descent="-512" />
<missing-glyph horiz-adv-x="538" />
<glyph unicode="&#x2e;&#x2e;&#x2e;" horiz-adv-x="1286" d="M123 47q0 39 31.5 68.5t70.5 29.5q32 0 52 -21t20 -52q0 -39 -30.5 -69t-69.5 -30q-32 0 -53 21.5t-21 52.5zM565 47q0 39 32 68.5t71 29.5q32 0 51.5 -21t19.5 -52q0 -39 -30.5 -69t-69.5 -30q-32 0 -53 21.5t-21 52.5zM1008 47q0 39 31.5 68.5t70.5 29.5q32 0 52 -21 t20 -52q0 -39 -31 -69t-70 -30q-32 0 -52.5 21.5t-20.5 52.5z" />
<glyph unicode=" "  horiz-adv-x="538" />
<glyph unicode="&#x09;" horiz-adv-x="538" />
<glyph unicode="&#xa0;" horiz-adv-x="538" />
<glyph unicode="!" horiz-adv-x="495" d="M172 47q0 39 31.5 68.5t70.5 29.5q32 0 52 -21t20 -52q0 -39 -30.5 -69t-69.5 -30q-32 0 -53 21.5t-21 52.5zM262 338l174 1096h105l-191 -1096h-88z" />
<glyph unicode="&#x22;" horiz-adv-x="536" d="M295 1069l49 365h100l-73 -365h-76zM522 1069l49 365h101l-74 -365h-76z" />
<glyph unicode="#" horiz-adv-x="1316" d="M135 410l35 92h256l162 430h-254l31 92h258l153 410h101l-152 -410h330l153 410h101l-152 -410h262l-30 -92h-267l-159 -430h262l-33 -92h-266l-154 -410h-100l151 410h-331l-154 -410h-100l153 410h-256zM528 502h332l162 430h-332z" />
<glyph unicode="$" horiz-adv-x="1021" d="M129 281l96 32q15 -111 85 -177t222 -66q149 0 252 90t103 237q0 55 -20 101t-53.5 79t-77 62t-91.5 54t-96 51t-91.5 57t-77 67t-53.5 87t-20 112q0 155 109 265.5t289 125.5l18 111h100l-18 -113q70 -7 127 -35t91 -67t53.5 -76t27.5 -72l-92 -32q-10 33 -28 63 t-48.5 61t-80.5 49.5t-112 18.5q-151 0 -240 -86t-89 -207q0 -61 32 -111t83.5 -85.5t113 -69t123.5 -70t113.5 -79t83.5 -106.5t32 -142q0 -113 -53 -208.5t-153.5 -156.5t-231.5 -70l-25 -151h-100l25 153q-76 8 -136.5 37.5t-98.5 72.5t-61 91.5t-32 102.5z" />
<glyph unicode="%" horiz-adv-x="1503" d="M143 0l1336 1434h120l-1335 -1434h-121zM285 1116q0 138 105 241t247 103q118 0 190 -73.5t72 -184.5q0 -138 -107.5 -240t-252.5 -102q-113 0 -183.5 73.5t-70.5 182.5zM383 1128q0 -77 47 -127.5t127 -50.5q102 0 171 71.5t69 170.5q0 79 -46.5 129.5t-127.5 50.5 q-99 0 -169.5 -72.5t-70.5 -171.5zM842 229q0 138 106 241t248 103q117 0 188.5 -74t71.5 -184q0 -139 -106.5 -240.5t-251.5 -101.5q-114 0 -185 73t-71 183zM942 240q0 -77 47 -128t125 -51q103 0 172.5 71.5t69.5 172.5q0 78 -47.5 128t-128.5 50q-99 0 -168.5 -71.5 t-69.5 -171.5z" />
<glyph unicode="&#x26;" horiz-adv-x="1257" d="M145 346q0 270 328 426q-123 138 -123 293q0 74 28.5 143.5t81.5 126t136.5 91t185.5 34.5q154 0 248 -85t94 -210q0 -63 -20.5 -119.5t-56 -103t-92.5 -92t-120 -83.5t-149 -81l342 -391q68 91 101.5 176t56.5 213h100q-25 -144 -66.5 -250.5t-123.5 -210.5l129 -149 l-76 -74l-123 147q-88 -79 -207.5 -126.5t-253.5 -47.5q-194 0 -307 107.5t-113 265.5zM250 356q0 -128 92 -207t238 -79q108 0 210 41t177 106l-428 483q-121 -46 -205 -133.5t-84 -210.5zM453 1069q0 -87 44 -161.5t126 -157.5q397 178 397 397q0 99 -65 160t-177 61 q-137 0 -231 -86.5t-94 -212.5z" />
<glyph unicode="'" horiz-adv-x="309" d="M295 1069l49 365h100l-73 -365h-76z" />
<glyph unicode="(" horiz-adv-x="581" d="M154 -29l217 1291q44 264 280 264h33l-14 -90h-23q-85 0 -122.5 -47.5t-53.5 -137.5l-213 -1269q-7 -53 -5 -94t31.5 -66t88.5 -25h22l-14 -90h-33q-112 0 -164 64t-30 200z" />
<glyph unicode=")" horiz-adv-x="581" d="M102 -293l15 90h22q85 0 123.5 48t52.5 137l213 1269q8 53 6 94t-31.5 66t-88.5 25h-23l17 90h32q113 0 165 -64t28 -200l-215 -1291q-46 -264 -283 -264h-33z" />
<glyph unicode="*" horiz-adv-x="870" d="M279 956l251 138l-208 133l59 78l201 -136l45 265h94l-45 -263l248 134l32 -80l-254 -133l209 -134l-57 -81l-203 133l-43 -254h-94l43 254l-246 -133z" />
<glyph unicode="+" horiz-adv-x="1126" d="M184 592l17 92h428l76 459h100l-76 -459h426l-16 -92h-426l-76 -459h-100l75 459h-428z" />
<glyph unicode="," horiz-adv-x="401" d="M80 -164q98 79 115 139q-31 1 -50.5 22t-19.5 50q0 40 29 69t67 29q35 0 55.5 -21.5t20.5 -55.5q0 -147 -168 -281z" />
<glyph unicode="-" horiz-adv-x="661" d="M176 565l17 99h497l-16 -99h-498z" />
<glyph unicode="." horiz-adv-x="403" d="M123 47q0 39 31.5 68.5t70.5 29.5q32 0 52 -21t20 -52q0 -39 -30.5 -69t-69.5 -30q-32 0 -53 21.5t-21 52.5z" />
<glyph unicode="/" horiz-adv-x="845" d="M23 -221l917 1757h104l-917 -1757h-104z" />
<glyph unicode="0" horiz-adv-x="1114" d="M204.5 406.5q-1.5 137.5 28.5 310.5q23 147 52 256t74 204.5t103.5 155.5t141.5 93.5t189 33.5t179 -33.5t114.5 -94t57.5 -155t10.5 -205t-28.5 -255.5q-23 -146 -51.5 -255t-72.5 -204.5t-103 -155t-141.5 -93.5t-188.5 -34q-132 0 -214 51t-115.5 147t-35 233.5z M308.5 436.5q-3.5 -72.5 3 -121.5t24 -98t48.5 -78t80 -47t116 -18q52 0 97 11t80 29.5t65.5 49t53 63t42.5 79t34 89t27 101t22 107t19 114.5q14 86 21.5 147.5t11.5 133.5t-2.5 121.5t-24 98.5t-48.5 78.5t-80 47.5t-116 18q-66 0 -121 -18.5t-95 -47.5t-73 -79 t-54.5 -98.5t-41 -121.5t-31.5 -133t-26 -147q-13 -86 -20.5 -147t-11 -133.5z" />
<glyph unicode="1" horiz-adv-x="606" d="M317 0l222 1325l-187 -76l-28 86l249 99h89l-240 -1434h-105z" />
<glyph unicode="2" horiz-adv-x="1013" d="M92 0l6 41q11 74 56 147t108.5 133t142.5 124t158.5 120.5t155 122t133.5 128.5t93.5 141t35.5 159q0 109 -66.5 177.5t-189.5 68.5q-127 0 -213 -72.5t-125 -175.5l-94 23q12 36 34 75.5t61.5 85t88 80.5t118.5 58.5t148 23.5q159 0 253 -94.5t94 -235.5 q0 -99 -45 -195.5t-118.5 -175t-162 -152.5t-179.5 -140.5t-167.5 -127.5t-130 -124t-62.5 -119h719l-16 -96h-836z" />
<glyph unicode="3" horiz-adv-x="1060" d="M129 268l90 37q17 -105 90 -169t219 -64q159 0 276.5 112.5t117.5 280.5q0 127 -76 195.5t-223 68.5h-125l14 88l502 520h-662l17 97h780l-16 -105l-498 -504h37q148 0 253 -96t105 -254q0 -138 -69.5 -253t-188 -181t-258.5 -66q-76 0 -139 17.5t-105 46t-72.5 67.5 t-46.5 79t-22 83z" />
<glyph unicode="4" horiz-adv-x="1118" d="M131 377l14 86l848 971h99l-160 -959h196l-16 -98h-197l-63 -377h-104l63 377h-680zM272 475h555l134 797z" />
<glyph unicode="5" horiz-adv-x="1052" d="M135 268l90 37q17 -105 89.5 -169t215.5 -64q115 0 206 61t138.5 158.5t47.5 210.5q0 134 -75 217.5t-208 83.5q-61 0 -117 -16.5t-88 -34.5t-82 -52l-88 17l150 717h692l-16 -99h-596l-111 -520q126 82 270 82q179 0 278 -105.5t99 -275.5q0 -145 -65.5 -268.5 t-184 -198t-264.5 -74.5q-91 0 -163 26t-116 69.5t-69 93t-33 104.5z" />
<glyph unicode="6" horiz-adv-x="1103" d="M190 424q0 96 8.5 191t30.5 199t55.5 195.5t86.5 175.5t120 144t161 95.5t204 35.5q170 0 295 -104l-64 -76q-101 84 -245 84q-420 0 -525 -643q64 81 168 139t228 58q176 0 270 -106t94 -271q0 -253 -141.5 -409.5t-376.5 -156.5q-80 0 -143.5 24t-105 65t-69 98.5 t-39.5 122t-12 139.5zM293 412q0 -338 282 -338q171 0 283.5 123t112.5 331q0 129 -69 210t-202 81q-121 0 -223 -62.5t-172 -170.5q-12 -86 -12 -174z" />
<glyph unicode="7" horiz-adv-x="962" d="M279 0l745 1335h-737l16 99h848l-14 -86l-750 -1348h-108z" />
<glyph unicode="8" horiz-adv-x="1110" d="M162 330q0 79 25 149t62 116.5t85 84t87.5 57.5t76.5 31q-61 27 -113.5 100t-52.5 176q0 121 63.5 217t168.5 147.5t229 51.5q153 0 252.5 -86.5t99.5 -228.5q0 -61 -20 -118t-50 -97.5t-68.5 -74.5t-72 -54.5t-64.5 -32.5q32 -11 65.5 -33.5t67 -59.5t55 -95.5 t21.5 -128.5q0 -134 -69.5 -244t-189 -172t-263.5 -62q-177 0 -286 99t-109 258zM272 346q0 -117 76.5 -196.5t218.5 -79.5q90 0 167 31.5t128.5 84t80 119t28.5 137.5q0 128 -82 200.5t-213 72.5q-108 0 -199 -43.5t-148 -129t-57 -196.5zM440 1055q0 -100 70 -170t182 -70 q139 0 240.5 95t101.5 220q0 100 -65.5 166t-186.5 66q-77 0 -142.5 -25.5t-108.5 -68.5t-67 -98t-24 -115z" />
<glyph unicode="9" horiz-adv-x="1103" d="M193 80l63 76q101 -84 246 -84q419 0 524 643q-64 -81 -167.5 -139t-227.5 -58q-174 0 -269.5 107t-95.5 270q0 253 141.5 409t376.5 156q80 0 143.5 -24t105 -64.5t69 -98.5t39.5 -122.5t12 -138.5q0 -96 -8.5 -191t-30.5 -199t-55.5 -195.5t-86.5 -175.5t-120 -144.5 t-161 -96t-204 -35.5q-168 0 -294 105zM373 907q0 -130 69 -210.5t201 -80.5q121 0 223 63t172 171q13 93 13 174q0 338 -283 338q-171 0 -283 -123.5t-112 -331.5z" />
<glyph unicode=":" horiz-adv-x="401" d="M123 47q0 39 31.5 68.5t70.5 29.5q32 0 52 -21t20 -52q0 -39 -30.5 -69t-69.5 -30q-32 0 -53 21.5t-21 52.5zM262 874q0 39 30.5 69t69.5 30q32 0 53 -21.5t21 -52.5q0 -39 -31.5 -68.5t-70.5 -29.5q-32 0 -52 21t-20 52z" />
<glyph unicode=";" horiz-adv-x="401" d="M80 -164q98 79 115 139q-31 1 -50.5 22t-19.5 50q0 40 29 69t67 29q35 0 55.5 -21.5t20.5 -55.5q0 -147 -168 -281zM262 874q0 39 32 69t71 30q32 0 51.5 -21.5t19.5 -52.5q0 -39 -30.5 -68.5t-69.5 -29.5q-32 0 -53 21t-21 52z" />
<glyph unicode="&#x3c;" horiz-adv-x="995" d="M184 592l17 94l882 377l-16 -109l-756 -315l650 -320l-19 -102z" />
<glyph unicode="=" horiz-adv-x="1126" d="M158 426l16 92h954l-16 -92h-954zM211 741l14 93h955l-15 -93h-954z" />
<glyph unicode="&#x3e;" horiz-adv-x="995" d="M125 217l16 102l756 324l-649 315l18 105l758 -377l-14 -94z" />
<glyph unicode="?" horiz-adv-x="942" d="M293 1212q51 99 155.5 173.5t249.5 74.5q160 0 250 -91.5t90 -223.5q0 -81 -25 -151t-65.5 -120.5t-90 -95t-101 -84t-95.5 -77.5t-76.5 -85.5t-41.5 -99.5l-17 -94h-102l16 94q10 60 43 114t76.5 95.5t94 82.5t98.5 83t88 87.5t64 107t24 131.5q0 104 -64.5 167.5 t-179.5 63.5q-51 0 -95 -12.5t-74.5 -30.5t-59 -46t-44.5 -50t-34 -51zM346 47q0 39 32 68.5t71 29.5q31 0 51 -21t20 -52q0 -39 -30.5 -69t-69.5 -30q-32 0 -53 21.5t-21 52.5z" />
<glyph unicode="@" horiz-adv-x="1810" d="M168 418q0 193 77.5 371t208 308.5t312.5 208.5t381 78q160 0 291.5 -53t216.5 -144t131.5 -210.5t46.5 -253.5q0 -276 -109.5 -436t-287.5 -160q-89 0 -140 49t-53 115q-15 -20 -40.5 -44.5t-66 -53t-98 -47.5t-118.5 -19q-143 0 -235.5 93.5t-92.5 246.5q0 100 39 188 t103 148.5t147.5 95.5t171.5 35q57 0 105 -15t79.5 -39.5t48.5 -43t29 -37.5l20 123h99l-91 -541q-27 -162 109 -162q113 0 193.5 134t80.5 362q0 122 -40 227t-114 183t-188 122.5t-254 44.5q-176 0 -336 -71.5t-274 -190t-181 -278t-67 -330.5q0 -178 70.5 -319.5 t204 -223.5t307.5 -82q214 0 393 90l37 -73q-70 -43 -192.5 -77t-251.5 -34q-142 0 -266.5 53.5t-213.5 147.5t-140.5 227.5t-51.5 286.5zM700 475q0 -116 66 -186t172 -70q67 0 128 24.5t109.5 70t77.5 118t29 160.5q0 114 -64.5 182t-177.5 68q-140 0 -240 -102.5 t-100 -264.5z" />
<glyph unicode="A" horiz-adv-x="1261" d="M31 0l788 1434h103l309 -1434h-101l-108 514h-598l-281 -514h-112zM477 610h524l-145 705z" />
<glyph unicode="B" horiz-adv-x="1085" d="M174 0l240 1434h374q154 0 247 -86.5t93 -225.5q0 -127 -74 -226.5t-184 -145.5q86 -32 141.5 -110.5t55.5 -182.5q0 -186 -142.5 -321.5t-338.5 -135.5h-412zM295 94h270q168 0 279.5 96.5t111.5 258.5q0 120 -80.5 185.5t-213.5 65.5h-267zM412 795h282q134 0 229 92 t95 221q0 101 -64 165t-170 64h-282z" />
<glyph unicode="C" horiz-adv-x="1361" d="M197 604q0 175 70.5 335t186 273.5t269.5 180.5t315 67q149 0 262 -49.5t173 -107.5l-43 -95q-20 20 -52 42.5t-83 49.5t-121.5 44.5t-145.5 17.5q-138 0 -269.5 -58t-231.5 -157t-161 -239t-61 -294q0 -238 141 -390t373 -152q245 0 463 172l31 -92q-23 -20 -64.5 -46 t-107.5 -58t-156.5 -53.5t-181.5 -21.5q-178 0 -316.5 82t-214 225.5t-75.5 323.5z" />
<glyph unicode="D" horiz-adv-x="1286" d="M174 0l240 1434h254q320 0 492.5 -159.5t172.5 -428.5q0 -408 -239.5 -627t-665.5 -219h-254zM295 96h192q220 0 386 85.5t259 252t93 395.5q0 237 -140.5 372.5t-390.5 135.5h-192z" />
<glyph unicode="E" horiz-adv-x="964" d="M174 0l240 1434h653l-16 -97h-549l-92 -557h481l-17 -96h-481l-98 -588h571l-16 -96h-676z" />
<glyph unicode="F" horiz-adv-x="954" d="M174 0l240 1434h653l-16 -97h-549l-94 -567h481l-17 -96h-481l-112 -674h-105z" />
<glyph unicode="G" horiz-adv-x="1497" d="M195 598q0 140 44.5 272t125 238t186 185.5t234.5 123t264 43.5q92 0 174 -20t141 -52.5t97 -61.5t65 -60l-72 -72q-154 168 -422 168q-196 0 -363.5 -100.5t-265.5 -274.5t-98 -379q0 -237 140 -386.5t368 -149.5q91 0 174.5 18t145 48t100 54.5t67.5 49.5l62 358h-344 l14 96h447l-80 -487q-252 -236 -602 -236q-177 0 -314.5 80.5t-212.5 222.5t-75 322z" />
<glyph unicode="H" horiz-adv-x="1402" d="M174 0l240 1434h104l-108 -652h845l109 652h104l-239 -1434h-105l115 684h-846l-114 -684h-105z" />
<glyph unicode="I" horiz-adv-x="452" d="M174 0l240 1434h104l-239 -1434h-105z" />
<glyph unicode="J" horiz-adv-x="677" d="M51 10l27 92q61 -20 139 -20q196 0 236 233l186 1119h106l-188 -1125q-25 -154 -112.5 -237.5t-233.5 -83.5q-42 0 -82 5.5t-59 10.5z" />
<glyph unicode="K" horiz-adv-x="1107" d="M174 0l240 1434h104l-112 -672l735 672h137l-758 -691l547 -743h-125l-541 729l-122 -729h-105z" />
<glyph unicode="L" horiz-adv-x="913" d="M174 0l240 1434h104l-223 -1338h571l-16 -96h-676z" />
<glyph unicode="M" horiz-adv-x="1744" d="M174 0l240 1434h131l366 -1184l764 1184h135l-239 -1434h-101l216 1280l-736 -1143h-110l-351 1143l-215 -1280h-100z" />
<glyph unicode="N" horiz-adv-x="1433" d="M174 0l240 1434h102l668 -1264l211 1264h104l-239 -1434h-105l-666 1266l-210 -1266h-105z" />
<glyph unicode="O" horiz-adv-x="1622" d="M195 604q0 175 71.5 335t189 273.5t274.5 180.5t323 67q178 0 319 -84t218 -228.5t77 -322.5q0 -173 -71.5 -332t-189 -272t-275 -180.5t-324.5 -67.5q-176 0 -316.5 82.5t-218 226.5t-77.5 322zM303 616q0 -239 144.5 -391.5t375.5 -152.5q143 0 278 57.5t235.5 155.5 t161.5 237t61 293q0 238 -146 392.5t-375 154.5q-143 0 -277.5 -58.5t-235.5 -157t-161.5 -238t-60.5 -292.5z" />
<glyph unicode="P" horiz-adv-x="1005" d="M174 0l240 1434h354q107 0 190 -50.5t124.5 -128.5t41.5 -168q0 -124 -65 -228.5t-175.5 -164t-238.5 -59.5h-260l-106 -635h-105zM401 729h254q145 0 252 103t107 245q0 111 -71 185.5t-187 74.5h-254z" />
<glyph unicode="Q" horiz-adv-x="1624" d="M195 604q0 175 71.5 335t189 273.5t274.5 180.5t323 67q178 0 319 -84t218 -228.5t77 -322.5q0 -185 -79.5 -349.5t-217.5 -285.5l131 -155l-82 -62l-129 154q-222 -154 -483 -154q-176 0 -316.5 82.5t-218 226.5t-77.5 322zM303 616q0 -239 144.5 -391.5t375.5 -152.5 q217 0 406 127l-139 170l79 63l142 -170q116 102 182 246t66 307q0 238 -146 392.5t-375 154.5q-143 0 -277.5 -58.5t-235.5 -157t-161.5 -238t-60.5 -292.5z" />
<glyph unicode="R" horiz-adv-x="1081" d="M174 0l240 1434h329q178 0 273.5 -94.5t95.5 -237.5q0 -153 -92 -270.5t-242 -157.5l252 -674h-117l-235 655h-289l-110 -655h-105zM403 750h230q165 0 266.5 94.5t101.5 247.5q0 111 -71.5 178t-204.5 67h-223z" />
<glyph unicode="S" horiz-adv-x="1021" d="M129 281l96 32q15 -111 85 -177t222 -66q149 0 252 90t103 237q0 55 -20 101t-53.5 79t-77 62t-91.5 54t-96 51t-91.5 57t-77 67t-53.5 87t-20 112q0 165 123.5 279t321.5 114q69 0 126.5 -18t95.5 -45t66.5 -62.5t42.5 -66.5t21 -62l-92 -32q-10 33 -28 63t-48.5 61 t-80.5 49.5t-112 18.5q-151 0 -240 -86t-89 -207q0 -61 32 -111t83.5 -85.5t113 -69t123.5 -70t113.5 -79t83.5 -106.5t32 -142q0 -184 -133.5 -310.5t-347.5 -126.5q-90 0 -162 27t-116.5 72.5t-70.5 97.5t-36 111z" />
<glyph unicode="T" horiz-adv-x="1046" d="M268 1337l17 97h927l-16 -97h-412l-223 -1337h-104l223 1337h-412z" />
<glyph unicode="U" horiz-adv-x="1359" d="M248 504l155 930h105l-156 -928q-10 -57 -9 -108q-1 -128 61 -210q86 -116 288 -116q200 0 325 115t159 319l155 928h105l-156 -930q-41 -248 -194 -389.5t-402 -141.5q-244 -1 -360 143q-86 107 -86 269q0 56 10 119z" />
<glyph unicode="V" horiz-adv-x="1261" d="M262 1434h113l274 -1309l713 1309h117l-793 -1434h-111z" />
<glyph unicode="W" horiz-adv-x="1896" d="M266 1434h113l149 -1293l602 1293h115l168 -1293l584 1293h112l-659 -1434h-115l-172 1286l-602 -1286h-115z" />
<glyph unicode="X" horiz-adv-x="1200" d="M33 0l631 758l-345 676h115l301 -592l494 592h131l-576 -691l381 -743h-112l-338 659l-549 -659h-133z" />
<glyph unicode="Y" horiz-adv-x="1038" d="M262 1434h115l266 -650l492 650h122l-571 -752l-115 -682h-104l115 682z" />
<glyph unicode="Z" horiz-adv-x="1208" d="M76 0l14 88l1120 1249h-882l16 97h1014l-15 -91l-1118 -1247h914l-17 -96h-1046z" />
<glyph unicode="[" horiz-adv-x="598" d="M127 -293l305 1819h270l-16 -90h-168l-274 -1639h168l-15 -90h-270z" />
<glyph unicode="\" horiz-adv-x="845" d="M319 1536h101l328 -1757h-101z" />
<glyph unicode="]" horiz-adv-x="598" d="M102 -293l15 90h168l274 1639h-168l17 90h270l-305 -1819h-271z" />
<glyph unicode="^" horiz-adv-x="1036" d="M207 651l504 783h94l242 -783h-107l-199 674l-424 -674h-110z" />
<glyph unicode="_" horiz-adv-x="1234" d="M53 -152l17 93h1079l-16 -93h-1080z" />
<glyph unicode="`" horiz-adv-x="1007" d="M623 1485h114l101 -289h-90z" />
<glyph unicode="a" horiz-adv-x="1028" d="M129 287q0 165 137.5 276t333.5 111q99 0 176 -37t111 -84l26 168q5 31 5 59q0 90 -50 144q-66 72 -200 71q-157 0 -336 -98l-37 80q192 113 395 113q187 0 270 -102q62 -76 61 -189q0 -40 -7 -84l-119 -715h-84l-2 100q-131 -127 -326 -127q-160 0 -257 90t-97 224z M236 293q0 -97 72.5 -161t197.5 -64q148 0 249 85t101 209q0 98 -72 158t-196 60q-153 0 -252.5 -83.5t-99.5 -203.5z" />
<glyph unicode="b" horiz-adv-x="1245" d="M154 0l247 1481h103l-105 -621q23 35 59 70.5t90.5 73.5t132 62t163.5 24q192 0 308 -132t116 -333q0 -182 -83.5 -332t-226 -235t-311.5 -85q-72 0 -133.5 20.5t-98 46t-66.5 62t-40.5 55.5t-19.5 40l-33 -197h-102zM332 428q0 -162 88.5 -260t247.5 -98 q96 0 185.5 39.5t157 109t108 171.5t40.5 220q0 170 -91.5 276.5t-242.5 106.5q-94 0 -183 -42t-158 -114.5t-110.5 -179.5t-41.5 -229z" />
<glyph unicode="c" horiz-adv-x="1073" d="M158 446q0 173 86.5 321.5t232 235.5t311.5 87q74 0 140 -17t110.5 -44.5t72.5 -52t46 -48.5l-55 -90q-15 21 -39 44t-63.5 50t-98 44t-125.5 17q-135 0 -252 -71t-186.5 -193.5t-69.5 -265.5q0 -167 100 -280t257 -113q69 0 131.5 17.5t113 49t73.5 50t54 46.5l31 -90 q-20 -21 -53.5 -45.5t-87 -55t-128 -50t-151.5 -19.5q-202 0 -326 135t-124 338z" />
<glyph unicode="d" horiz-adv-x="1245" d="M154 436q0 181 81.5 331.5t222 236.5t308.5 86q69 0 128.5 -18t98 -43.5t69.5 -59t46.5 -59.5t24.5 -50l104 621h102l-247 -1481h-103l33 197q-180 -224 -434 -224q-197 0 -315.5 129t-118.5 334zM262 449q0 -171 94 -275t244 -104q137 0 251 78.5t176.5 206t62.5 272.5 q0 175 -93.5 270.5t-244.5 95.5q-97 0 -187 -42t-156.5 -113.5t-106.5 -173.5t-40 -215z" />
<glyph unicode="e" horiz-adv-x="1163" d="M156 436q0 144 53.5 269t140 208t196.5 130t224 47q226 0 341 -151q84 -111 84 -264q0 -56 -11 -118l-8 -43h-906q-7 -45 -7 -87q1 -139 79 -235q102 -124 289 -124q230 0 391 182l65 -49q-78 -98 -196.5 -163t-276.5 -65q-206 0 -332 127.5t-126 335.5zM289 604h794 q4 35 4 68q0 57 -13 105q-21 76 -68 123t-111 71t-141 24q-99 0 -191 -42.5t-167 -133t-107 -215.5z" />
<glyph unicode="f" horiz-adv-x="569" d="M180 0l162 971h-123l17 92h122l11 63q16 95 52 165t86.5 108.5t105 56t116.5 17.5l55 -5l-16 -92q-24 4 -49 4q-206 0 -248 -252l-10 -65h248l-17 -92h-248l-161 -971h-103z" />
<glyph unicode="g" horiz-adv-x="1234" d="M154 -281l57 82q45 -33 128 -64.5t185 -31.5q89 0 166 21t142.5 64.5t110.5 117.5t61 174l18 115q-17 -22 -32 -40t-57.5 -55.5t-86.5 -62.5t-113 -45.5t-143 -20.5q-197 0 -316.5 129t-119.5 334q0 181 81.5 331.5t222 236.5t308.5 86q69 0 128.5 -18t98.5 -44t70 -59 t46.5 -59.5t23.5 -49.5l34 203h101l-152 -909q-49 -289 -200.5 -417t-393.5 -128q-97 0 -200.5 32t-167.5 78zM262 449q0 -171 94 -275t246 -104q137 0 250.5 77t176.5 203t63 271q0 175 -94.5 273.5t-245.5 98.5q-97 0 -187 -42t-156.5 -113.5t-106.5 -173.5t-40 -215z" />
<glyph unicode="h" horiz-adv-x="1110" d="M154 0l247 1481h103l-98 -586q56 86 153 140.5t207 54.5q165 0 255 -109q68 -82 67 -205q0 -41 -7 -86l-114 -690h-103l115 682q6 38 6 71q1 94 -49 157q-68 85 -195 85q-140 0 -245 -96t-131 -250l-109 -649h-102z" />
<glyph unicode="i" d="M154 0l178 1063h102l-178 -1063h-102zM344 1333q0 39 30 68t70 29q31 0 51.5 -20.5t20.5 -51.5q0 -39 -30 -67.5t-70 -28.5q-31 0 -51.5 20t-20.5 51z" />
<glyph unicode="j" d="M-152 -387l17 94q23 -2 43 -2q196 0 237 250l185 1108h102l-184 -1106q-32 -188 -121 -267t-229 -79zM344 1333q0 39 29.5 68t68.5 29q32 0 52 -20.5t20 -51.5q0 -39 -29.5 -67.5t-68.5 -28.5q-32 0 -52 20t-20 51z" />
<glyph unicode="k" horiz-adv-x="923" d="M154 0l247 1481h103l-148 -879l564 461h141l-590 -479l438 -584h-123l-434 571l-96 -571h-102z" />
<glyph unicode="l" d="M154 0l247 1481h103l-248 -1481h-102z" />
<glyph unicode="m" horiz-adv-x="1767" d="M154 0l178 1063h102l-28 -168q45 82 139.5 138.5t202.5 56.5q124 0 202 -58t101 -155q62 104 159.5 158.5t216.5 54.5q171 0 257 -114q63 -84 63 -203q0 -42 -8 -89l-115 -684h-102l106 641q10 62 10 113q0 241 -227 241q-134 0 -235 -93.5t-129 -262.5l-107 -639h-102 l114 682q7 42 7 78q-1 92 -45 152q-62 84 -191 83q-125 0 -228.5 -97.5t-129.5 -250.5l-109 -647h-102z" />
<glyph unicode="n" horiz-adv-x="1110" d="M154 0l178 1063h102l-28 -168q56 86 153 140.5t207 54.5q165 0 255 -109q68 -82 67 -205q0 -41 -7 -86l-114 -690h-103l115 682q6 38 6 71q1 94 -49 157q-68 85 -195 85q-140 0 -245 -96t-131 -250l-109 -649h-102z" />
<glyph unicode="o" horiz-adv-x="1245" d="M158 444q0 177 88 326.5t236 234.5t321 85q207 0 336 -134.5t129 -339.5q0 -131 -52.5 -251t-140 -205.5t-206 -136t-246.5 -50.5q-208 0 -336.5 132t-128.5 339zM266 457q0 -170 100.5 -278.5t268.5 -108.5q143 0 263 70.5t190.5 194t70.5 271.5q0 168 -101.5 277.5 t-269.5 109.5q-106 0 -203 -42.5t-167 -114t-111 -171t-41 -208.5z" />
<glyph unicode="p" horiz-adv-x="1247" d="M90 -383l242 1446h102l-33 -197q12 19 32 42.5t60 57t86 60t114 45.5t141 19q197 0 316.5 -129t119.5 -334q0 -181 -81.5 -331.5t-221.5 -236.5t-308 -86q-68 0 -127 17t-98 42.5t-69.5 59t-46.5 62t-25 55.5l-100 -592h-103zM334 449q0 -189 94.5 -284t249.5 -95 q130 0 240.5 71t176.5 196.5t66 276.5q0 171 -94 275t-246 104q-137 0 -249.5 -75t-175 -199.5t-62.5 -269.5z" />
<glyph unicode="q" horiz-adv-x="1247" d="M158 438q0 137 48 258t129.5 207.5t195 136.5t239.5 50q72 0 134.5 -20t100.5 -46.5t69 -62t43 -56t20 -39.5l32 197h103l-242 -1446h-102l98 586q-22 -32 -54.5 -65t-87 -73.5t-134 -66t-168.5 -25.5q-194 0 -309 129t-115 336zM266 453q0 -170 91.5 -276.5 t242.5 -106.5q94 0 183.5 40.5t158 111t110.5 176.5t42 227q0 165 -89 266.5t-247 101.5q-96 0 -185.5 -39.5t-157.5 -109t-108.5 -172t-40.5 -219.5z" />
<glyph unicode="r" horiz-adv-x="647" d="M154 0l178 1063h102l-33 -191q42 87 143 152.5t222 65.5l-16 -101q-71 0 -132.5 -25t-105 -66t-77.5 -97t-54 -115.5t-31 -124.5l-94 -561h-102z" />
<glyph unicode="s" horiz-adv-x="837" d="M106 217l91 35q23 -64 47.5 -101t74 -61t125.5 -24q106 0 187.5 64.5t81.5 168.5q0 52 -25.5 92t-66.5 66t-91 48.5t-99.5 46.5t-90.5 53t-66.5 74.5t-25.5 104.5q0 140 103.5 223t258.5 83q68 0 121.5 -20t84.5 -54t48 -67.5t25 -69.5l-84 -33q-37 153 -213 153 q-100 0 -171 -55t-71 -147q0 -41 20 -74.5t52.5 -56t74.5 -44.5t85.5 -40t85.5 -43.5t74.5 -54t52.5 -72t20 -97.5q0 -149 -109 -245.5t-270 -96.5q-62 0 -115 15.5t-88 39.5t-62 57.5t-42 65.5t-23 66z" />
<glyph unicode="t" horiz-adv-x="567" d="M193 971l14 92h131l37 221h102l-37 -221h250l-14 -92h-250l-102 -615q-13 -73 -12 -122q0 -44 8 -74q10 -31 33.5 -48t55 -23.5t80.5 -6.5l48 2l-15 -92q-25 -4 -82 -4q-130 0 -191 81q-42 56 -42 149q0 41 8 89l109 664h-131z" />
<glyph unicode="u" horiz-adv-x="1099" d="M205 373l114 690h105l-115 -682q-6 -38 -7 -72q0 -95 50 -157q66 -84 193 -84q141 0 247 96t132 250l108 649h103l-179 -1063h-102l29 168q-58 -86 -153 -140.5t-212 -54.5q-167 1 -255 109q-66 81 -66 203q0 41 8 88z" />
<glyph unicode="v" horiz-adv-x="987" d="M193 1063h106l211 -940l526 940h115l-604 -1063h-107z" />
<glyph unicode="w" horiz-adv-x="1658" d="M193 1063h106l168 -936q3 8 483 936h111l172 -936l479 936h111l-557 -1063h-109l-172 926l-483 -926h-109z" />
<glyph unicode="x" horiz-adv-x="1003" d="M27 0l501 563l-286 500h118l246 -426l381 426h131l-461 -516l314 -547h-119l-272 475l-420 -475h-133z" />
<glyph unicode="y" horiz-adv-x="1009" d="M193 1063h108l225 -936l531 936h117l-826 -1430h-110l215 371z" />
<glyph unicode="z" horiz-adv-x="942" d="M70 0l14 86l811 887h-641l16 90h764l-14 -86l-809 -887h670l-15 -90h-796z" />
<glyph unicode="{" horiz-adv-x="653" d="M178 571l15 91q149 0 188 227l61 373q22 136 96 200t187 64h33l-15 -90h-22q-85 0 -123.5 -48t-52.5 -137l-62 -366q-9 -56 -27 -102t-36.5 -74t-41 -49t-37 -30t-28.5 -14q12 -5 23.5 -14t27.5 -29.5t24 -49t12.5 -73.5t-7.5 -102l-61 -366q-8 -53 -6 -94t31.5 -66 t88.5 -25h23l-16 -90h-33q-112 0 -163.5 64t-29.5 200l62 373q39 227 -111 227z" />
<glyph unicode="|" horiz-adv-x="485" d="M127 -391l328 1954h100l-328 -1954h-100z" />
<glyph unicode="}" horiz-adv-x="653" d="M102 -293l15 90h22q85 0 122.5 47.5t53.5 137.5l62 366q12 69 35 122t50.5 82t47 43t37.5 21q-12 5 -23.5 14t-27.5 30t-24 49.5t-12.5 73t7.5 102.5l61 366q8 53 6 94t-31.5 66t-88.5 25h-23l17 90h32q112 0 163.5 -64t29.5 -200l-64 -373q-39 -227 113 -227l-14 -91 q-150 0 -189 -227l-61 -373q-22 -136 -96 -200t-187 -64h-33z" />
<glyph unicode="~" horiz-adv-x="1089" d="M186 502q18 107 91.5 178.5t185.5 71.5q57 0 115 -25t97.5 -55t87 -55t85.5 -25q70 0 114.5 46t57.5 112h92q-18 -107 -91 -178.5t-185 -71.5q-48 0 -99 25t-89 54.5t-91.5 54.5t-105.5 25q-70 0 -113.5 -45t-58.5 -112h-93z" />
<glyph unicode="&#xa1;" horiz-adv-x="495" d="M145 -313l191 1095h88l-174 -1095h-105zM340 1049q0 39 30.5 68.5t69.5 29.5q32 0 53 -21.5t21 -52.5q0 -39 -31.5 -68.5t-70.5 -29.5q-32 0 -52 21.5t-20 52.5z" />
<glyph unicode="&#xa2;" horiz-adv-x="1087" d="M186 606q0 123 47.5 238t127.5 199.5t188.5 139.5t226.5 64l31 189h100l-30 -191q63 -6 119.5 -25.5t94 -45.5t61 -47.5t34.5 -39.5l-53 -90q-15 21 -39 44t-64 50t-99 44.5t-126 17.5q-134 0 -251 -71t-187 -193.5t-70 -265.5q0 -167 99.5 -280.5t256.5 -113.5 q198 0 377 164l27 -90q-27 -27 -69.5 -57.5t-127 -66.5t-170.5 -44l-22 -135h-101l23 135q-174 15 -289 148.5t-115 322.5z" />
<glyph unicode="&#xa3;" horiz-adv-x="1118" d="M86 0l16 96h146l96 574h-125l17 96h124l50 293q31 184 152.5 292.5t301.5 108.5q74 0 134.5 -23t98.5 -60t61 -77t32 -81l-88 -39q-14 70 -78 126t-172 56q-142 0 -229 -82t-111 -225l-49 -289h360l-16 -96h-358l-97 -574h678l-16 -96h-928z" />
<glyph unicode="&#xa5;" horiz-adv-x="1087" d="M221 385l15 90h333l35 203h-334l15 90h286l-282 666h117l268 -650l489 650h119l-508 -666h283l-15 -90h-333l-35 -203h334l-15 -90h-334l-63 -385h-104l63 385h-334z" />
<glyph unicode="&#xa7;" horiz-adv-x="944" d="M61 -195l89 33q45 -170 256 -170q145 0 224 74t79 192q0 126 -148 228l-274 184q-47 32 -82 90t-35 139q0 113 72 195.5t182 120.5q-117 102 -117 244q0 161 119 263.5t307 102.5q76 0 138 -22.5t100 -59t60 -74t30 -75.5l-88 -33q-51 170 -256 170q-142 0 -223.5 -78 t-81.5 -188q0 -129 147 -226l203 -135q188 -121 188 -284q0 -110 -70.5 -193.5t-172.5 -118.5q106 -93 106 -235q0 -163 -116 -269t-302 -106q-63 0 -115 14.5t-87.5 37t-63 53.5t-43 61.5t-25.5 64.5zM270 580q0 -104 86 -162l250 -166q106 12 175 80.5t69 163.5 q0 65 -37 113.5t-115 99.5l-176 114q-109 -11 -180.5 -79.5t-71.5 -163.5z" />
<glyph unicode="&#xa8;" horiz-adv-x="1007" d="M487 1325q0 39 30 67.5t69 28.5q32 0 51.5 -20t19.5 -51q0 -39 -30.5 -68t-69.5 -29q-32 0 -51 20.5t-19 51.5zM799 1325q0 39 29.5 67.5t68.5 28.5q32 0 52 -20t20 -51q0 -39 -31 -68t-70 -29q-32 0 -50.5 20.5t-18.5 51.5z" />
<glyph unicode="&#xa9;" horiz-adv-x="1660" d="M205 602q0 170 69 328.5t184.5 274.5t274 185.5t330.5 69.5q188 0 333 -84.5t221.5 -228.5t76.5 -322q0 -173 -68.5 -331t-184 -272.5t-276 -182.5t-336.5 -68q-185 0 -328.5 83.5t-219.5 226.5t-76 321zM307 612q0 -157 64 -281.5t186.5 -197t282.5 -72.5q154 0 293 60 t239.5 161t159.5 241t59 294q0 157 -64 281.5t-187.5 197t-286.5 72.5q-150 0 -287.5 -60.5t-238 -162t-160.5 -241.5t-60 -292zM569 645q0 124 56 229.5t161.5 169.5t237.5 64q103 0 175 -43t108 -100l-68 -64q-84 115 -231 115q-156 0 -246 -104.5t-90 -256.5 q0 -110 59 -177.5t174 -67.5q144 0 264 114l54 -63q-56 -57 -141.5 -100.5t-190.5 -43.5q-152 0 -237 92t-85 236z" />
<glyph unicode="&#xaa;" horiz-adv-x="833" d="M244 848q0 129 104.5 216t255.5 87q68 0 123.5 -23t85.5 -55l16 103q17 97 -32 148.5t-146 51.5q-123 0 -260 -76l-29 74q156 86 310 86q146 0 207.5 -78t38.5 -211l-91 -538h-71l-4 67q-97 -86 -238 -86q-123 0 -196.5 66t-73.5 168zM334 860q0 -70 53 -117t145 -47 q108 0 183.5 61.5t75.5 151.5q0 71 -53.5 114.5t-143.5 43.5q-112 0 -186 -60.5t-74 -146.5z" />
<glyph unicode="&#xab;" horiz-adv-x="815" d="M176 596l313 373h119l-319 -383l192 -361h-106zM471 596l313 373h119l-319 -383l192 -361h-106z" />
<glyph unicode="&#xad;" horiz-adv-x="661" d="M176 565l17 99h497l-16 -99h-498z" />
<glyph unicode="&#xae;" horiz-adv-x="925" d="M221 1042q0 196 140 337t346 141q169 0 267.5 -98.5t98.5 -250.5q0 -125 -61.5 -234t-175 -176t-252.5 -67q-166 0 -264.5 98t-98.5 250zM309 1051q0 -123 74 -201t207 -78q179 0 288 112.5t109 280.5q0 126 -75.5 201.5t-213.5 75.5q-172 0 -280.5 -112t-108.5 -279z M479 885l74 442h137q65 0 99 -29t34 -81q0 -50 -26 -86.5t-64 -51.5l51 -194h-88l-37 174h-65l-31 -174h-84zM606 1135h62q30 0 46.5 19.5t16.5 49.5q0 47 -45 47h-61z" />
<glyph unicode="&#xaf;" horiz-adv-x="929" d="M449 1315l14 90h471l-14 -90h-471z" />
<glyph unicode="&#xb0;" horiz-adv-x="706" d="M264 1137q0 132 94.5 227.5t231.5 95.5q113 0 179.5 -67t66.5 -170q0 -133 -94 -227.5t-234 -94.5q-113 0 -178.5 66.5t-65.5 169.5zM358 1147q0 -71 42.5 -116.5t115.5 -45.5q97 0 161 66t64 161q0 72 -43.5 118t-117.5 46q-93 0 -157.5 -66.5t-64.5 -162.5z" />
<glyph unicode="&#xb2;" horiz-adv-x="681" d="M213 625l12 75q9 52 39.5 100.5t73 85.5t91.5 72.5t96.5 68.5t86 66t62.5 71.5t24 78.5q0 51 -36 86t-97 35q-44 0 -82 -21.5t-54.5 -41t-37.5 -50.5l-72 33q39 70 105.5 118t155.5 48q97 0 152.5 -56.5t55.5 -136.5q0 -54 -24 -102.5t-63 -85t-86 -71t-96 -66.5 t-90.5 -64.5t-72 -73t-37.5 -83.5h392l-15 -86h-483z" />
<glyph unicode="&#xb3;" horiz-adv-x="681" d="M217 776l80 35q31 -117 160 -117q83 0 139.5 50t56.5 141q0 65 -42.5 101t-125.5 36h-69l14 80l260 246h-340l15 86h452l-14 -78l-266 -254q91 0 152 -55.5t61 -151.5q0 -129 -86.5 -208t-214.5 -79q-180 0 -232 168z" />
<glyph unicode="&#xb4;" horiz-adv-x="1007" d="M569 1196l197 289h121l-223 -289h-95z" />
<glyph unicode="&#xb6;" horiz-adv-x="993" d="M264 1008q0 113 63 212t165.5 156.5t214.5 57.5h110l-254 -1526h-100l129 774q-144 0 -236 94.5t-92 231.5zM702 -92l254 1526h101l-254 -1526h-101z" />
<glyph unicode="&#xb7;" horiz-adv-x="440" d="M240 631q0 39 31.5 68.5t70.5 29.5q32 0 52 -21.5t20 -52.5q0 -39 -31 -68.5t-70 -29.5q-32 0 -52.5 21.5t-20.5 52.5z" />
<glyph unicode="&#xb8;" horiz-adv-x="929" d="M246 -446l26 84q40 -5 60 -5q143 0 143 107q0 78 -117 78h-32l57 202h82l-39 -124q69 -9 106 -46.5t37 -95.5q0 -106 -70 -156.5t-175 -50.5z" />
<glyph unicode="&#xb9;" horiz-adv-x="489" d="M326 1372l166 62h75l-135 -809h-92l119 714l-115 -43z" />
<glyph unicode="&#xba;" horiz-adv-x="946" d="M221 973q0 135 68 247.5t181.5 176t246.5 63.5q155 0 251.5 -100.5t96.5 -257.5q0 -100 -40.5 -191t-107.5 -156t-157 -103t-187 -38q-158 0 -255 101t-97 258zM315 981q0 -125 74.5 -205t198.5 -80q159 0 271 115.5t112 280.5q0 124 -73.5 204t-197.5 80 q-160 0 -272.5 -115.5t-112.5 -279.5z" />
<glyph unicode="&#xbb;" horiz-adv-x="815" d="M111 225l319 383l-192 361h106l199 -371l-314 -373h-118zM406 225l319 383l-193 361h107l199 -371l-314 -373h-118z" />
<glyph unicode="&#xbc;" horiz-adv-x="1572" d="M324 -84l1081 1602h106l-1081 -1602h-106zM403 1372l166 62h76l-135 -809h-92l119 714l-115 -43zM928 170l12 72l494 567h88l-92 -555h110l-14 -84h-111l-29 -170h-92l29 170h-395zM1051 254h286l68 414z" />
<glyph unicode="&#xbd;" horiz-adv-x="1591" d="M281 -84l1081 1602h102l-1081 -1602h-102zM403 1372l166 62h76l-135 -809h-92l119 714l-115 -43zM983 0l12 76q10 60 50 115.5t92 95.5t110.5 82t107.5 77.5t81 80.5t32 91q0 51 -36 86t-97 35q-34 0 -62.5 -10.5t-50.5 -30.5t-34 -34.5t-27 -36.5l-71 32 q39 71 105 118.5t155 47.5q97 0 153 -56.5t56 -135.5q0 -54 -24 -102.5t-63 -85.5t-86 -71t-96 -66.5t-90.5 -65t-72 -73t-37.5 -83.5h391l-15 -86h-483z" />
<glyph unicode="&#xbe;" horiz-adv-x="1695" d="M258 776l80 35q31 -117 160 -117q83 0 139.5 50t56.5 141q0 65 -42.5 101t-125.5 36h-69l14 80l260 246h-340l15 86h452l-14 -78l-266 -254q91 0 152 -55.5t61 -151.5q0 -129 -87 -208t-215 -79q-179 0 -231 168zM446 -84l1082 1602h106l-1081 -1602h-107zM1010 170 l12 72l494 567h88l-93 -555h111l-14 -84h-111l-29 -170h-92l29 170h-395zM1133 254h286l68 414z" />
<glyph unicode="&#xbf;" horiz-adv-x="942" d="M92 -25q0 81 25 151t65.5 120.5t90 95t101.5 84t96 77.5t76.5 85.5t41.5 99.5l16 94h103l-17 -94q-10 -60 -42.5 -114t-76.5 -95.5t-94 -82t-98.5 -82.5t-88 -87.5t-63.5 -107t-24 -131.5q0 -104 64.5 -168t178.5 -64q50 0 95 12.5t75.5 31t59 46.5t44.5 50t34 51l84 -39 q-23 -45 -58.5 -86t-85 -79t-118 -60.5t-144.5 -22.5q-160 0 -250 91.5t-90 223.5zM610 1049q0 39 31 68.5t70 29.5q32 0 52.5 -21.5t20.5 -52.5q0 -39 -31.5 -68.5t-70.5 -29.5q-31 0 -51.5 21.5t-20.5 52.5z" />
<glyph unicode="&#xc0;" horiz-adv-x="1261" d="M31 0l788 1434h103l309 -1434h-101l-108 514h-598l-281 -514h-112zM477 610h524l-145 705zM715 1819h114l101 -289h-90z" />
<glyph unicode="&#xc1;" horiz-adv-x="1261" d="M31 0l788 1434h103l309 -1434h-101l-108 514h-598l-281 -514h-112zM477 610h524l-145 705zM836 1530l196 289h121l-223 -289h-94z" />
<glyph unicode="&#xc2;" horiz-adv-x="1261" d="M31 0l788 1434h103l309 -1434h-101l-108 514h-598l-281 -514h-112zM477 610h524l-145 705zM641 1546l233 256h115l148 -256h-103l-110 180l-170 -180h-113z" />
<glyph unicode="&#xc3;" horiz-adv-x="1261" d="M31 0l788 1434h103l309 -1434h-101l-108 514h-598l-281 -514h-112zM477 610h524l-145 705zM590 1571q13 85 70 135.5t133 50.5q43 0 88.5 -24.5t86 -49t72.5 -24.5q36 0 64 26.5t37 71.5h88q-13 -85 -68.5 -136.5t-132.5 -51.5q-35 0 -71 15.5t-61 33.5t-57.5 33.5 t-60.5 15.5q-35 0 -62 -26t-36 -70h-90z" />
<glyph unicode="&#xc4;" horiz-adv-x="1261" d="M31 0l788 1434h103l309 -1434h-101l-108 514h-598l-281 -514h-112zM477 610h524l-145 705zM668 1651q0 39 29.5 67.5t68.5 28.5q32 0 52 -20.5t20 -51.5q0 -39 -31 -67.5t-70 -28.5q-32 0 -50.5 20.5t-18.5 51.5zM979 1651q0 39 29.5 67.5t68.5 28.5q32 0 52 -20.5 t20 -51.5q0 -39 -30.5 -67.5t-69.5 -28.5q-32 0 -51 20.5t-19 51.5z" />
<glyph unicode="&#xc5;" horiz-adv-x="1261" d="M31 0l788 1434h103l309 -1434h-101l-108 514h-598l-281 -514h-112zM477 610h524l-145 705zM743 1665q0 81 56.5 135.5t138.5 54.5q67 0 107 -39t40 -100q0 -80 -57 -136t-139 -56q-65 0 -105.5 39.5t-40.5 101.5zM823 1675q0 -33 20.5 -53t55.5 -20q47 0 76 29.5t29 74.5 q0 33 -20.5 53.5t-57.5 20.5q-43 0 -73 -30.5t-30 -74.5z" />
<glyph unicode="&#xc6;" horiz-adv-x="1613" d="M18 0l951 1434h747l-16 -97h-549l-92 -557h481l-16 -96h-482l-98 -588h572l-17 -96h-676l86 514h-440l-338 -514h-113zM530 610h396l121 727h-41z" />
<glyph unicode="&#xc7;" horiz-adv-x="1361" d="M197 604q0 175 70.5 335t186 273.5t269.5 180.5t315 67q149 0 262 -49.5t173 -107.5l-43 -95q-20 20 -52 42.5t-83 49.5t-121.5 44.5t-145.5 17.5q-138 0 -269.5 -58t-231.5 -157t-161 -239t-61 -294q0 -238 141 -390t373 -152q245 0 463 172l31 -92q-23 -20 -64.5 -46 t-107.5 -58t-156.5 -53.5t-181.5 -21.5h-33l-25 -77q70 -9 107 -46.5t37 -95.5q0 -106 -70.5 -156.5t-175.5 -50.5l-78 7l27 84q40 -5 59 -5q144 0 144 107q0 78 -117 78h-33l47 166q-225 35 -360 205t-135 415z" />
<glyph unicode="&#xc8;" horiz-adv-x="964" d="M174 0l240 1434h653l-16 -97h-549l-92 -557h481l-17 -96h-481l-98 -588h571l-16 -96h-676zM633 1819h115l100 -289h-90z" />
<glyph unicode="&#xc9;" horiz-adv-x="964" d="M174 0l240 1434h653l-16 -97h-549l-92 -557h481l-17 -96h-481l-98 -588h571l-16 -96h-676zM700 1530l197 289h121l-223 -289h-95z" />
<glyph unicode="&#xca;" horiz-adv-x="964" d="M174 0l240 1434h653l-16 -97h-549l-92 -557h481l-17 -96h-481l-98 -588h571l-16 -96h-676zM528 1546l234 256h115l147 -256h-102l-111 180l-170 -180h-113z" />
<glyph unicode="&#xcb;" horiz-adv-x="964" d="M174 0l240 1434h653l-16 -97h-549l-92 -557h481l-17 -96h-481l-98 -588h571l-16 -96h-676zM565 1651q0 39 30 67.5t69 28.5q32 0 51.5 -20.5t19.5 -51.5q0 -39 -30.5 -67.5t-69.5 -28.5q-32 0 -51 20.5t-19 51.5zM877 1651q0 39 29.5 67.5t68.5 28.5q32 0 52 -20.5 t20 -51.5q0 -39 -31 -67.5t-70 -28.5q-32 0 -50.5 20.5t-18.5 51.5z" />
<glyph unicode="&#xcc;" horiz-adv-x="452" d="M174 0l240 1434h104l-239 -1434h-105zM324 1819h114l101 -289h-90z" />
<glyph unicode="&#xcd;" horiz-adv-x="452" d="M174 0l240 1434h104l-239 -1434h-105zM420 1530l196 289h121l-223 -289h-94z" />
<glyph unicode="&#xce;" horiz-adv-x="452" d="M174 0l240 1434h104l-239 -1434h-105zM246 1546l233 256h115l147 -256h-102l-111 180l-170 -180h-112z" />
<glyph unicode="&#xcf;" horiz-adv-x="452" d="M174 0l240 1434h104l-239 -1434h-105zM266 1651q0 39 30 67.5t69 28.5q32 0 51.5 -20.5t19.5 -51.5q0 -39 -30.5 -67.5t-69.5 -28.5q-32 0 -51 20.5t-19 51.5zM578 1651q0 39 29.5 67.5t68.5 28.5q32 0 52 -20.5t20 -51.5q0 -39 -31 -67.5t-70 -28.5q-32 0 -50.5 20.5 t-18.5 51.5z" />
<glyph unicode="&#xd0;" horiz-adv-x="1286" d="M166 680l16 94h121l111 660h254q320 0 492.5 -159.5t172.5 -428.5q0 -408 -239.5 -627t-665.5 -219h-254l113 680h-121zM295 96h192q220 0 386 85.5t259 252t93 395.5q0 237 -140.5 372.5t-390.5 135.5h-192l-94 -563h333l-16 -94h-334z" />
<glyph unicode="&#xd1;" horiz-adv-x="1433" d="M174 0l240 1434h102l668 -1264l211 1264h104l-239 -1434h-105l-666 1266l-210 -1266h-105zM674 1571q13 85 70 135.5t133 50.5q43 0 88.5 -24.5t86 -49t72.5 -24.5q36 0 64 26.5t37 71.5h88q-13 -85 -68.5 -136.5t-132.5 -51.5q-35 0 -71 15.5t-61 33.5t-57.5 33.5 t-60.5 15.5q-35 0 -62 -26t-36 -70h-90z" />
<glyph unicode="&#xd2;" horiz-adv-x="1622" d="M195 604q0 175 71.5 335t189 273.5t274.5 180.5t323 67q178 0 319 -84t218 -228.5t77 -322.5q0 -173 -71.5 -332t-189 -272t-275 -180.5t-324.5 -67.5q-176 0 -316.5 82.5t-218 226.5t-77.5 322zM303 616q0 -239 144.5 -391.5t375.5 -152.5q143 0 278 57.5t235.5 155.5 t161.5 237t61 293q0 238 -146 392.5t-375 154.5q-143 0 -277.5 -58.5t-235.5 -157t-161.5 -238t-60.5 -292.5zM907 1819h115l100 -289h-90z" />
<glyph unicode="&#xd3;" horiz-adv-x="1622" d="M195 604q0 175 71.5 335t189 273.5t274.5 180.5t323 67q178 0 319 -84t218 -228.5t77 -322.5q0 -173 -71.5 -332t-189 -272t-275 -180.5t-324.5 -67.5q-176 0 -316.5 82.5t-218 226.5t-77.5 322zM303 616q0 -239 144.5 -391.5t375.5 -152.5q143 0 278 57.5t235.5 155.5 t161.5 237t61 293q0 238 -146 392.5t-375 154.5q-143 0 -277.5 -58.5t-235.5 -157t-161.5 -238t-60.5 -292.5zM987 1530l197 289h121l-224 -289h-94z" />
<glyph unicode="&#xd4;" horiz-adv-x="1622" d="M195 604q0 175 71.5 335t189 273.5t274.5 180.5t323 67q178 0 319 -84t218 -228.5t77 -322.5q0 -173 -71.5 -332t-189 -272t-275 -180.5t-324.5 -67.5q-176 0 -316.5 82.5t-218 226.5t-77.5 322zM303 616q0 -239 144.5 -391.5t375.5 -152.5q143 0 278 57.5t235.5 155.5 t161.5 237t61 293q0 238 -146 392.5t-375 154.5q-143 0 -277.5 -58.5t-235.5 -157t-161.5 -238t-60.5 -292.5zM821 1546l234 256h114l148 -256h-103l-110 180l-170 -180h-113z" />
<glyph unicode="&#xd5;" horiz-adv-x="1622" d="M195 604q0 175 71.5 335t189 273.5t274.5 180.5t323 67q178 0 319 -84t218 -228.5t77 -322.5q0 -173 -71.5 -332t-189 -272t-275 -180.5t-324.5 -67.5q-176 0 -316.5 82.5t-218 226.5t-77.5 322zM303 616q0 -239 144.5 -391.5t375.5 -152.5q143 0 278 57.5t235.5 155.5 t161.5 237t61 293q0 238 -146 392.5t-375 154.5q-143 0 -277.5 -58.5t-235.5 -157t-161.5 -238t-60.5 -292.5zM778 1571q13 85 70 135.5t133 50.5q43 0 88.5 -24.5t86.5 -49t73 -24.5q36 0 63.5 26.5t36.5 71.5h88q-13 -85 -68 -136.5t-132 -51.5q-35 0 -71 15.5t-61 33.5 t-57.5 33.5t-60.5 15.5q-36 0 -63 -26t-36 -70h-90z" />
<glyph unicode="&#xd6;" horiz-adv-x="1622" d="M195 604q0 175 71.5 335t189 273.5t274.5 180.5t323 67q178 0 319 -84t218 -228.5t77 -322.5q0 -173 -71.5 -332t-189 -272t-275 -180.5t-324.5 -67.5q-176 0 -316.5 82.5t-218 226.5t-77.5 322zM303 616q0 -239 144.5 -391.5t375.5 -152.5q143 0 278 57.5t235.5 155.5 t161.5 237t61 293q0 238 -146 392.5t-375 154.5q-143 0 -277.5 -58.5t-235.5 -157t-161.5 -238t-60.5 -292.5zM850 1651q0 39 29.5 67.5t68.5 28.5q32 0 52 -20.5t20 -51.5q0 -39 -30.5 -67.5t-69.5 -28.5q-32 0 -51 20.5t-19 51.5zM1161 1651q0 39 30 67.5t69 28.5 q32 0 51.5 -20.5t19.5 -51.5q0 -39 -30.5 -67.5t-69.5 -28.5q-32 0 -51 20.5t-19 51.5z" />
<glyph unicode="&#xd7;" horiz-adv-x="1091" d="M137 231l447 410l-297 395l73 64l295 -395l430 395l66 -68l-438 -399l305 -404l-74 -61l-303 401l-436 -405z" />
<glyph unicode="&#xd8;" horiz-adv-x="1624" d="M195 604q0 175 71.5 335t189 273.5t274.5 180.5t323 67q231 0 393 -137l139 145l68 -61l-142 -147q156 -180 156 -435q0 -173 -71.5 -332t-189 -272t-275 -180.5t-324.5 -67.5q-229 0 -391 133l-135 -141l-68 60l137 145q-155 176 -155 434zM303 616q0 -220 123 -368 l946 997q-139 117 -334 117q-143 0 -277.5 -58.5t-235.5 -157t-161.5 -238t-60.5 -292.5zM489 184q134 -112 334 -112q143 0 278 57.5t235.5 155.5t161.5 237t61 293q0 217 -123 365z" />
<glyph unicode="&#xd9;" horiz-adv-x="1359" d="M248 504l155 930h105l-156 -928q-34 -203 52.5 -318.5t287.5 -115.5q200 0 325 115t159 319l155 928h105l-156 -930q-41 -248 -194 -389.5t-402 -141.5q-245 0 -360.5 143.5t-75.5 387.5zM803 1819h115l100 -289h-90z" />
<glyph unicode="&#xda;" horiz-adv-x="1359" d="M248 504l155 930h105l-156 -928q-34 -203 52.5 -318.5t287.5 -115.5q200 0 325 115t159 319l155 928h105l-156 -930q-41 -248 -194 -389.5t-402 -141.5q-245 0 -360.5 143.5t-75.5 387.5zM856 1530l197 289h121l-224 -289h-94z" />
<glyph unicode="&#xdb;" horiz-adv-x="1359" d="M248 504l155 930h105l-156 -928q-34 -203 52.5 -318.5t287.5 -115.5q200 0 325 115t159 319l155 928h105l-156 -930q-41 -248 -194 -389.5t-402 -141.5q-245 0 -360.5 143.5t-75.5 387.5zM692 1546l234 256h114l148 -256h-103l-110 180l-170 -180h-113z" />
<glyph unicode="&#xdc;" horiz-adv-x="1359" d="M248 504l155 930h105l-156 -928q-34 -203 52.5 -318.5t287.5 -115.5q200 0 325 115t159 319l155 928h105l-156 -930q-41 -248 -194 -389.5t-402 -141.5q-245 0 -360.5 143.5t-75.5 387.5zM725 1651q0 39 29.5 67.5t68.5 28.5q32 0 52 -20.5t20 -51.5q0 -39 -30.5 -67.5 t-69.5 -28.5q-32 0 -51 20.5t-19 51.5zM1036 1651q0 39 30 67.5t69 28.5q32 0 51.5 -20.5t19.5 -51.5q0 -39 -30.5 -67.5t-69.5 -28.5q-32 0 -51 20.5t-19 51.5z" />
<glyph unicode="&#xdd;" horiz-adv-x="1038" d="M262 1434h115l266 -650l492 650h122l-571 -752l-115 -682h-104l115 682zM713 1530l196 289h121l-223 -289h-94z" />
<glyph unicode="&#xde;" horiz-adv-x="1005" d="M174 0l240 1434h104l-49 -293h248q159 0 258.5 -89t99.5 -243q0 -106 -38.5 -194.5t-105 -148t-156 -92t-191.5 -32.5h-248l-57 -342h-105zM352 436h246q165 0 267 100.5t102 262.5q0 116 -70.5 180.5t-198.5 64.5h-245z" />
<glyph unicode="&#xdf;" horiz-adv-x="1079" d="M150 0l188 1126q59 347 405 347q139 0 217 -73.5t78 -174.5q0 -217 -204 -307q111 -30 188.5 -125.5t77.5 -235.5q0 -133 -48.5 -240.5t-132 -175.5t-192 -104.5t-231.5 -36.5h-25l16 100h25q66 0 131.5 15t129 50t112 85t78.5 126t30 167q0 82 -30.5 144.5t-81.5 98.5 t-112 54t-128 18h-27l17 100h26q117 0 199 70.5t82 185.5q0 75 -55 120.5t-146 45.5q-254 0 -297 -252l-188 -1128h-102z" />
<glyph unicode="&#xe0;" horiz-adv-x="1028" d="M129 287q0 165 137.5 276t333.5 111q99 0 176 -37t111 -84l26 168q21 131 -45.5 202.5t-199.5 71.5q-157 0 -336 -98l-37 80q192 113 395 113q187 0 270 -102t54 -273l-119 -715h-84l-2 100q-131 -127 -326 -127q-160 0 -257 90t-97 224zM236 293q0 -97 72.5 -161 t197.5 -64q148 0 249 85t101 209q0 98 -72 158t-196 60q-153 0 -252.5 -83.5t-99.5 -203.5zM569 1485h115l100 -289h-90z" />
<glyph unicode="&#xe1;" horiz-adv-x="1028" d="M129 287q0 165 137.5 276t333.5 111q99 0 176 -37t111 -84l26 168q21 131 -45.5 202.5t-199.5 71.5q-157 0 -336 -98l-37 80q192 113 395 113q187 0 270 -102t54 -273l-119 -715h-84l-2 100q-131 -127 -326 -127q-160 0 -257 90t-97 224zM236 293q0 -97 72.5 -161 t197.5 -64q148 0 249 85t101 209q0 98 -72 158t-196 60q-153 0 -252.5 -83.5t-99.5 -203.5zM637 1196l197 289h120l-223 -289h-94z" />
<glyph unicode="&#xe2;" horiz-adv-x="1028" d="M129 287q0 165 137.5 276t333.5 111q99 0 176 -37t111 -84l26 168q21 131 -45.5 202.5t-199.5 71.5q-157 0 -336 -98l-37 80q192 113 395 113q187 0 270 -102t54 -273l-119 -715h-84l-2 100q-131 -127 -326 -127q-160 0 -257 90t-97 224zM236 293q0 -97 72.5 -161 t197.5 -64q148 0 249 85t101 209q0 98 -72 158t-196 60q-153 0 -252.5 -83.5t-99.5 -203.5zM471 1227l234 256h114l148 -256h-103l-110 180l-170 -180h-113z" />
<glyph unicode="&#xe3;" horiz-adv-x="1028" d="M129 287q0 165 137.5 276t333.5 111q99 0 176 -37t111 -84l26 168q21 131 -45.5 202.5t-199.5 71.5q-157 0 -336 -98l-37 80q192 113 395 113q187 0 270 -102t54 -273l-119 -715h-84l-2 100q-131 -127 -326 -127q-160 0 -257 90t-97 224zM236 293q0 -97 72.5 -161 t197.5 -64q148 0 249 85t101 209q0 98 -72 158t-196 60q-153 0 -252.5 -83.5t-99.5 -203.5zM418 1249q13 85 70 136t133 51q43 0 88.5 -25t86 -49.5t72.5 -24.5q36 0 64 27t37 72h88q-13 -85 -68.5 -137t-132.5 -52q-35 0 -71 15.5t-61 34t-57.5 34t-60.5 15.5 q-35 0 -62 -26.5t-36 -70.5h-90z" />
<glyph unicode="&#xe4;" horiz-adv-x="1028" d="M129 287q0 165 137.5 276t333.5 111q99 0 176 -37t111 -84l26 168q21 131 -45.5 202.5t-199.5 71.5q-157 0 -336 -98l-37 80q192 113 395 113q187 0 270 -102t54 -273l-119 -715h-84l-2 100q-131 -127 -326 -127q-160 0 -257 90t-97 224zM236 293q0 -97 72.5 -161 t197.5 -64q148 0 249 85t101 209q0 98 -72 158t-196 60q-153 0 -252.5 -83.5t-99.5 -203.5zM506 1325q0 39 29.5 67.5t68.5 28.5q32 0 52 -20t20 -51q0 -39 -31 -68t-70 -29q-32 0 -50.5 20.5t-18.5 51.5zM817 1325q0 39 29.5 67.5t68.5 28.5q32 0 52 -20t20 -51 q0 -39 -30.5 -68t-69.5 -29q-32 0 -51 20.5t-19 51.5z" />
<glyph unicode="&#xe5;" horiz-adv-x="1028" d="M129 287q0 165 137.5 276t333.5 111q99 0 176 -37t111 -84l26 168q21 131 -45.5 202.5t-199.5 71.5q-157 0 -336 -98l-37 80q192 113 395 113q187 0 270 -102t54 -273l-119 -715h-84l-2 100q-131 -127 -326 -127q-160 0 -257 90t-97 224zM236 293q0 -97 72.5 -161 t197.5 -64q148 0 249 85t101 209q0 98 -72 158t-196 60q-153 0 -252.5 -83.5t-99.5 -203.5zM571 1335q0 81 56.5 136t138.5 55q66 0 106.5 -39.5t40.5 -100.5q0 -80 -57 -136t-139 -56q-65 0 -105.5 39.5t-40.5 101.5zM651 1346q0 -33 20.5 -53.5t55.5 -20.5q47 0 75.5 29.5 t28.5 74.5q0 33 -20 53.5t-57 20.5q-43 0 -73 -30t-30 -74z" />
<glyph unicode="&#xe6;" horiz-adv-x="1871" d="M129 287q0 165 137.5 276t333.5 111q99 0 176 -37t111 -84l26 168q21 131 -45.5 202.5t-199.5 71.5q-157 0 -336 -98l-37 80q192 113 395 113q147 0 230.5 -65t97.5 -179q89 117 210.5 180.5t252.5 63.5q150 0 253.5 -69.5t144 -190.5t13.5 -273l-8 -43h-905 q-35 -208 65.5 -327t294.5 -119q235 0 396 182l61 -47q-79 -99 -197.5 -164.5t-275.5 -65.5q-156 0 -266.5 65.5t-149.5 188.5q-42 -102 -152.5 -178t-271.5 -76q-160 0 -257 90t-97 224zM236 293q0 -97 72.5 -161t197.5 -64q148 0 249 85t101 209q0 98 -72 158t-196 60 q-153 0 -252.5 -83.5t-99.5 -203.5zM999 604h793q13 97 -8 173t-68.5 123t-112 71t-141.5 24q-73 0 -144.5 -25t-134.5 -72.5t-111.5 -123t-72.5 -170.5z" />
<glyph unicode="&#xe7;" horiz-adv-x="1073" d="M158 446q0 173 86.5 321.5t232 235.5t311.5 87q74 0 140 -17t110.5 -44.5t72.5 -52t46 -48.5l-55 -90q-15 21 -39 44t-63.5 50t-98 44t-125.5 17q-135 0 -252 -71t-186.5 -193.5t-69.5 -265.5q0 -167 100 -280t257 -113q69 0 131.5 17.5t113 49t73.5 50t54 46.5l31 -90 q-20 -21 -53.5 -45.5t-87.5 -55t-129 -50t-154 -19.5l-24 -77q69 -9 106 -46.5t37 -95.5q0 -106 -70.5 -156.5t-175.5 -50.5l-78 7l27 84q40 -5 59 -5q144 0 144 107q0 78 -117 78h-33l45 164q-167 26 -266.5 154t-99.5 310z" />
<glyph unicode="&#xe8;" horiz-adv-x="1163" d="M156 436q0 144 53.5 269t140 208t196.5 130t224 47q226 0 341 -151t73 -382l-8 -43h-906q-30 -199 71.5 -322.5t289.5 -123.5q230 0 391 182l65 -49q-78 -98 -196.5 -163t-276.5 -65q-206 0 -332 127.5t-126 335.5zM289 604h794q12 97 -9 173t-68 123t-111 71t-141 24 q-99 0 -191 -42.5t-167 -133t-107 -215.5zM651 1485h115l100 -289h-90z" />
<glyph unicode="&#xe9;" horiz-adv-x="1163" d="M156 436q0 144 53.5 269t140 208t196.5 130t224 47q226 0 341 -151t73 -382l-8 -43h-906q-30 -199 71.5 -322.5t289.5 -123.5q230 0 391 182l65 -49q-78 -98 -196.5 -163t-276.5 -65q-206 0 -332 127.5t-126 335.5zM289 604h794q12 97 -9 173t-68 123t-111 71t-141 24 q-99 0 -191 -42.5t-167 -133t-107 -215.5zM711 1196l196 289h121l-223 -289h-94z" />
<glyph unicode="&#xea;" horiz-adv-x="1163" d="M156 436q0 144 53.5 269t140 208t196.5 130t224 47q226 0 341 -151t73 -382l-8 -43h-906q-30 -199 71.5 -322.5t289.5 -123.5q230 0 391 182l65 -49q-78 -98 -196.5 -163t-276.5 -65q-206 0 -332 127.5t-126 335.5zM289 604h794q12 97 -9 173t-68 123t-111 71t-141 24 q-99 0 -191 -42.5t-167 -133t-107 -215.5zM549 1227l233 256h115l147 -256h-102l-111 180l-169 -180h-113z" />
<glyph unicode="&#xeb;" horiz-adv-x="1163" d="M156 436q0 144 53.5 269t140 208t196.5 130t224 47q226 0 341 -151t73 -382l-8 -43h-906q-30 -199 71.5 -322.5t289.5 -123.5q230 0 391 182l65 -49q-78 -98 -196.5 -163t-276.5 -65q-206 0 -332 127.5t-126 335.5zM289 604h794q12 97 -9 173t-68 123t-111 71t-141 24 q-99 0 -191 -42.5t-167 -133t-107 -215.5zM575 1325q0 39 30 67.5t69 28.5q32 0 51.5 -20t19.5 -51q0 -39 -30.5 -68t-69.5 -29q-32 0 -51 20.5t-19 51.5zM887 1325q0 39 29.5 67.5t68.5 28.5q32 0 52 -20t20 -51q0 -39 -31 -68t-70 -29q-32 0 -50.5 20.5t-18.5 51.5z" />
<glyph unicode="&#xec;" d="M154 0l178 1063h102l-178 -1063h-102zM248 1485h114l101 -289h-90z" />
<glyph unicode="&#xed;" d="M154 0l178 1063h102l-178 -1063h-102zM342 1196l197 289h120l-223 -289h-94z" />
<glyph unicode="&#xee;" d="M154 0l178 1063h102l-178 -1063h-102zM166 1227l233 256h115l148 -256h-103l-110 180l-170 -180h-113z" />
<glyph unicode="&#xef;" d="M154 0l178 1063h102l-178 -1063h-102zM190 1325q0 39 30 67.5t69 28.5q32 0 51.5 -20t19.5 -51q0 -39 -30.5 -68t-69.5 -29q-32 0 -51 20.5t-19 51.5zM502 1325q0 39 29.5 67.5t68.5 28.5q32 0 52 -20t20 -51q0 -39 -31 -68t-70 -29q-32 0 -50.5 20.5t-18.5 51.5z" />
<glyph unicode="&#xf0;" horiz-adv-x="1214" d="M160 424q0 122 47.5 234t130 195t199.5 132t249 49q90 0 160 -30.5t109 -67.5q-38 81 -106 166t-118 121l-364 -136l-2 89l295 110q-91 71 -234 146l84 51q126 -63 250 -160l258 98l2 -88l-190 -73q295 -281 295 -617q0 -135 -44.5 -256.5t-124 -213.5t-200 -146 t-264.5 -54q-198 0 -315 128.5t-117 322.5zM268 436q0 -159 92.5 -263.5t249.5 -104.5q117 0 214.5 46.5t159.5 122.5t96 169t34 190q0 146 -95 245t-251 99q-144 0 -260 -71t-178 -186t-62 -247z" />
<glyph unicode="&#xf1;" horiz-adv-x="1110" d="M154 0l178 1063h102l-28 -168q56 86 153 140.5t207 54.5q165 0 255 -109t60 -291l-114 -690h-103l115 682q24 143 -43.5 228t-194.5 85q-140 0 -245 -96t-131 -250l-109 -649h-102zM459 1249q13 85 70 136t133 51q43 0 88.5 -25t86 -49.5t72.5 -24.5q36 0 64 27t37 72h88 q-13 -85 -68.5 -137t-132.5 -52q-35 0 -71 15.5t-61 34t-57.5 34t-60.5 15.5q-35 0 -62 -26.5t-36 -70.5h-90z" />
<glyph unicode="&#xf2;" horiz-adv-x="1245" d="M158 444q0 177 88 326.5t236 234.5t321 85q207 0 336 -134.5t129 -339.5q0 -131 -52.5 -251t-140 -205.5t-206 -136t-246.5 -50.5q-208 0 -336.5 132t-128.5 339zM266 457q0 -170 100.5 -278.5t268.5 -108.5q143 0 263 70.5t190.5 194t70.5 271.5q0 168 -101.5 277.5 t-269.5 109.5q-106 0 -203 -42.5t-167 -114t-111 -171t-41 -208.5zM653 1485h115l100 -289h-90z" />
<glyph unicode="&#xf3;" horiz-adv-x="1245" d="M158 444q0 177 88 326.5t236 234.5t321 85q207 0 336 -134.5t129 -339.5q0 -131 -52.5 -251t-140 -205.5t-206 -136t-246.5 -50.5q-208 0 -336.5 132t-128.5 339zM266 457q0 -170 100.5 -278.5t268.5 -108.5q143 0 263 70.5t190.5 194t70.5 271.5q0 168 -101.5 277.5 t-269.5 109.5q-106 0 -203 -42.5t-167 -114t-111 -171t-41 -208.5zM745 1196l197 289h121l-223 -289h-95z" />
<glyph unicode="&#xf4;" horiz-adv-x="1245" d="M158 444q0 177 88 326.5t236 234.5t321 85q207 0 336 -134.5t129 -339.5q0 -131 -52.5 -251t-140 -205.5t-206 -136t-246.5 -50.5q-208 0 -336.5 132t-128.5 339zM266 457q0 -170 100.5 -278.5t268.5 -108.5q143 0 263 70.5t190.5 194t70.5 271.5q0 168 -101.5 277.5 t-269.5 109.5q-106 0 -203 -42.5t-167 -114t-111 -171t-41 -208.5zM586 1227l233 256h115l147 -256h-102l-111 180l-170 -180h-112z" />
<glyph unicode="&#xf5;" horiz-adv-x="1245" d="M158 444q0 177 88 326.5t236 234.5t321 85q207 0 336 -134.5t129 -339.5q0 -131 -52.5 -251t-140 -205.5t-206 -136t-246.5 -50.5q-208 0 -336.5 132t-128.5 339zM266 457q0 -170 100.5 -278.5t268.5 -108.5q143 0 263 70.5t190.5 194t70.5 271.5q0 168 -101.5 277.5 t-269.5 109.5q-106 0 -203 -42.5t-167 -114t-111 -171t-41 -208.5zM537 1249q13 85 69.5 136t132.5 51q34 0 70.5 -15.5t62.5 -34t57.5 -34t57.5 -15.5q36 0 63.5 27t36.5 72h89q-13 -85 -68.5 -137t-132.5 -52q-35 0 -71 15.5t-61 34t-57.5 34t-60.5 15.5q-35 0 -62 -26.5 t-36 -70.5h-90z" />
<glyph unicode="&#xf6;" horiz-adv-x="1245" d="M158 444q0 177 88 326.5t236 234.5t321 85q207 0 336 -134.5t129 -339.5q0 -131 -52.5 -251t-140 -205.5t-206 -136t-246.5 -50.5q-208 0 -336.5 132t-128.5 339zM266 457q0 -170 100.5 -278.5t268.5 -108.5q143 0 263 70.5t190.5 194t70.5 271.5q0 168 -101.5 277.5 t-269.5 109.5q-106 0 -203 -42.5t-167 -114t-111 -171t-41 -208.5zM610 1325q0 39 30 67.5t69 28.5q32 0 51.5 -20t19.5 -51q0 -39 -30.5 -68t-69.5 -29q-32 0 -51 20.5t-19 51.5zM922 1325q0 39 29.5 67.5t68.5 28.5q32 0 52 -20t20 -51q0 -39 -31 -68t-70 -29 q-32 0 -50.5 20.5t-18.5 51.5z" />
<glyph unicode="&#xf7;" horiz-adv-x="1126" d="M184 592l17 92h954l-16 -92h-955zM530 289q0 36 30 64t67 28q30 0 49.5 -20.5t19.5 -51.5q0 -36 -30.5 -64t-67.5 -28q-30 0 -49 20.5t-19 51.5zM643 967q0 36 29.5 64t66.5 28q31 0 50.5 -20.5t19.5 -51.5q0 -36 -29.5 -64t-66.5 -28q-31 0 -50.5 20.5t-19.5 51.5z" />
<glyph unicode="&#xf8;" horiz-adv-x="1247" d="M158 444q0 177 88 326.5t236 234.5t321 85q170 0 297 -99l98 105l66 -62l-101 -106q105 -130 105 -312q0 -131 -52.5 -251t-140 -205.5t-206 -136t-246.5 -50.5q-166 0 -285 86l-96 -100l-64 59l94 101q-114 126 -114 325zM266 457q0 -153 82 -258l678 714 q-100 80 -238 80q-106 0 -203 -42.5t-167 -114t-111 -171t-41 -208.5zM412 137q92 -67 223 -67q143 0 263 70.5t190.5 194t70.5 271.5q0 138 -74 242z" />
<glyph unicode="&#xf9;" horiz-adv-x="1099" d="M205 373l114 690h105l-115 -682q-24 -144 42.5 -228.5t193.5 -84.5q141 0 247 96t132 250l108 649h103l-179 -1063h-102l29 168q-58 -86 -153 -140.5t-212 -54.5q-167 0 -255 108.5t-58 291.5zM623 1485h114l101 -289h-90z" />
<glyph unicode="&#xfa;" horiz-adv-x="1099" d="M205 373l114 690h105l-115 -682q-24 -144 42.5 -228.5t193.5 -84.5q141 0 247 96t132 250l108 649h103l-179 -1063h-102l29 168q-58 -86 -153 -140.5t-212 -54.5q-167 0 -255 108.5t-58 291.5zM680 1196l197 289h120l-223 -289h-94z" />
<glyph unicode="&#xfb;" horiz-adv-x="1099" d="M205 373l114 690h105l-115 -682q-24 -144 42.5 -228.5t193.5 -84.5q141 0 247 96t132 250l108 649h103l-179 -1063h-102l29 168q-58 -86 -153 -140.5t-212 -54.5q-167 0 -255 108.5t-58 291.5zM510 1227l233 256h115l148 -256h-103l-110 180l-170 -180h-113z" />
<glyph unicode="&#xfc;" horiz-adv-x="1099" d="M205 373l114 690h105l-115 -682q-24 -144 42.5 -228.5t193.5 -84.5q141 0 247 96t132 250l108 649h103l-179 -1063h-102l29 168q-58 -86 -153 -140.5t-212 -54.5q-167 0 -255 108.5t-58 291.5zM541 1325q0 39 29.5 67.5t68.5 28.5q32 0 52 -20t20 -51q0 -39 -31 -68 t-70 -29q-32 0 -50.5 20.5t-18.5 51.5zM852 1325q0 39 29.5 67.5t68.5 28.5q32 0 52 -20t20 -51q0 -39 -30.5 -68t-69.5 -29q-32 0 -51 20.5t-19 51.5z" />
<glyph unicode="&#xfd;" horiz-adv-x="1009" d="M193 1063h108l225 -936l531 936h117l-826 -1430h-110l215 371zM639 1196l197 289h120l-223 -289h-94z" />
<glyph unicode="&#xfe;" horiz-adv-x="1247" d="M90 -383l311 1864h103l-103 -615q12 19 32 42.5t60 57t86 60t114 45.5t141 19q197 0 316.5 -129t119.5 -334q0 -181 -81.5 -331.5t-221.5 -236.5t-308 -86q-68 0 -127 17t-98 42.5t-69.5 59t-46.5 62t-25 55.5l-100 -592h-103zM334 449q0 -189 94.5 -284t249.5 -95 q130 0 240.5 71t176.5 196.5t66 276.5q0 171 -94 275t-246 104q-137 0 -249.5 -75t-175 -199.5t-62.5 -269.5z" />
<glyph unicode="&#xff;" horiz-adv-x="1009" d="M193 1063h108l225 -936l531 936h117l-826 -1430h-110l215 371zM498 1325q0 39 29.5 67.5t68.5 28.5q32 0 52 -20t20 -51q0 -39 -31 -68t-70 -29q-32 0 -50.5 20.5t-18.5 51.5zM809 1325q0 39 29.5 67.5t68.5 28.5q32 0 52 -20t20 -51q0 -39 -30.5 -68t-69.5 -29 q-32 0 -51 20.5t-19 51.5z" />
<glyph unicode="&#x100;" horiz-adv-x="1261" d="M31 0l788 1434h103l309 -1434h-101l-108 514h-598l-281 -514h-112zM477 610h524l-145 705zM659 1581l15 90h471l-15 -90h-471z" />
<glyph unicode="&#x101;" horiz-adv-x="1028" d="M129 287q0 165 137.5 276t333.5 111q99 0 176 -37t111 -84l26 168q21 131 -45.5 202.5t-199.5 71.5q-157 0 -336 -98l-37 80q192 113 395 113q187 0 270 -102t54 -273l-119 -715h-84l-2 100q-131 -127 -326 -127q-160 0 -257 90t-97 224zM236 293q0 -97 72.5 -161 t197.5 -64q148 0 249 85t101 209q0 98 -72 158t-196 60q-153 0 -252.5 -83.5t-99.5 -203.5zM504 1315l14 90h471l-14 -90h-471z" />
<glyph unicode="&#x102;" horiz-adv-x="1261" d="M31 0l788 1434h103l309 -1434h-101l-108 514h-598l-281 -514h-112zM477 610h524l-145 705zM692 1778h90q-11 -70 17 -113t100 -43t114.5 43t53.5 113h96q-19 -106 -89 -174t-185 -68q-114 0 -164.5 69t-32.5 173z" />
<glyph unicode="&#x103;" horiz-adv-x="1028" d="M129 287q0 165 137.5 276t333.5 111q99 0 176 -37t111 -84l26 168q21 131 -45.5 202.5t-199.5 71.5q-157 0 -336 -98l-37 80q192 113 395 113q187 0 270 -102t54 -273l-119 -715h-84l-2 100q-131 -127 -326 -127q-160 0 -257 90t-97 224zM236 293q0 -97 72.5 -161 t197.5 -64q148 0 249 85t101 209q0 98 -72 158t-196 60q-153 0 -252.5 -83.5t-99.5 -203.5zM522 1450h90q-11 -70 17 -113t100 -43t114.5 43t53.5 113h96q-19 -106 -89 -174t-185 -68q-114 0 -164.5 69t-32.5 173z" />
<glyph unicode="&#x104;" horiz-adv-x="1261" d="M31 0l788 1434h103l309 -1434q-22 -8 -51.5 -25.5t-63.5 -43.5t-57 -62.5t-23 -73.5q0 -51 39 -73.5t92 -22.5l-14 -86q-54 0 -101.5 14t-83.5 51.5t-36 94.5q0 75 64 136.5t134 90.5l-108 514h-598l-281 -514h-112zM477 610h524l-145 705z" />
<glyph unicode="&#x105;" horiz-adv-x="1028" d="M129 287q0 165 137.5 276t333.5 111q99 0 176 -37t111 -84l26 168q21 131 -45.5 202.5t-199.5 71.5q-157 0 -336 -98l-37 80q192 113 395 113q187 0 270 -102t54 -273l-119 -715q-22 -8 -51.5 -25.5t-63.5 -43.5t-57 -62.5t-23 -73.5q0 -51 39 -73.5t92 -22.5l-14 -86 q-54 0 -101.5 14t-83.5 51.5t-36 94.5q0 42 21 81t55.5 67t69 47.5t69.5 31.5l-2 100q-131 -127 -326 -127q-160 0 -257 90t-97 224zM236 293q0 -97 72.5 -161t197.5 -64q148 0 249 85t101 209q0 98 -72 158t-196 60q-153 0 -252.5 -83.5t-99.5 -203.5z" />
<glyph unicode="&#x106;" horiz-adv-x="1361" d="M197 604q0 175 70.5 335t186 273.5t269.5 180.5t315 67q149 0 262 -49.5t173 -107.5l-43 -95q-20 20 -52 42.5t-83 49.5t-121.5 44.5t-145.5 17.5q-138 0 -269.5 -58t-231.5 -157t-161 -239t-61 -294q0 -238 141 -390t373 -152q245 0 463 172l31 -92q-23 -20 -64.5 -46 t-107.5 -58t-156.5 -53.5t-181.5 -21.5q-178 0 -316.5 82t-214 225.5t-75.5 323.5zM944 1530l197 289h121l-224 -289h-94z" />
<glyph unicode="&#x107;" horiz-adv-x="1073" d="M158 446q0 173 86.5 321.5t232 235.5t311.5 87q74 0 140 -17t110.5 -44.5t72.5 -52t46 -48.5l-55 -90q-15 21 -39 44t-63.5 50t-98 44t-125.5 17q-135 0 -252 -71t-186.5 -193.5t-69.5 -265.5q0 -167 100 -280t257 -113q69 0 131.5 17.5t113 49t73.5 50t54 46.5l31 -90 q-20 -21 -53.5 -45.5t-87 -55t-128 -50t-151.5 -19.5q-202 0 -326 135t-124 338zM696 1196l197 289h121l-223 -289h-95z" />
<glyph unicode="&#x108;" horiz-adv-x="1361" d="M197 604q0 175 70.5 335t186 273.5t269.5 180.5t315 67q149 0 262 -49.5t173 -107.5l-43 -95q-20 20 -52 42.5t-83 49.5t-121.5 44.5t-145.5 17.5q-138 0 -269.5 -58t-231.5 -157t-161 -239t-61 -294q0 -238 141 -390t373 -152q245 0 463 172l31 -92q-23 -20 -64.5 -46 t-107.5 -58t-156.5 -53.5t-181.5 -21.5q-178 0 -316.5 82t-214 225.5t-75.5 323.5zM823 1546l234 256h114l148 -256h-102l-111 180l-170 -180h-113z" />
<glyph unicode="&#x109;" horiz-adv-x="1073" d="M158 446q0 173 86.5 321.5t232 235.5t311.5 87q74 0 140 -17t110.5 -44.5t72.5 -52t46 -48.5l-55 -90q-15 21 -39 44t-63.5 50t-98 44t-125.5 17q-135 0 -252 -71t-186.5 -193.5t-69.5 -265.5q0 -167 100 -280t257 -113q69 0 131.5 17.5t113 49t73.5 50t54 46.5l31 -90 q-20 -21 -53.5 -45.5t-87 -55t-128 -50t-151.5 -19.5q-202 0 -326 135t-124 338zM575 1227l234 256h115l147 -256h-102l-111 180l-170 -180h-113z" />
<glyph unicode="&#x10a;" horiz-adv-x="1361" d="M197 604q0 175 70.5 335t186 273.5t269.5 180.5t315 67q149 0 262 -49.5t173 -107.5l-43 -95q-20 20 -52 42.5t-83 49.5t-121.5 44.5t-145.5 17.5q-138 0 -269.5 -58t-231.5 -157t-161 -239t-61 -294q0 -238 141 -390t373 -152q245 0 463 172l31 -92q-23 -20 -64.5 -46 t-107.5 -58t-156.5 -53.5t-181.5 -21.5q-178 0 -316.5 82t-214 225.5t-75.5 323.5zM997 1651q0 39 30.5 67.5t70.5 28.5q31 0 51 -20.5t20 -51.5q0 -39 -30 -67.5t-70 -28.5q-31 0 -51.5 20.5t-20.5 51.5z" />
<glyph unicode="&#x10b;" horiz-adv-x="1073" d="M158 446q0 173 86.5 321.5t232 235.5t311.5 87q74 0 140 -17t110.5 -44.5t72.5 -52t46 -48.5l-55 -90q-15 21 -39 44t-63.5 50t-98 44t-125.5 17q-135 0 -252 -71t-186.5 -193.5t-69.5 -265.5q0 -167 100 -280t257 -113q69 0 131.5 17.5t113 49t73.5 50t54 46.5l31 -90 q-20 -21 -53.5 -45.5t-87 -55t-128 -50t-151.5 -19.5q-202 0 -326 135t-124 338zM754 1333q0 39 30 68t70 29q31 0 51.5 -20.5t20.5 -51.5q0 -39 -30.5 -67.5t-70.5 -28.5q-31 0 -51 20t-20 51z" />
<glyph unicode="&#x10c;" horiz-adv-x="1361" d="M197 604q0 175 70.5 335t186 273.5t269.5 180.5t315 67q149 0 262 -49.5t173 -107.5l-43 -95q-20 20 -52 42.5t-83 49.5t-121.5 44.5t-145.5 17.5q-138 0 -269.5 -58t-231.5 -157t-161 -239t-61 -294q0 -238 141 -390t373 -152q245 0 463 172l31 -92q-23 -20 -64.5 -46 t-107.5 -58t-156.5 -53.5t-181.5 -21.5q-178 0 -316.5 82t-214 225.5t-75.5 323.5zM854 1802h104l107 -180l170 180h115l-234 -256h-115z" />
<glyph unicode="&#x10d;" horiz-adv-x="1073" d="M158 446q0 173 86.5 321.5t232 235.5t311.5 87q74 0 140 -17t110.5 -44.5t72.5 -52t46 -48.5l-55 -90q-15 21 -39 44t-63.5 50t-98 44t-125.5 17q-135 0 -252 -71t-186.5 -193.5t-69.5 -265.5q0 -167 100 -280t257 -113q69 0 131.5 17.5t113 49t73.5 50t54 46.5l31 -90 q-20 -21 -53.5 -45.5t-87 -55t-128 -50t-151.5 -19.5q-202 0 -326 135t-124 338zM602 1483h105l106 -180l170 180h115l-234 -256h-114z" />
<glyph unicode="&#x10e;" horiz-adv-x="1286" d="M174 0l240 1434h254q320 0 492.5 -159.5t172.5 -428.5q0 -408 -239.5 -627t-665.5 -219h-254zM295 96h192q220 0 386 85.5t259 252t93 395.5q0 237 -140.5 372.5t-390.5 135.5h-192zM602 1802h105l106 -180l170 180h115l-234 -256h-114z" />
<glyph unicode="&#x10f;" horiz-adv-x="1251" d="M154 436q0 181 81.5 331.5t222 236.5t308.5 86q69 0 128.5 -18t98 -43.5t69.5 -59t46.5 -59.5t24.5 -50l104 621h102l-247 -1481h-103l33 197q-180 -224 -434 -224q-197 0 -315.5 129t-118.5 334zM262 449q0 -171 94 -275t244 -104q137 0 251 78.5t176.5 206t62.5 272.5 q0 175 -93.5 270.5t-244.5 95.5q-97 0 -187 -42t-156.5 -113.5t-106.5 -173.5t-40 -215zM1350 1141l86 340h96l-107 -340h-75z" />
<glyph unicode="&#x110;" horiz-adv-x="1286" d="M166 680l16 94h121l111 660h254q320 0 492.5 -159.5t172.5 -428.5q0 -408 -239.5 -627t-665.5 -219h-254l113 680h-121zM295 96h192q220 0 386 85.5t259 252t93 395.5q0 237 -140.5 372.5t-390.5 135.5h-192l-94 -563h333l-16 -94h-334z" />
<glyph unicode="&#x111;" horiz-adv-x="1245" d="M154 436q0 181 81.5 331.5t222 236.5t308.5 86q69 0 128.5 -18t98 -43.5t69.5 -59t46.5 -59.5t24.5 -50l59 354h-266l14 91h266l31 176h102l-30 -176h143l-14 -91h-144l-202 -1214h-103l33 197q-180 -224 -434 -224q-197 0 -315.5 129t-118.5 334zM262 449 q0 -171 94 -275t244 -104q137 0 251 78.5t176.5 206t62.5 272.5q0 175 -93.5 270.5t-244.5 95.5q-97 0 -187 -42t-156.5 -113.5t-106.5 -173.5t-40 -215z" />
<glyph unicode="&#x112;" horiz-adv-x="964" d="M174 0l240 1434h653l-16 -97h-549l-92 -557h481l-17 -96h-481l-98 -588h571l-16 -96h-676zM547 1581l14 90h471l-14 -90h-471z" />
<glyph unicode="&#x113;" horiz-adv-x="1163" d="M156 436q0 144 53.5 269t140 208t196.5 130t224 47q226 0 341 -151t73 -382l-8 -43h-906q-30 -199 71.5 -322.5t289.5 -123.5q230 0 391 182l65 -49q-78 -98 -196.5 -163t-276.5 -65q-206 0 -332 127.5t-126 335.5zM289 604h794q12 97 -9 173t-68 123t-111 71t-141 24 q-99 0 -191 -42.5t-167 -133t-107 -215.5zM580 1315l14 90h471l-14 -90h-471z" />
<glyph unicode="&#x114;" horiz-adv-x="964" d="M174 0l240 1434h653l-16 -97h-549l-92 -557h481l-17 -96h-481l-98 -588h571l-16 -96h-676zM569 1778h90q-11 -70 17 -113t100 -43t114.5 43t53.5 113h96q-19 -106 -89 -174t-185 -68q-114 0 -164.5 69t-32.5 173z" />
<glyph unicode="&#x115;" horiz-adv-x="1163" d="M156 436q0 144 53.5 269t140 208t196.5 130t224 47q226 0 341 -151t73 -382l-8 -43h-906q-30 -199 71.5 -322.5t289.5 -123.5q230 0 391 182l65 -49q-78 -98 -196.5 -163t-276.5 -65q-206 0 -332 127.5t-126 335.5zM289 604h794q12 97 -9 173t-68 123t-111 71t-141 24 q-99 0 -191 -42.5t-167 -133t-107 -215.5zM598 1450h90q-11 -70 17 -113t100 -43t114.5 43t53.5 113h96q-19 -106 -89 -174t-185 -68q-114 0 -164.5 69t-32.5 173z" />
<glyph unicode="&#x116;" horiz-adv-x="964" d="M174 0l240 1434h653l-16 -97h-549l-92 -557h481l-17 -96h-481l-98 -588h571l-16 -96h-676zM731 1651q0 39 30 67.5t70 28.5q31 0 51.5 -20.5t20.5 -51.5q0 -39 -30 -67.5t-70 -28.5q-31 0 -51.5 20.5t-20.5 51.5z" />
<glyph unicode="&#x117;" horiz-adv-x="1163" d="M156 436q0 144 53.5 269t140 208t196.5 130t224 47q226 0 341 -151t73 -382l-8 -43h-906q-30 -199 71.5 -322.5t289.5 -123.5q230 0 391 182l65 -49q-78 -98 -196.5 -163t-276.5 -65q-206 0 -332 127.5t-126 335.5zM289 604h794q12 97 -9 173t-68 123t-111 71t-141 24 q-99 0 -191 -42.5t-167 -133t-107 -215.5zM737 1333q0 39 30.5 68t70.5 29q31 0 51 -20.5t20 -51.5q0 -39 -30 -67.5t-70 -28.5q-31 0 -51.5 20t-20.5 51z" />
<glyph unicode="&#x118;" horiz-adv-x="964" d="M174 0l240 1434h653l-16 -97h-549l-92 -557h481l-17 -96h-481l-98 -588h571l-16 -96q-22 -8 -51.5 -25.5t-63.5 -43.5t-57 -62.5t-23 -73.5q0 -51 39 -73.5t92 -22.5l-14 -86q-54 0 -101.5 14t-83.5 51.5t-36 94.5q0 76 59.5 137.5t126.5 89.5h-563z" />
<glyph unicode="&#x119;" horiz-adv-x="1163" d="M156 436q0 144 53.5 269t140 208t196.5 130t224 47q226 0 341 -151t73 -382l-8 -43h-906q-30 -199 71.5 -322.5t289.5 -123.5q230 0 391 182l65 -49q-118 -150 -290 -201q-22 -8 -52 -25.5t-64.5 -43.5t-57.5 -62.5t-23 -73.5q0 -51 39 -73.5t92 -22.5l-14 -86 q-54 0 -101.5 14t-83.5 51.5t-36 94.5q0 61 40 112.5t97 87.5h-19q-206 0 -332 127.5t-126 335.5zM289 604h794q12 97 -9 173t-68 123t-111 71t-141 24q-99 0 -191 -42.5t-167 -133t-107 -215.5z" />
<glyph unicode="&#x11a;" horiz-adv-x="964" d="M174 0l240 1434h653l-16 -97h-549l-92 -557h481l-17 -96h-481l-98 -588h571l-16 -96h-676zM590 1802h104l107 -180l170 180h114l-233 -256h-115z" />
<glyph unicode="&#x11b;" horiz-adv-x="1163" d="M156 436q0 144 53.5 269t140 208t196.5 130t224 47q226 0 341 -151t73 -382l-8 -43h-906q-30 -199 71.5 -322.5t289.5 -123.5q230 0 391 182l65 -49q-78 -98 -196.5 -163t-276.5 -65q-206 0 -332 127.5t-126 335.5zM289 604h794q12 97 -9 173t-68 123t-111 71t-141 24 q-99 0 -191 -42.5t-167 -133t-107 -215.5zM594 1483h104l107 -180l170 180h115l-234 -256h-115z" />
<glyph unicode="&#x11c;" horiz-adv-x="1497" d="M195 598q0 140 44.5 272t125 238t186 185.5t234.5 123t264 43.5q92 0 174 -20t141 -52.5t97 -61.5t65 -60l-72 -72q-154 168 -422 168q-196 0 -363.5 -100.5t-265.5 -274.5t-98 -379q0 -237 140 -386.5t368 -149.5q91 0 174.5 18t145 48t100 54.5t67.5 49.5l62 358h-344 l14 96h447l-80 -487q-252 -236 -602 -236q-177 0 -314.5 80.5t-212.5 222.5t-75 322zM823 1546l234 256h114l148 -256h-102l-111 180l-170 -180h-113z" />
<glyph unicode="&#x11d;" horiz-adv-x="1234" d="M154 -281l57 82q45 -33 128 -64.5t185 -31.5q89 0 166 21t142.5 64.5t110.5 117.5t61 174l18 115q-17 -22 -32 -40t-57.5 -55.5t-86.5 -62.5t-113 -45.5t-143 -20.5q-197 0 -316.5 129t-119.5 334q0 181 81.5 331.5t222 236.5t308.5 86q69 0 128.5 -18t98.5 -44t70 -59 t46.5 -59.5t23.5 -49.5l34 203h101l-152 -909q-49 -289 -200.5 -417t-393.5 -128q-97 0 -200.5 32t-167.5 78zM262 449q0 -171 94 -275t246 -104q137 0 250.5 77t176.5 203t63 271q0 175 -94.5 273.5t-245.5 98.5q-97 0 -187 -42t-156.5 -113.5t-106.5 -173.5t-40 -215z M573 1227l234 256h115l147 -256h-102l-111 180l-170 -180h-113z" />
<glyph unicode="&#x11e;" horiz-adv-x="1497" d="M195 598q0 140 44.5 272t125 238t186 185.5t234.5 123t264 43.5q92 0 174 -20t141 -52.5t97 -61.5t65 -60l-72 -72q-154 168 -422 168q-196 0 -363.5 -100.5t-265.5 -274.5t-98 -379q0 -237 140 -386.5t368 -149.5q91 0 174.5 18t145 48t100 54.5t67.5 49.5l62 358h-344 l14 96h447l-80 -487q-252 -236 -602 -236q-177 0 -314.5 80.5t-212.5 222.5t-75 322zM854 1778h90q-11 -70 17 -113t100 -43t114.5 43t53.5 113h96q-19 -106 -89 -174t-185 -68q-114 0 -164.5 69t-32.5 173z" />
<glyph unicode="&#x11f;" horiz-adv-x="1234" d="M154 -281l57 82q45 -33 128 -64.5t185 -31.5q89 0 166 21t142.5 64.5t110.5 117.5t61 174l18 115q-17 -22 -32 -40t-57.5 -55.5t-86.5 -62.5t-113 -45.5t-143 -20.5q-197 0 -316.5 129t-119.5 334q0 181 81.5 331.5t222 236.5t308.5 86q69 0 128.5 -18t98.5 -44t70 -59 t46.5 -59.5t23.5 -49.5l34 203h101l-152 -909q-49 -289 -200.5 -417t-393.5 -128q-97 0 -200.5 32t-167.5 78zM262 449q0 -171 94 -275t246 -104q137 0 250.5 77t176.5 203t63 271q0 175 -94.5 273.5t-245.5 98.5q-97 0 -187 -42t-156.5 -113.5t-106.5 -173.5t-40 -215z M625 1450h90q-11 -70 17 -113t99 -43q72 0 114.5 43t53.5 113h97q-19 -105 -89.5 -173.5t-185.5 -68.5q-114 0 -164 69t-32 173z" />
<glyph unicode="&#x120;" horiz-adv-x="1497" d="M195 598q0 140 44.5 272t125 238t186 185.5t234.5 123t264 43.5q92 0 174 -20t141 -52.5t97 -61.5t65 -60l-72 -72q-154 168 -422 168q-196 0 -363.5 -100.5t-265.5 -274.5t-98 -379q0 -237 140 -386.5t368 -149.5q91 0 174.5 18t145 48t100 54.5t67.5 49.5l62 358h-344 l14 96h447l-80 -487q-252 -236 -602 -236q-177 0 -314.5 80.5t-212.5 222.5t-75 322zM997 1651q0 39 30.5 67.5t70.5 28.5q31 0 51 -20.5t20 -51.5q0 -39 -30 -67.5t-70 -28.5q-31 0 -51.5 20.5t-20.5 51.5z" />
<glyph unicode="&#x121;" horiz-adv-x="1234" d="M154 -281l57 82q45 -33 128 -64.5t185 -31.5q89 0 166 21t142.5 64.5t110.5 117.5t61 174l18 115q-17 -22 -32 -40t-57.5 -55.5t-86.5 -62.5t-113 -45.5t-143 -20.5q-197 0 -316.5 129t-119.5 334q0 181 81.5 331.5t222 236.5t308.5 86q69 0 128.5 -18t98.5 -44t70 -59 t46.5 -59.5t23.5 -49.5l34 203h101l-152 -909q-49 -289 -200.5 -417t-393.5 -128q-97 0 -200.5 32t-167.5 78zM262 449q0 -171 94 -275t246 -104q137 0 250.5 77t176.5 203t63 271q0 175 -94.5 273.5t-245.5 98.5q-97 0 -187 -42t-156.5 -113.5t-106.5 -173.5t-40 -215z M756 1333q0 39 30 68t70 29q31 0 51.5 -20.5t20.5 -51.5q0 -39 -30.5 -67.5t-70.5 -28.5q-31 0 -51 20t-20 51z" />
<glyph unicode="&#x122;" horiz-adv-x="1497" d="M195 598q0 140 44.5 272t125 238t186 185.5t234.5 123t264 43.5q92 0 174 -20t141 -52.5t97 -61.5t65 -60l-72 -72q-154 168 -422 168q-196 0 -363.5 -100.5t-265.5 -274.5t-98 -379q0 -237 140 -386.5t368 -149.5q91 0 174.5 18t145 48t100 54.5t67.5 49.5l62 358h-344 l14 96h447l-80 -487q-252 -236 -602 -236q-177 0 -314.5 80.5t-212.5 222.5t-75 322zM655 -381q97 80 113 139q-29 3 -46 23.5t-17 48.5q0 40 29 69t67 29q35 0 55.5 -22t20.5 -56q0 -143 -168 -280z" />
<glyph unicode="&#x123;" horiz-adv-x="1234" d="M154 -281l57 82q45 -33 128 -64.5t185 -31.5q89 0 166 21t142.5 64.5t110.5 117.5t61 174l18 115q-17 -22 -32 -40t-57.5 -55.5t-86.5 -62.5t-113 -45.5t-143 -20.5q-197 0 -316.5 129t-119.5 334q0 181 81.5 331.5t222 236.5t308.5 86q69 0 128.5 -18t98.5 -44t70 -59 t46.5 -59.5t23.5 -49.5l34 203h101l-152 -909q-49 -289 -200.5 -417t-393.5 -128q-97 0 -200.5 32t-167.5 78zM262 449q0 -171 94 -275t246 -104q137 0 250.5 77t176.5 203t63 271q0 175 -94.5 273.5t-245.5 98.5q-97 0 -187 -42t-156.5 -113.5t-106.5 -173.5t-40 -215z M723 1253q0 147 168 281l49 -49q-98 -79 -115 -139q31 -1 50.5 -22t19.5 -50q0 -40 -29 -69t-67 -29q-35 0 -55.5 21.5t-20.5 55.5z" />
<glyph unicode="&#x124;" horiz-adv-x="1402" d="M174 0l240 1434h104l-108 -652h845l109 652h104l-239 -1434h-105l115 684h-846l-114 -684h-105zM721 1546l233 256h115l148 -256h-103l-110 180l-170 -180h-113z" />
<glyph unicode="&#x125;" horiz-adv-x="1110" d="M154 0l247 1481h103l-98 -586q56 86 153 140.5t207 54.5q165 0 255 -109t60 -291l-114 -690h-103l115 682q24 143 -43.5 228t-194.5 85q-140 0 -245 -96t-131 -250l-109 -649h-102zM565 1536l234 256h114l148 -256h-103l-110 180l-170 -180h-113z" />
<glyph unicode="&#x126;" horiz-adv-x="1402" d="M174 0l178 1061h-129l15 94h129l47 279h104l-47 -279h846l47 279h104l-47 -279h129l-14 -94h-129l-178 -1061h-105l115 684h-846l-114 -684h-105zM410 782h845l48 279h-846z" />
<glyph unicode="&#x127;" horiz-adv-x="1110" d="M154 0l202 1217h-141l16 90h142l28 174h103l-29 -174h262l-16 -90h-262l-53 -322q57 83 156.5 139t207.5 56q167 0 254 -108.5t57 -291.5l-114 -690h-103l115 682q24 143 -43.5 228t-194.5 85q-140 0 -245 -96t-131 -250l-109 -649h-102z" />
<glyph unicode="&#x128;" horiz-adv-x="452" d="M174 0l240 1434h104l-239 -1434h-105zM188 1571q13 85 70 135.5t133 50.5q43 0 88.5 -24.5t86.5 -49t73 -24.5q36 0 63.5 26.5t36.5 71.5h88q-13 -85 -68 -136.5t-132 -51.5q-35 0 -71 15.5t-61 33.5t-57.5 33.5t-60.5 15.5q-35 0 -62 -26t-36 -70h-91z" />
<glyph unicode="&#x129;" d="M113 1249q13 85 69.5 136t132.5 51q34 0 70.5 -15.5t62.5 -34t57.5 -34t57.5 -15.5q36 0 64 27t37 72h88q-13 -85 -68.5 -137t-132.5 -52q-35 0 -71 15.5t-61 34t-57.5 34t-60.5 15.5q-35 0 -62 -26.5t-36 -70.5h-90zM154 0l178 1063h102l-178 -1063h-102z" />
<glyph unicode="&#x12a;" horiz-adv-x="452" d="M174 0l240 1434h104l-239 -1434h-105zM262 1581l14 90h472l-15 -90h-471z" />
<glyph unicode="&#x12b;" d="M154 0l178 1063h102l-178 -1063h-102zM190 1315l15 90h471l-14 -90h-472z" />
<glyph unicode="&#x12c;" horiz-adv-x="452" d="M174 0l240 1434h104l-239 -1434h-105zM293 1778h90q-11 -70 17 -113t100 -43t114.5 43t53.5 113h96q-19 -105 -89.5 -173.5t-185.5 -68.5q-114 0 -164 69t-32 173z" />
<glyph unicode="&#x12d;" d="M154 0l178 1063h102l-178 -1063h-102zM215 1450h90q-11 -70 17 -113t100 -43t114.5 43t53.5 113h96q-19 -106 -89 -174t-185 -68q-114 0 -164.5 69t-32.5 173z" />
<glyph unicode="&#x12e;" horiz-adv-x="452" d="M-20 -227q0 43 19.5 82.5t52 67t62 46t60.5 31.5l240 1434h104l-239 -1434q-22 -8 -51.5 -25.5t-63.5 -43.5t-57 -62.5t-23 -73.5q0 -51 39 -73.5t92 -22.5l-14 -86q-54 0 -101.5 14t-83.5 51.5t-36 94.5z" />
<glyph unicode="&#x12f;" d="M-43 -227q0 75 64 136.5t133 90.5l178 1063h102l-178 -1063q-22 -8 -51.5 -25.5t-63.5 -43.5t-57 -62.5t-23 -73.5q0 -50 39.5 -73t92.5 -23l-15 -86q-54 0 -101.5 14t-83.5 51.5t-36 94.5zM344 1333q0 39 30 68t70 29q31 0 50.5 -20.5t19.5 -51.5q0 -39 -29.5 -67.5 t-68.5 -28.5q-32 0 -52 20t-20 51z" />
<glyph unicode="&#x130;" horiz-adv-x="452" d="M174 0l240 1434h104l-239 -1434h-105zM422 1651q0 39 30 67.5t70 28.5q31 0 51.5 -20.5t20.5 -51.5q0 -39 -30 -67.5t-70 -28.5q-31 0 -51.5 20.5t-20.5 51.5z" />
<glyph unicode="&#x131;" d="M154 0l178 1063h102l-178 -1063h-102z" />
<glyph unicode="&#x132;" horiz-adv-x="1130" d="M174 0l240 1434h104l-239 -1434h-105zM504 10l26 92q62 -20 140 -20q95 0 154.5 55t80.5 178l187 1119h106l-188 -1125q-25 -154 -112.5 -237.5t-233.5 -83.5q-42 0 -82 5.5t-59 10.5z" />
<glyph unicode="&#x133;" horiz-adv-x="819" d="M154 0l178 1063h102l-178 -1063h-102zM258 -387l16 94q23 -2 43 -2q197 0 238 250l184 1108h103l-185 -1106q-32 -188 -121 -267t-229 -79zM344 1333q0 39 30 68t70 29q31 0 51.5 -20.5t20.5 -51.5q0 -39 -30 -67.5t-70 -28.5q-31 0 -51.5 20t-20.5 51zM754 1333 q0 39 29.5 68t68.5 29q32 0 52 -20.5t20 -51.5q0 -39 -30 -67.5t-69 -28.5q-32 0 -51.5 20t-19.5 51z" />
<glyph unicode="&#x134;" horiz-adv-x="677" d="M51 10l27 92q61 -20 139 -20q196 0 236 233l186 1119h106l-188 -1125q-25 -154 -112.5 -237.5t-233.5 -83.5q-42 0 -82 5.5t-59 10.5zM463 1546l233 256h115l147 -256h-102l-111 180l-170 -180h-112z" />
<glyph unicode="&#x135;" d="M-152 -387l17 92q23 -2 43 -2q97 0 156.5 61t80.5 191l185 1108h102l-184 -1106q-32 -185 -125.5 -265.5t-224.5 -80.5zM162 1227l233 256h115l147 -256h-102l-111 180l-170 -180h-112z" />
<glyph unicode="&#x136;" horiz-adv-x="1107" d="M174 0l240 1434h104l-112 -672l735 672h137l-758 -691l547 -743h-125l-541 729l-122 -729h-105zM442 -381q97 80 113 139q-29 3 -46 23.5t-17 48.5q0 40 29 69t67 29q35 0 55.5 -22t20.5 -56q0 -143 -168 -280z" />
<glyph unicode="&#x137;" horiz-adv-x="923" d="M154 0l247 1481h103l-148 -879l564 461h141l-590 -479l438 -584h-123l-434 571l-96 -571h-102zM348 -381q97 80 113 139q-29 3 -46.5 23.5t-17.5 48.5q0 40 29.5 69t67.5 29q35 0 55 -22t20 -56q0 -143 -168 -280z" />
<glyph unicode="&#x138;" horiz-adv-x="923" d="M154 0l178 1063h102l-78 -461l564 461h141l-590 -479l438 -584h-123l-434 571l-96 -571h-102z" />
<glyph unicode="&#x139;" horiz-adv-x="913" d="M174 0l240 1434h104l-223 -1338h571l-16 -96h-676zM434 1530l197 289h121l-224 -289h-94z" />
<glyph unicode="&#x13a;" d="M154 0l247 1481h103l-248 -1481h-102zM401 1536l197 289h121l-223 -289h-95z" />
<glyph unicode="&#x13b;" horiz-adv-x="913" d="M174 0l240 1434h104l-223 -1338h571l-16 -96h-676zM360 -381q97 80 113 139q-29 3 -46 23.5t-17 48.5q0 40 29 69t67 29q35 0 55.5 -22t20.5 -56q0 -143 -168 -280z" />
<glyph unicode="&#x13c;" d="M47 -381q97 80 113 139q-29 3 -46.5 23.5t-17.5 48.5q0 40 29 69t68 29q35 0 55 -22t20 -56q0 -143 -168 -280zM154 0l247 1481h103l-248 -1481h-102z" />
<glyph unicode="&#x13d;" horiz-adv-x="913" d="M174 0l240 1434h104l-223 -1338h571l-16 -96h-676zM733 1094l86 340h96l-106 -340h-76z" />
<glyph unicode="&#x13e;" horiz-adv-x="417" d="M154 0l247 1481h103l-248 -1481h-102zM496 1141l86 340h96l-107 -340h-75z" />
<glyph unicode="&#x13f;" horiz-adv-x="913" d="M174 0l240 1434h104l-223 -1338h571l-16 -96h-676zM651 741q0 39 32 69t71 30q32 0 51.5 -21.5t19.5 -52.5q0 -39 -30.5 -68.5t-69.5 -29.5q-32 0 -53 21t-21 52z" />
<glyph unicode="&#x140;" horiz-adv-x="591" d="M154 0l247 1481h103l-248 -1481h-102zM451 631q0 39 31.5 68.5t70.5 29.5q32 0 52 -21.5t20 -52.5q0 -39 -31 -68.5t-70 -29.5q-32 0 -52.5 21.5t-20.5 52.5z" />
<glyph unicode="&#x141;" horiz-adv-x="913" d="M141 541l19 106l135 76l119 711h104l-108 -648l301 170l-19 -114l-301 -168l-96 -578h571l-16 -96h-676l102 614z" />
<glyph unicode="&#x142;" horiz-adv-x="491" d="M158 631l18 112l160 97l106 641h103l-94 -574l165 103l-18 -117l-168 -100l-133 -793h-102l122 727z" />
<glyph unicode="&#x143;" horiz-adv-x="1433" d="M174 0l240 1434h102l668 -1264l211 1264h104l-239 -1434h-105l-666 1266l-210 -1266h-105zM924 1530l196 289h121l-223 -289h-94z" />
<glyph unicode="&#x144;" horiz-adv-x="1110" d="M154 0l178 1063h102l-28 -168q56 86 153 140.5t207 54.5q165 0 255 -109t60 -291l-114 -690h-103l115 682q24 143 -43.5 228t-194.5 85q-140 0 -245 -96t-131 -250l-109 -649h-102zM688 1196l197 289h121l-224 -289h-94z" />
<glyph unicode="&#x145;" horiz-adv-x="1433" d="M174 0l240 1434h102l668 -1264l211 1264h104l-239 -1434h-105l-666 1266l-210 -1266h-105zM555 -381q97 80 113 139q-29 3 -46.5 23.5t-17.5 48.5q0 40 29 69t67 29q35 0 55.5 -22t20.5 -56q0 -143 -168 -280z" />
<glyph unicode="&#x146;" horiz-adv-x="1110" d="M154 0l178 1063h102l-28 -168q56 86 153 140.5t207 54.5q165 0 255 -109t60 -291l-114 -690h-103l115 682q24 143 -43.5 228t-194.5 85q-140 0 -245 -96t-131 -250l-109 -649h-102zM395 -381q97 80 113 139q-29 3 -46.5 23.5t-17.5 48.5q0 40 29 69t68 29q35 0 55 -22 t20 -56q0 -143 -167 -280z" />
<glyph unicode="&#x147;" horiz-adv-x="1433" d="M174 0l240 1434h102l668 -1264l211 1264h104l-239 -1434h-105l-666 1266l-210 -1266h-105zM770 1802h104l107 -180l170 180h115l-234 -256h-114z" />
<glyph unicode="&#x148;" horiz-adv-x="1110" d="M154 0l178 1063h102l-28 -168q56 86 153 140.5t207 54.5q165 0 255 -109t60 -291l-114 -690h-103l115 682q24 143 -43.5 228t-194.5 85q-140 0 -245 -96t-131 -250l-109 -649h-102zM588 1483h104l107 -180l170 180h114l-233 -256h-115z" />
<glyph unicode="&#x149;" horiz-adv-x="1110" d="M154 0l178 1063h102l-28 -168q56 86 153 140.5t207 54.5q165 0 255 -109t60 -291l-114 -690h-103l115 682q24 143 -43.5 228t-194.5 85q-140 0 -245 -96t-131 -250l-109 -649h-102zM172 1145q97 80 113 139q-29 3 -46.5 23.5t-17.5 48.5q0 40 29 69t67 29q35 0 55.5 -22 t20.5 -56q0 -143 -168 -280z" />
<glyph unicode="&#x14a;" horiz-adv-x="1433" d="M174 0l240 1434h102l668 -1264l211 1264h104l-252 -1502q-25 -154 -110.5 -237.5t-229.5 -83.5q-42 0 -83 6t-61 12l-20 6l27 91q61 -21 139 -21q196 0 236 234l10 61l-666 1266l-210 -1266h-105z" />
<glyph unicode="&#x14b;" horiz-adv-x="1110" d="M154 0l178 1063h102l-28 -168q55 86 154 140.5t210 54.5q161 0 251 -109.5t60 -290.5l-123 -733q-32 -185 -125.5 -265.5t-224.5 -80.5l-49 2l16 92q26 -2 46 -2q97 0 155.5 61t79.5 191l123 727q24 143 -43.5 228t-194.5 85q-140 0 -245 -96t-131 -250l-109 -649h-102z " />
<glyph unicode="&#x14c;" horiz-adv-x="1622" d="M195 604q0 175 71.5 335t189 273.5t274.5 180.5t323 67q178 0 319 -84t218 -228.5t77 -322.5q0 -173 -71.5 -332t-189 -272t-275 -180.5t-324.5 -67.5q-176 0 -316.5 82.5t-218 226.5t-77.5 322zM303 616q0 -239 144.5 -391.5t375.5 -152.5q143 0 278 57.5t235.5 155.5 t161.5 237t61 293q0 238 -146 392.5t-375 154.5q-143 0 -277.5 -58.5t-235.5 -157t-161.5 -238t-60.5 -292.5zM840 1581l14 90h471l-14 -90h-471z" />
<glyph unicode="&#x14d;" horiz-adv-x="1245" d="M158 444q0 177 88 326.5t236 234.5t321 85q207 0 336 -134.5t129 -339.5q0 -131 -52.5 -251t-140 -205.5t-206 -136t-246.5 -50.5q-208 0 -336.5 132t-128.5 339zM266 457q0 -170 100.5 -278.5t268.5 -108.5q143 0 263 70.5t190.5 194t70.5 271.5q0 168 -101.5 277.5 t-269.5 109.5q-106 0 -203 -42.5t-167 -114t-111 -171t-41 -208.5zM614 1315l15 90h471l-15 -90h-471z" />
<glyph unicode="&#x14e;" horiz-adv-x="1622" d="M195 604q0 175 71.5 335t189 273.5t274.5 180.5t323 67q178 0 319 -84t218 -228.5t77 -322.5q0 -173 -71.5 -332t-189 -272t-275 -180.5t-324.5 -67.5q-176 0 -316.5 82.5t-218 226.5t-77.5 322zM303 616q0 -239 144.5 -391.5t375.5 -152.5q143 0 278 57.5t235.5 155.5 t161.5 237t61 293q0 238 -146 392.5t-375 154.5q-143 0 -277.5 -58.5t-235.5 -157t-161.5 -238t-60.5 -292.5zM883 1778h90q-11 -70 17 -113t100 -43t114 43t53 113h97q-19 -105 -89.5 -173.5t-185.5 -68.5q-114 0 -164 69t-32 173z" />
<glyph unicode="&#x14f;" horiz-adv-x="1245" d="M158 444q0 177 88 326.5t236 234.5t321 85q207 0 336 -134.5t129 -339.5q0 -131 -52.5 -251t-140 -205.5t-206 -136t-246.5 -50.5q-208 0 -336.5 132t-128.5 339zM266 457q0 -170 100.5 -278.5t268.5 -108.5q143 0 263 70.5t190.5 194t70.5 271.5q0 168 -101.5 277.5 t-269.5 109.5q-106 0 -203 -42.5t-167 -114t-111 -171t-41 -208.5zM631 1450h90q-11 -70 17 -113t100 -43t114.5 43t53.5 113h96q-19 -105 -89.5 -173.5t-185.5 -68.5q-114 0 -164 69t-32 173z" />
<glyph unicode="&#x150;" horiz-adv-x="1622" d="M195 604q0 175 71.5 335t189 273.5t274.5 180.5t323 67q178 0 319 -84t218 -228.5t77 -322.5q0 -173 -71.5 -332t-189 -272t-275 -180.5t-324.5 -67.5q-176 0 -316.5 82.5t-218 226.5t-77.5 322zM303 616q0 -239 144.5 -391.5t375.5 -152.5q143 0 278 57.5t235.5 155.5 t161.5 237t61 293q0 238 -146 392.5t-375 154.5q-143 0 -277.5 -58.5t-235.5 -157t-161.5 -238t-60.5 -292.5zM891 1530l199 289h118l-223 -289h-94zM1124 1530l199 289h119l-223 -289h-95z" />
<glyph unicode="&#x151;" horiz-adv-x="1245" d="M158 444q0 177 88 326.5t236 234.5t321 85q207 0 336 -134.5t129 -339.5q0 -131 -52.5 -251t-140 -205.5t-206 -136t-246.5 -50.5q-208 0 -336.5 132t-128.5 339zM266 457q0 -170 100.5 -278.5t268.5 -108.5q143 0 263 70.5t190.5 194t70.5 271.5q0 168 -101.5 277.5 t-269.5 109.5q-106 0 -203 -42.5t-167 -114t-111 -171t-41 -208.5zM645 1196l199 289h119l-224 -289h-94zM879 1196l198 289h119l-223 -289h-94z" />
<glyph unicode="&#x152;" horiz-adv-x="2213" d="M195 604q0 117 32.5 229.5t90.5 206t139 172t175.5 133t203 85t219.5 30.5q94 0 190 -26h1063l-16 -97h-858q246 -206 231 -557h467l-16 -96h-467q-36 -186 -146.5 -340t-269.5 -248h874l-16 -96h-1085q-111 -27 -201 -27q-177 0 -316.5 81.5t-216.5 225t-77 324.5z M303 616q0 -239 144.5 -391.5t375.5 -152.5q143 0 278 57.5t235.5 155.5t161.5 237t61 293q0 238 -146 392.5t-375 154.5q-143 0 -277.5 -58.5t-235.5 -157t-161.5 -238t-60.5 -292.5z" />
<glyph unicode="&#x153;" horiz-adv-x="2148" d="M158 444q0 177 88 326.5t236 234.5t321 85q161 0 277 -86.5t161 -221.5q84 145 223 226.5t293 81.5q226 0 340 -151t72 -382l-8 -43h-906q-36 -211 65 -328.5t296 -117.5q230 0 391 182l66 -49q-78 -98 -197 -163t-277 -65q-169 0 -285 82.5t-153 225.5 q-89 -141 -234 -224.5t-309 -83.5q-207 0 -333.5 131.5t-126.5 339.5zM266 457q0 -170 100.5 -278.5t268.5 -108.5q143 0 263 70.5t190.5 194t70.5 271.5q0 168 -101.5 277.5t-269.5 109.5q-106 0 -203 -42.5t-167 -114t-111 -171t-41 -208.5zM1276 604h792q12 97 -9 173 t-68 123t-111 71t-141 24q-73 0 -144.5 -25t-134.5 -72.5t-111.5 -123t-72.5 -170.5z" />
<glyph unicode="&#x154;" horiz-adv-x="1081" d="M174 0l240 1434h329q178 0 273.5 -94.5t95.5 -237.5q0 -153 -92 -270.5t-242 -157.5l252 -674h-117l-235 655h-289l-110 -655h-105zM403 750h230q165 0 266.5 94.5t101.5 247.5q0 111 -71.5 178t-204.5 67h-223zM711 1530l196 289h121l-223 -289h-94z" />
<glyph unicode="&#x155;" horiz-adv-x="647" d="M154 0l178 1063h102l-33 -191q42 87 143 152.5t222 65.5l-16 -101q-71 0 -132.5 -25t-105 -66t-77.5 -97t-54 -115.5t-31 -124.5l-94 -561h-102zM477 1196l197 289h121l-224 -289h-94z" />
<glyph unicode="&#x156;" horiz-adv-x="1081" d="M174 0l240 1434h329q178 0 273.5 -94.5t95.5 -237.5q0 -153 -92 -270.5t-242 -157.5l252 -674h-117l-235 655h-289l-110 -655h-105zM395 -381q97 80 113 139q-29 3 -46.5 23.5t-17.5 48.5q0 40 29 69t68 29q35 0 55 -22t20 -56q0 -143 -167 -280zM403 750h230 q165 0 266.5 94.5t101.5 247.5q0 111 -71.5 178t-204.5 67h-223z" />
<glyph unicode="&#x157;" horiz-adv-x="647" d="M70 -381q96 79 112 139q-29 3 -46 23.5t-17 48.5q0 40 29 69t67 29q35 0 55.5 -22t20.5 -56q0 -143 -168 -280zM154 0l178 1063h102l-33 -191q42 87 143 152.5t222 65.5l-16 -101q-71 0 -132.5 -25t-105 -66t-77.5 -97t-54 -115.5t-31 -124.5l-94 -561h-102z" />
<glyph unicode="&#x158;" horiz-adv-x="1081" d="M174 0l240 1434h329q178 0 273.5 -94.5t95.5 -237.5q0 -153 -92 -270.5t-242 -157.5l252 -674h-117l-235 655h-289l-110 -655h-105zM403 750h230q165 0 266.5 94.5t101.5 247.5q0 111 -71.5 178t-204.5 67h-223zM563 1802h105l106 -180l170 180h115l-234 -256h-114z" />
<glyph unicode="&#x159;" horiz-adv-x="647" d="M154 0l178 1063h102l-33 -191q42 87 143 152.5t222 65.5l-16 -101q-71 0 -132.5 -25t-105 -66t-77.5 -97t-54 -115.5t-31 -124.5l-94 -561h-102zM350 1483h105l106 -180l170 180h115l-234 -256h-114z" />
<glyph unicode="&#x15a;" horiz-adv-x="1021" d="M129 281l96 32q15 -111 85 -177t222 -66q149 0 252 90t103 237q0 55 -20 101t-53.5 79t-77 62t-91.5 54t-96 51t-91.5 57t-77 67t-53.5 87t-20 112q0 165 123.5 279t321.5 114q69 0 126.5 -18t95.5 -45t66.5 -62.5t42.5 -66.5t21 -62l-92 -32q-10 33 -28 63t-48.5 61 t-80.5 49.5t-112 18.5q-151 0 -240 -86t-89 -207q0 -61 32 -111t83.5 -85.5t113 -69t123.5 -70t113.5 -79t83.5 -106.5t32 -142q0 -184 -133.5 -310.5t-347.5 -126.5q-90 0 -162 27t-116.5 72.5t-70.5 97.5t-36 111zM698 1530l197 289h121l-223 -289h-95z" />
<glyph unicode="&#x15b;" horiz-adv-x="837" d="M106 217l91 35q23 -64 47.5 -101t74 -61t125.5 -24q106 0 187.5 64.5t81.5 168.5q0 52 -25.5 92t-66.5 66t-91 48.5t-99.5 46.5t-90.5 53t-66.5 74.5t-25.5 104.5q0 140 103.5 223t258.5 83q68 0 121.5 -20t84.5 -54t48 -67.5t25 -69.5l-84 -33q-37 153 -213 153 q-100 0 -171 -55t-71 -147q0 -41 20 -74.5t52.5 -56t74.5 -44.5t85.5 -40t85.5 -43.5t74.5 -54t52.5 -72t20 -97.5q0 -149 -109 -245.5t-270 -96.5q-62 0 -115 15.5t-88 39.5t-62 57.5t-42 65.5t-23 66zM541 1196l196 289h121l-223 -289h-94z" />
<glyph unicode="&#x15c;" horiz-adv-x="1021" d="M129 281l96 32q15 -111 85 -177t222 -66q149 0 252 90t103 237q0 55 -20 101t-53.5 79t-77 62t-91.5 54t-96 51t-91.5 57t-77 67t-53.5 87t-20 112q0 165 123.5 279t321.5 114q69 0 126.5 -18t95.5 -45t66.5 -62.5t42.5 -66.5t21 -62l-92 -32q-10 33 -28 63t-48.5 61 t-80.5 49.5t-112 18.5q-151 0 -240 -86t-89 -207q0 -61 32 -111t83.5 -85.5t113 -69t123.5 -70t113.5 -79t83.5 -106.5t32 -142q0 -184 -133.5 -310.5t-347.5 -126.5q-90 0 -162 27t-116.5 72.5t-70.5 97.5t-36 111zM522 1546l234 256h114l148 -256h-103l-110 180l-170 -180 h-113z" />
<glyph unicode="&#x15d;" horiz-adv-x="837" d="M106 217l91 35q23 -64 47.5 -101t74 -61t125.5 -24q106 0 187.5 64.5t81.5 168.5q0 52 -25.5 92t-66.5 66t-91 48.5t-99.5 46.5t-90.5 53t-66.5 74.5t-25.5 104.5q0 140 103.5 223t258.5 83q68 0 121.5 -20t84.5 -54t48 -67.5t25 -69.5l-84 -33q-37 153 -213 153 q-100 0 -171 -55t-71 -147q0 -41 20 -74.5t52.5 -56t74.5 -44.5t85.5 -40t85.5 -43.5t74.5 -54t52.5 -72t20 -97.5q0 -149 -109 -245.5t-270 -96.5q-62 0 -115 15.5t-88 39.5t-62 57.5t-42 65.5t-23 66zM389 1227l234 256h114l148 -256h-103l-110 180l-170 -180h-113z" />
<glyph unicode="&#x15e;" horiz-adv-x="1021" d="M129 281l96 32q15 -111 85 -177t222 -66q149 0 252 90t103 237q0 55 -20 101t-53.5 79t-77 62t-91.5 54t-96 51t-91.5 57t-77 67t-53.5 87t-20 112q0 165 123.5 279t321.5 114q69 0 126.5 -18t95.5 -45t66.5 -62.5t42.5 -66.5t21 -62l-92 -32q-10 33 -28 63t-48.5 61 t-80.5 49.5t-112 18.5q-151 0 -240 -86t-89 -207q0 -61 32 -111t83.5 -85.5t113 -69t123.5 -70t113.5 -79t83.5 -106.5t32 -142q0 -177 -125.5 -302.5t-328.5 -134.5l-25 -77q69 -9 106 -46.5t37 -95.5q0 -106 -70 -156.5t-175 -50.5l-78 7l26 84q40 -5 60 -5q143 0 143 107 q0 78 -116 78h-33l45 159q-77 7 -138.5 36t-100 72.5t-61.5 92.5t-32 103z" />
<glyph unicode="&#x15f;" horiz-adv-x="837" d="M106 217l91 35q23 -64 47.5 -101t74 -61t125.5 -24q106 0 187.5 64.5t81.5 168.5q0 52 -25.5 92t-66.5 66t-91 48.5t-99.5 46.5t-90.5 53t-66.5 74.5t-25.5 104.5q0 140 103.5 223t258.5 83q68 0 121.5 -20t84.5 -54t48 -67.5t25 -69.5l-84 -33q-37 153 -213 153 q-100 0 -171 -55t-71 -147q0 -41 20 -74.5t52.5 -56t74.5 -44.5t85.5 -40t85.5 -43.5t74.5 -54t52.5 -72t20 -97.5q0 -147 -106 -243t-265 -99l-24 -77q69 -9 106 -46.5t37 -95.5q0 -106 -70.5 -156.5t-175.5 -50.5l-77 7l26 84q40 -5 60 -5q143 0 143 107q0 78 -117 78h-33 l46 162q-59 9 -107 34t-78 59.5t-48 70t-26 73.5z" />
<glyph unicode="&#x160;" horiz-adv-x="1021" d="M129 281l96 32q15 -111 85 -177t222 -66q149 0 252 90t103 237q0 55 -20 101t-53.5 79t-77 62t-91.5 54t-96 51t-91.5 57t-77 67t-53.5 87t-20 112q0 165 123.5 279t321.5 114q69 0 126.5 -18t95.5 -45t66.5 -62.5t42.5 -66.5t21 -62l-92 -32q-10 33 -28 63t-48.5 61 t-80.5 49.5t-112 18.5q-151 0 -240 -86t-89 -207q0 -61 32 -111t83.5 -85.5t113 -69t123.5 -70t113.5 -79t83.5 -106.5t32 -142q0 -184 -133.5 -310.5t-347.5 -126.5q-90 0 -162 27t-116.5 72.5t-70.5 97.5t-36 111zM571 1802h105l106 -180l170 180h115l-233 -256h-115z" />
<glyph unicode="&#x161;" horiz-adv-x="837" d="M106 217l91 35q23 -64 47.5 -101t74 -61t125.5 -24q106 0 187.5 64.5t81.5 168.5q0 52 -25.5 92t-66.5 66t-91 48.5t-99.5 46.5t-90.5 53t-66.5 74.5t-25.5 104.5q0 140 103.5 223t258.5 83q68 0 121.5 -20t84.5 -54t48 -67.5t25 -69.5l-84 -33q-37 153 -213 153 q-100 0 -171 -55t-71 -147q0 -41 20 -74.5t52.5 -56t74.5 -44.5t85.5 -40t85.5 -43.5t74.5 -54t52.5 -72t20 -97.5q0 -149 -109 -245.5t-270 -96.5q-62 0 -115 15.5t-88 39.5t-62 57.5t-42 65.5t-23 66zM434 1483h105l106 -180l170 180h115l-234 -256h-114z" />
<glyph unicode="&#x162;" horiz-adv-x="1046" d="M268 1337l17 97h927l-16 -97h-412l-223 -1337h-14l-35 -104q69 -9 106 -46.5t37 -95.5q0 -106 -70 -156.5t-175 -50.5l-78 7l26 84q40 -5 60 -5q143 0 143 107q0 78 -117 78h-32l53 182h-8l223 1337h-412z" />
<glyph unicode="&#x163;" horiz-adv-x="567" d="M178 -446l27 84q40 -5 59 -5q144 0 144 107q0 78 -117 78h-33l55 196q-137 69 -98 293l109 664h-131l14 92h131l37 221h102l-37 -221h250l-14 -92h-250l-102 -615q-12 -70 -12.5 -117.5t9 -78.5t33 -48t55 -23.5t80.5 -6.5l48 2l-15 -92q-25 -4 -82 -4q-21 0 -53 4 l-29 -96q70 -9 107 -46.5t37 -95.5q0 -106 -70.5 -156.5t-175.5 -50.5z" />
<glyph unicode="&#x164;" horiz-adv-x="1046" d="M268 1337l17 97h927l-16 -97h-412l-223 -1337h-104l223 1337h-412zM582 1802h104l107 -180l170 180h114l-233 -256h-115z" />
<glyph unicode="&#x165;" horiz-adv-x="569" d="M193 971l14 92h131l37 221h102l-37 -221h250l-14 -92h-250l-102 -615q-12 -70 -12.5 -117.5t9 -78.5t33 -48t55 -23.5t80.5 -6.5l48 2l-15 -92q-25 -4 -82 -4q-130 0 -191 81t-34 238l109 664h-131zM553 1141l86 340h96l-106 -340h-76z" />
<glyph unicode="&#x166;" horiz-adv-x="1046" d="M268 1337l17 97h927l-16 -97h-412l-86 -510h271l-15 -92h-270l-123 -735h-104l123 735h-271l15 92h270l86 510h-412z" />
<glyph unicode="&#x167;" horiz-adv-x="567" d="M135 612l15 90h129l45 269h-131l14 92h131l37 221h102l-37 -221h250l-14 -92h-250l-45 -269h248l-15 -90h-247l-43 -256q-12 -70 -12.5 -117.5t9 -78.5t33 -48t55 -23.5t80.5 -6.5l48 2l-15 -92q-25 -4 -82 -4q-130 0 -190.5 81t-34.5 238l49 305h-129z" />
<glyph unicode="&#x168;" horiz-adv-x="1359" d="M248 504l155 930h105l-156 -928q-34 -203 52.5 -318.5t287.5 -115.5q200 0 325 115t159 319l155 928h105l-156 -930q-41 -248 -194 -389.5t-402 -141.5q-245 0 -360.5 143.5t-75.5 387.5zM643 1571q13 85 70 135.5t133 50.5q43 0 88.5 -24.5t86.5 -49t73 -24.5 q36 0 63.5 26.5t36.5 71.5h88q-13 -85 -68.5 -136.5t-132.5 -51.5q-35 0 -71 15.5t-61 33.5t-57.5 33.5t-60.5 15.5q-35 0 -62 -26t-36 -70h-90z" />
<glyph unicode="&#x169;" horiz-adv-x="1099" d="M205 373l114 690h105l-115 -682q-24 -144 42.5 -228.5t193.5 -84.5q141 0 247 96t132 250l108 649h103l-179 -1063h-102l29 168q-58 -86 -153 -140.5t-212 -54.5q-167 0 -255 108.5t-58 291.5zM463 1249q13 85 70 136t133 51q43 0 88.5 -25t86 -49.5t72.5 -24.5 q36 0 64 27t37 72h88q-13 -85 -68.5 -137t-132.5 -52q-35 0 -71 15.5t-61 34t-57.5 34t-60.5 15.5q-35 0 -62 -26.5t-36 -70.5h-90z" />
<glyph unicode="&#x16a;" horiz-adv-x="1359" d="M248 504l155 930h105l-156 -928q-34 -203 52.5 -318.5t287.5 -115.5q200 0 325 115t159 319l155 928h105l-156 -930q-41 -248 -194 -389.5t-402 -141.5q-245 0 -360.5 143.5t-75.5 387.5zM719 1581l14 90h471l-14 -90h-471z" />
<glyph unicode="&#x16b;" horiz-adv-x="1099" d="M205 373l114 690h105l-115 -682q-24 -144 42.5 -228.5t193.5 -84.5q141 0 247 96t132 250l108 649h103l-179 -1063h-102l29 168q-58 -86 -153 -140.5t-212 -54.5q-167 0 -255 108.5t-58 291.5zM545 1315l14 90h471l-14 -90h-471z" />
<glyph unicode="&#x16c;" horiz-adv-x="1359" d="M248 504l155 930h105l-156 -928q-34 -203 52.5 -318.5t287.5 -115.5q200 0 325 115t159 319l155 928h105l-156 -930q-41 -248 -194 -389.5t-402 -141.5q-245 0 -360.5 143.5t-75.5 387.5zM748 1778h90q-11 -70 17 -113t99 -43q72 0 114.5 43t53.5 113h97 q-19 -105 -89.5 -173.5t-185.5 -68.5q-114 0 -164 69t-32 173z" />
<glyph unicode="&#x16d;" horiz-adv-x="1099" d="M205 373l114 690h105l-115 -682q-24 -144 42.5 -228.5t193.5 -84.5q141 0 247 96t132 250l108 649h103l-179 -1063h-102l29 168q-58 -86 -153 -140.5t-212 -54.5q-167 0 -255 108.5t-58 291.5zM563 1450h90q-11 -70 17 -113t100 -43t114.5 43t53.5 113h96 q-19 -106 -89 -174t-185 -68q-114 0 -164.5 69t-32.5 173z" />
<glyph unicode="&#x16e;" horiz-adv-x="1359" d="M248 504l155 930h105l-156 -928q-34 -203 52.5 -318.5t287.5 -115.5q200 0 325 115t159 319l155 928h105l-156 -930q-41 -248 -194 -389.5t-402 -141.5q-245 0 -360.5 143.5t-75.5 387.5zM807 1665q0 81 56 135.5t138 54.5q67 0 107.5 -39t40.5 -100q0 -80 -57.5 -136 t-139.5 -56q-65 0 -105 39.5t-40 101.5zM887 1675q0 -33 20.5 -53t55.5 -20q47 0 75.5 29.5t28.5 74.5q0 33 -20.5 53.5t-57.5 20.5q-43 0 -72.5 -30.5t-29.5 -74.5z" />
<glyph unicode="&#x16f;" horiz-adv-x="1099" d="M205 373l114 690h105l-115 -682q-24 -144 42.5 -228.5t193.5 -84.5q141 0 247 96t132 250l108 649h103l-179 -1063h-102l29 168q-58 -86 -153 -140.5t-212 -54.5q-167 0 -255 108.5t-58 291.5zM614 1335q0 81 56.5 136t138.5 55q66 0 106.5 -39.5t40.5 -100.5 q0 -80 -57 -136t-139 -56q-65 0 -105.5 39.5t-40.5 101.5zM694 1346q0 -33 20.5 -53.5t55.5 -20.5q47 0 75.5 29.5t28.5 74.5q0 33 -20 53.5t-57 20.5q-43 0 -73 -30t-30 -74z" />
<glyph unicode="&#x170;" horiz-adv-x="1359" d="M248 504l155 930h105l-156 -928q-34 -203 52.5 -318.5t287.5 -115.5q200 0 325 115t159 319l155 928h105l-156 -930q-41 -248 -194 -389.5t-402 -141.5q-245 0 -360.5 143.5t-75.5 387.5zM745 1530l199 289h119l-223 -289h-95zM979 1530l199 289h118l-223 -289h-94z" />
<glyph unicode="&#x171;" horiz-adv-x="1099" d="M205 373l114 690h105l-115 -682q-24 -144 42.5 -228.5t193.5 -84.5q141 0 247 96t132 250l108 649h103l-179 -1063h-102l29 168q-58 -86 -153 -140.5t-212 -54.5q-167 0 -255 108.5t-58 291.5zM557 1196l199 289h118l-223 -289h-94zM791 1196l198 289h119l-223 -289h-94z " />
<glyph unicode="&#x172;" horiz-adv-x="1359" d="M248 504l155 930h105l-156 -928q-34 -203 52.5 -318.5t287.5 -115.5q200 0 325 115t159 319l155 928h105l-156 -930q-34 -204 -145 -338t-289 -174q-62 -30 -117 -82.5t-55 -114.5q0 -51 39 -73.5t92 -22.5l-14 -86q-39 0 -76.5 8.5t-71 26t-54 50t-20.5 75.5 q0 61 39.5 113t96.5 87h-21q-245 0 -360.5 143.5t-75.5 387.5z" />
<glyph unicode="&#x173;" horiz-adv-x="1099" d="M205 373l114 690h105l-115 -682q-24 -144 42.5 -228.5t193.5 -84.5q141 0 247 96t132 250l108 649h103l-179 -1063q-22 -8 -51.5 -25.5t-63 -43.5t-56.5 -62.5t-23 -73.5q0 -51 39 -73.5t92 -22.5l-14 -86q-39 0 -76.5 8.5t-71 26t-54 50t-20.5 75.5q0 75 64 136.5 t133 90.5l29 168q-58 -86 -153 -140.5t-212 -54.5q-167 0 -255 108.5t-58 291.5z" />
<glyph unicode="&#x174;" horiz-adv-x="1896" d="M266 1434h113l149 -1293l602 1293h115l168 -1293l584 1293h112l-659 -1434h-115l-172 1286l-602 -1286h-115zM963 1546l233 256h115l147 -256h-102l-111 180l-170 -180h-112z" />
<glyph unicode="&#x175;" horiz-adv-x="1658" d="M193 1063h106l168 -936q3 8 483 936h111l172 -936l479 936h111l-557 -1063h-109l-172 926l-483 -926h-109zM788 1227l234 256h115l147 -256h-102l-111 180l-170 -180h-113z" />
<glyph unicode="&#x176;" horiz-adv-x="1038" d="M262 1434h115l266 -650l492 650h122l-571 -752l-115 -682h-104l115 682zM532 1546l234 256h115l147 -256h-102l-111 180l-170 -180h-113z" />
<glyph unicode="&#x177;" horiz-adv-x="1009" d="M193 1063h108l225 -936l531 936h117l-826 -1430h-110l215 371zM473 1227l234 256h114l148 -256h-103l-110 180l-170 -180h-113z" />
<glyph unicode="&#x178;" horiz-adv-x="1038" d="M262 1434h115l266 -650l492 650h122l-571 -752l-115 -682h-104l115 682zM567 1696q0 39 30 67.5t69 28.5q32 0 51.5 -20.5t19.5 -51.5q0 -39 -30.5 -67.5t-69.5 -28.5q-32 0 -51 20.5t-19 51.5zM879 1696q0 39 29.5 67.5t68.5 28.5q32 0 52 -20.5t20 -51.5 q0 -39 -31 -67.5t-70 -28.5q-32 0 -50.5 20.5t-18.5 51.5z" />
<glyph unicode="&#x179;" horiz-adv-x="1208" d="M76 0l14 88l1120 1249h-882l16 97h1014l-15 -91l-1118 -1247h914l-17 -96h-1046zM799 1530l196 289h121l-223 -289h-94z" />
<glyph unicode="&#x17a;" horiz-adv-x="942" d="M70 0l14 86l811 887h-641l16 90h764l-14 -86l-809 -887h670l-15 -90h-796zM578 1196l196 289h121l-223 -289h-94z" />
<glyph unicode="&#x17b;" horiz-adv-x="1208" d="M76 0l14 88l1120 1249h-882l16 97h1014l-15 -91l-1118 -1247h914l-17 -96h-1046zM799 1651q0 39 30 67.5t70 28.5q31 0 51.5 -20.5t20.5 -51.5q0 -39 -30.5 -67.5t-70.5 -28.5q-31 0 -51 20.5t-20 51.5z" />
<glyph unicode="&#x17c;" horiz-adv-x="942" d="M70 0l14 86l811 887h-641l16 90h764l-14 -86l-809 -887h670l-15 -90h-796zM610 1333q0 39 30.5 68t70.5 29q31 0 51 -20.5t20 -51.5q0 -39 -30 -67.5t-70 -28.5q-31 0 -51.5 20t-20.5 51z" />
<glyph unicode="&#x17d;" horiz-adv-x="1208" d="M76 0l14 88l1120 1249h-882l16 97h1014l-15 -91l-1118 -1247h914l-17 -96h-1046zM657 1802h105l106 -180l170 180h115l-233 -256h-115z" />
<glyph unicode="&#x17e;" horiz-adv-x="942" d="M70 0l14 86l811 887h-641l16 90h764l-14 -86l-809 -887h670l-15 -90h-796zM471 1483h104l107 -180l170 180h115l-234 -256h-115z" />
<glyph unicode="&#x192;" horiz-adv-x="911" d="M-102 -381l18 92q47 -12 104 -12q99 0 159 70t87 231l125 748h-155l4 92h168l51 276q17 94 52.5 161t84 103t98.5 52t107 16q29 0 57.5 -3t42.5 -6l14 -3l-18 -93q-47 13 -104 13q-99 0 -156 -61.5t-84 -211.5l-43 -243h235l-4 -92h-247l-140 -809q-15 -92 -51 -159 t-84 -103.5t-99.5 -53t-107.5 -16.5q-29 0 -57.5 3t-42.5 6z" />
<glyph unicode="&#x1fa;" horiz-adv-x="1261" d="M31 0l753 1372q-69 37 -69 127q0 81 57.5 136t138.5 55q66 0 106 -39.5t40 -100.5q0 -59 -34 -106.5t-89 -71.5l297 -1372h-101l-108 514h-598l-281 -514h-112zM477 610h524l-145 705zM797 1509q0 -33 19 -53t54 -20q47 0 76 29.5t29 74.5q0 33 -20 53.5t-56 20.5 q-43 0 -72.5 -30.5t-29.5 -74.5zM868 1745l197 289h121l-223 -289h-95z" />
<glyph unicode="&#x1fb;" horiz-adv-x="1028" d="M129 287q0 165 137.5 276t333.5 111q99 0 176 -37t111 -84l26 168q21 131 -45.5 202.5t-199.5 71.5q-157 0 -336 -98l-37 80q192 113 395 113q187 0 270 -102t54 -273l-119 -715h-84l-2 100q-131 -127 -326 -127q-160 0 -257 90t-97 224zM236 293q0 -97 72.5 -161 t197.5 -64q148 0 249 85t101 209q0 98 -72 158t-196 60q-153 0 -252.5 -83.5t-99.5 -203.5zM571 1335q0 81 56.5 136t138.5 55q66 0 106.5 -39.5t40.5 -100.5q0 -80 -57 -136t-139 -56q-65 0 -105.5 39.5t-40.5 101.5zM651 1346q0 -33 20.5 -53.5t55.5 -20.5q47 0 75.5 29.5 t28.5 74.5q0 33 -20 53.5t-57 20.5q-43 0 -73 -30t-30 -74zM721 1589l197 289h120l-223 -289h-94z" />
<glyph unicode="&#x1fc;" horiz-adv-x="1613" d="M18 0l951 1434h747l-16 -97h-549l-92 -557h481l-16 -96h-482l-98 -588h572l-17 -96h-676l86 514h-440l-338 -514h-113zM530 610h396l121 727h-41zM1171 1530l197 289h121l-223 -289h-95z" />
<glyph unicode="&#x1fd;" horiz-adv-x="1871" d="M129 287q0 165 137.5 276t333.5 111q99 0 176 -37t111 -84l26 168q21 131 -45.5 202.5t-199.5 71.5q-157 0 -336 -98l-37 80q192 113 395 113q147 0 230.5 -65t97.5 -179q89 117 210.5 180.5t252.5 63.5q150 0 253.5 -69.5t144 -190.5t13.5 -273l-8 -43h-905 q-35 -208 65.5 -327t294.5 -119q235 0 396 182l61 -47q-79 -99 -197.5 -164.5t-275.5 -65.5q-156 0 -266.5 65.5t-149.5 188.5q-42 -102 -152.5 -178t-271.5 -76q-160 0 -257 90t-97 224zM236 293q0 -97 72.5 -161t197.5 -64q148 0 249 85t101 209q0 98 -72 158t-196 60 q-153 0 -252.5 -83.5t-99.5 -203.5zM999 604h793q13 97 -8 173t-68.5 123t-112 71t-141.5 24q-73 0 -144.5 -25t-134.5 -72.5t-111.5 -123t-72.5 -170.5zM1038 1196l197 289h121l-223 -289h-95z" />
<glyph unicode="&#x1fe;" horiz-adv-x="1624" d="M195 604q0 175 71.5 335t189 273.5t274.5 180.5t323 67q231 0 393 -137l139 145l68 -61l-142 -147q156 -180 156 -435q0 -173 -71.5 -332t-189 -272t-275 -180.5t-324.5 -67.5q-229 0 -391 133l-135 -141l-68 60l137 145q-155 176 -155 434zM303 616q0 -220 123 -368 l946 997q-139 117 -334 117q-143 0 -277.5 -58.5t-235.5 -157t-161.5 -238t-60.5 -292.5zM489 184q134 -112 334 -112q143 0 278 57.5t235.5 155.5t161.5 237t61 293q0 217 -123 365zM987 1530l197 289h121l-224 -289h-94z" />
<glyph unicode="&#x1ff;" horiz-adv-x="1247" d="M158 444q0 177 88 326.5t236 234.5t321 85q170 0 297 -99l98 105l66 -62l-101 -106q105 -130 105 -312q0 -131 -52.5 -251t-140 -205.5t-206 -136t-246.5 -50.5q-166 0 -285 86l-96 -100l-64 59l94 101q-114 126 -114 325zM266 457q0 -153 82 -258l678 714 q-100 80 -238 80q-106 0 -203 -42.5t-167 -114t-111 -171t-41 -208.5zM412 137q92 -67 223 -67q143 0 263 70.5t190.5 194t70.5 271.5q0 138 -74 242zM745 1196l197 289h121l-223 -289h-95z" />
<glyph unicode="&#x218;" horiz-adv-x="1021" d="M129 281l96 32q15 -111 85 -177t222 -66q149 0 252 90t103 237q0 55 -20 101t-53.5 79t-77 62t-91.5 54t-96 51t-91.5 57t-77 67t-53.5 87t-20 112q0 165 123.5 279t321.5 114q69 0 126.5 -18t95.5 -45t66.5 -62.5t42.5 -66.5t21 -62l-92 -32q-10 33 -28 63t-48.5 61 t-80.5 49.5t-112 18.5q-151 0 -240 -86t-89 -207q0 -61 32 -111t83.5 -85.5t113 -69t123.5 -70t113.5 -79t83.5 -106.5t32 -142q0 -184 -133.5 -310.5t-347.5 -126.5q-90 0 -162 27t-116.5 72.5t-70.5 97.5t-36 111zM362 -381q97 80 113 139q-29 3 -46 23.5t-17 48.5 q0 40 29 69t67 29q35 0 55.5 -22t20.5 -56q0 -143 -168 -280z" />
<glyph unicode="&#x219;" horiz-adv-x="837" d="M106 217l91 35q23 -64 47.5 -101t74 -61t125.5 -24q106 0 187.5 64.5t81.5 168.5q0 52 -25.5 92t-66.5 66t-91 48.5t-99.5 46.5t-90.5 53t-66.5 74.5t-25.5 104.5q0 140 103.5 223t258.5 83q68 0 121.5 -20t84.5 -54t48 -67.5t25 -69.5l-84 -33q-37 153 -213 153 q-100 0 -171 -55t-71 -147q0 -41 20 -74.5t52.5 -56t74.5 -44.5t85.5 -40t85.5 -43.5t74.5 -54t52.5 -72t20 -97.5q0 -149 -109 -245.5t-270 -96.5q-62 0 -115 15.5t-88 39.5t-62 57.5t-42 65.5t-23 66zM274 -381q97 80 113 139q-29 3 -46 23.5t-17 48.5q0 40 29 69t67 29 q35 0 55.5 -22t20.5 -56q0 -143 -168 -280z" />
<glyph unicode="&#x21a;" horiz-adv-x="1046" d="M268 1337l17 97h927l-16 -97h-412l-223 -1337h-104l223 1337h-412zM344 -381q97 80 113 139q-29 3 -46.5 23.5t-17.5 48.5q0 40 29 69t67 29q35 0 55.5 -22t20.5 -56q0 -143 -168 -280z" />
<glyph unicode="&#x21b;" horiz-adv-x="567" d="M193 971l14 92h131l37 221h102l-37 -221h250l-14 -92h-250l-102 -615q-12 -70 -12.5 -117.5t9 -78.5t33 -48t55 -23.5t80.5 -6.5l48 2l-15 -92q-25 -4 -82 -4q-130 0 -191 81t-34 238l109 664h-131zM203 -381q96 79 112 139q-29 3 -46 23.5t-17 48.5q0 40 29 69t67 29 q35 0 55.5 -22t20.5 -56q0 -143 -168 -280z" />
<glyph unicode="&#x237;" d="M-152 -387l17 92q23 -2 43 -2q97 0 156.5 61t80.5 191l185 1108h102l-184 -1106q-32 -185 -125.5 -265.5t-224.5 -80.5z" />
<glyph unicode="&#x2c6;" horiz-adv-x="929" d="M422 1227l233 256h115l148 -256h-103l-110 180l-170 -180h-113z" />
<glyph unicode="&#x2c7;" horiz-adv-x="929" d="M465 1483h104l107 -180l170 180h115l-234 -256h-115z" />
<glyph unicode="&#x2d8;" horiz-adv-x="931" d="M473 1450h90q-11 -70 17 -113t100 -43t114.5 43t53.5 113h96q-19 -106 -89 -174t-185 -68q-114 0 -164.5 69t-32.5 173z" />
<glyph unicode="&#x2d9;" horiz-adv-x="931" d="M604 1333q0 39 30.5 68t70.5 29q31 0 51 -20.5t20 -51.5q0 -39 -30 -67.5t-70 -28.5q-31 0 -51.5 20t-20.5 51z" />
<glyph unicode="&#x2da;" horiz-adv-x="931" d="M522 1335q0 81 56.5 136t138.5 55q66 0 106.5 -39.5t40.5 -100.5q0 -80 -57 -136t-139 -56q-65 0 -105.5 39.5t-40.5 101.5zM602 1346q0 -33 20.5 -53.5t55.5 -20.5q47 0 75.5 29.5t28.5 74.5q0 33 -20 53.5t-57 20.5q-43 0 -73 -30t-30 -74z" />
<glyph unicode="&#x2db;" horiz-adv-x="929" d="M297 -227q0 76 59.5 137.5t126.5 89.5h113q-22 -8 -51.5 -25.5t-63.5 -43.5t-57 -62.5t-23 -73.5q0 -51 39 -73.5t92 -22.5l-14 -86q-54 0 -101.5 14t-83.5 51.5t-36 94.5z" />
<glyph unicode="&#x2dc;" horiz-adv-x="929" d="M369 1249q13 85 69.5 136t132.5 51q34 0 70.5 -15.5t62.5 -34t57.5 -34t57.5 -15.5q36 0 64 27t37 72h88q-13 -85 -68.5 -137t-132.5 -52q-35 0 -71 15.5t-61 34t-57.5 34t-60.5 15.5q-35 0 -62 -26.5t-36 -70.5h-90z" />
<glyph unicode="&#x2dd;" horiz-adv-x="929" d="M414 1196l198 289h119l-223 -289h-94zM647 1196l199 289h119l-224 -289h-94z" />
<glyph unicode="&#x1e80;" horiz-adv-x="1896" d="M266 1434h113l149 -1293l602 1293h115l168 -1293l584 1293h112l-659 -1434h-115l-172 1286l-602 -1286h-115zM1044 1823h115l101 -289h-91z" />
<glyph unicode="&#x1e81;" horiz-adv-x="1658" d="M193 1063h106l168 -936q3 8 483 936h111l172 -936l479 936h111l-557 -1063h-109l-172 926l-483 -926h-109zM860 1485h115l100 -289h-90z" />
<glyph unicode="&#x1e82;" horiz-adv-x="1896" d="M266 1434h113l149 -1293l602 1293h115l168 -1293l584 1293h112l-659 -1434h-115l-172 1286l-602 -1286h-115zM1143 1534l196 289h121l-223 -289h-94z" />
<glyph unicode="&#x1e83;" horiz-adv-x="1658" d="M193 1063h106l168 -936q3 8 483 936h111l172 -936l479 936h111l-557 -1063h-109l-172 926l-483 -926h-109zM967 1196l196 289h121l-223 -289h-94z" />
<glyph unicode="&#x1e84;" horiz-adv-x="1896" d="M266 1434h113l149 -1293l602 1293h115l168 -1293l584 1293h112l-659 -1434h-115l-172 1286l-602 -1286h-115zM985 1651q0 39 29.5 67.5t68.5 28.5q32 0 52 -20.5t20 -51.5q0 -39 -30.5 -67.5t-69.5 -28.5q-32 0 -51 20.5t-19 51.5zM1296 1651q0 39 30 67.5t69 28.5 q32 0 51.5 -20.5t19.5 -51.5q0 -39 -30.5 -67.5t-69.5 -28.5q-32 0 -51 20.5t-19 51.5z" />
<glyph unicode="&#x1e85;" horiz-adv-x="1658" d="M193 1063h106l168 -936q3 8 483 936h111l172 -936l479 936h111l-557 -1063h-109l-172 926l-483 -926h-109zM811 1325q0 39 29.5 67.5t68.5 28.5q32 0 52 -20t20 -51q0 -39 -30.5 -68t-69.5 -29q-32 0 -51 20.5t-19 51.5zM1122 1325q0 39 30 67.5t69 28.5q32 0 51.5 -20 t19.5 -51q0 -39 -30.5 -68t-69.5 -29q-32 0 -51 20.5t-19 51.5z" />
<glyph unicode="&#x1ef2;" horiz-adv-x="1038" d="M262 1434h115l266 -650l492 650h122l-571 -752l-115 -682h-104l115 682zM623 1823h114l101 -289h-90z" />
<glyph unicode="&#x1ef3;" horiz-adv-x="1009" d="M193 1063h108l225 -936l531 936h117l-826 -1430h-110l215 371zM575 1485h115l101 -289h-91z" />
<glyph unicode="&#x2000;" horiz-adv-x="1017" />
<glyph unicode="&#x2001;" horiz-adv-x="2034" />
<glyph unicode="&#x2002;" horiz-adv-x="1017" />
<glyph unicode="&#x2003;" horiz-adv-x="2034" />
<glyph unicode="&#x2004;" horiz-adv-x="678" />
<glyph unicode="&#x2005;" horiz-adv-x="508" />
<glyph unicode="&#x2006;" horiz-adv-x="339" />
<glyph unicode="&#x2007;" horiz-adv-x="339" />
<glyph unicode="&#x2008;" horiz-adv-x="254" />
<glyph unicode="&#x2009;" horiz-adv-x="406" />
<glyph unicode="&#x200a;" horiz-adv-x="113" />
<glyph unicode="&#x2010;" horiz-adv-x="661" d="M176 565l17 99h497l-16 -99h-498z" />
<glyph unicode="&#x2011;" horiz-adv-x="661" d="M176 565l17 99h497l-16 -99h-498z" />
<glyph unicode="&#x2012;" horiz-adv-x="661" d="M176 565l17 99h497l-16 -99h-498z" />
<glyph unicode="&#x2013;" horiz-adv-x="1181" d="M176 565l17 92h1017l-16 -92h-1018z" />
<glyph unicode="&#x2014;" horiz-adv-x="1720" d="M176 565l17 92h1556l-16 -92h-1557z" />
<glyph unicode="&#x2018;" horiz-adv-x="337" d="M276 1171q0 147 168 281l50 -49q-98 -79 -115 -139q31 -1 50.5 -22t19.5 -50q0 -40 -29.5 -69t-67.5 -29q-35 0 -55.5 21.5t-20.5 55.5z" />
<glyph unicode="&#x2019;" horiz-adv-x="337" d="M270 1143q98 79 115 139q-31 1 -50.5 22t-19.5 50q0 40 29.5 69t67.5 29q35 0 55 -22t20 -56q0 -146 -168 -280z" />
<glyph unicode="&#x201a;" horiz-adv-x="401" d="M80 -164q98 79 115 139q-31 1 -50.5 22t-19.5 50q0 40 29 69t67 29q35 0 55.5 -21.5t20.5 -55.5q0 -147 -168 -281z" />
<glyph unicode="&#x201c;" horiz-adv-x="587" d="M276 1171q0 147 168 281l50 -49q-98 -79 -115 -139q31 -1 50.5 -22t19.5 -50q0 -40 -29.5 -69t-67.5 -29q-35 0 -55.5 21.5t-20.5 55.5zM526 1171q0 147 168 281l49 -49q-97 -78 -114 -139q31 -1 50 -22t19 -50q0 -40 -29 -69t-67 -29q-35 0 -55.5 21.5t-20.5 55.5z" />
<glyph unicode="&#x201d;" horiz-adv-x="587" d="M270 1143q98 79 115 139q-31 1 -50.5 22t-19.5 50q0 40 29.5 69t67.5 29q35 0 55 -22t20 -56q0 -146 -168 -280zM520 1143q98 79 115 139q-31 1 -50.5 22t-19.5 50q0 40 29.5 69t67.5 29q35 0 55 -22t20 -56q0 -146 -168 -280z" />
<glyph unicode="&#x201e;" horiz-adv-x="587" d="M51 -164q98 79 115 139q-31 1 -50.5 22t-19.5 50q0 39 29 68.5t68 29.5q35 0 55 -21.5t20 -55.5q0 -147 -168 -281zM301 -164q98 79 115 139q-31 1 -50.5 22t-19.5 50q0 40 29 69t67 29q35 0 55.5 -21.5t20.5 -55.5q0 -147 -168 -281z" />
<glyph unicode="&#x2020;" horiz-adv-x="727" d="M240 975l16 92h233l60 367h102l-59 -367h239l-16 -92h-240l-163 -975h-103l164 975h-233z" />
<glyph unicode="&#x2021;" horiz-adv-x="720" d="M143 410l17 92h233l72 430h-234l15 92h233l70 410h102l-69 -410h239l-14 -92h-240l-71 -430h239l-16 -92h-240l-67 -410h-103l68 410h-234z" />
<glyph unicode="&#x2022;" horiz-adv-x="831" d="M164 584q0 164 123.5 283.5t292.5 119.5q133 0 216 -86.5t83 -214.5q0 -164 -123.5 -283.5t-292.5 -119.5q-134 0 -216.5 86t-82.5 215z" />
<glyph unicode="&#x202f;" horiz-adv-x="406" />
<glyph unicode="&#x2030;" horiz-adv-x="2217" d="M143 0l1336 1434h120l-1335 -1434h-121zM285 1116q0 138 105 241t247 103q118 0 190 -73.5t72 -184.5q0 -138 -107.5 -240t-252.5 -102q-113 0 -183.5 73.5t-70.5 182.5zM383 1128q0 -77 47 -127.5t127 -50.5q102 0 171 71.5t69 170.5q0 79 -46.5 129.5t-127.5 50.5 q-99 0 -169.5 -72.5t-70.5 -171.5zM842 229q0 138 106 241t248 103q117 0 188.5 -74t71.5 -184q0 -139 -106.5 -240.5t-251.5 -101.5q-114 0 -185 73t-71 183zM942 240q0 -77 47 -128t125 -51q103 0 172.5 71.5t69.5 172.5q0 78 -47.5 128t-128.5 50q-99 0 -168.5 -71.5 t-69.5 -171.5zM1559 229q0 138 106 241t248 103q117 0 188.5 -74t71.5 -184q0 -139 -106.5 -240.5t-251.5 -101.5q-114 0 -185 73t-71 183zM1659 240q0 -77 47 -128t125 -51q103 0 172.5 71.5t69.5 172.5q0 78 -47.5 128t-129.5 50q-99 0 -168 -71.5t-69 -171.5z" />
<glyph unicode="&#x2039;" horiz-adv-x="520" d="M176 596l313 373h119l-319 -383l192 -361h-106z" />
<glyph unicode="&#x203a;" horiz-adv-x="520" d="M111 225l319 383l-192 361h106l199 -371l-314 -373h-118z" />
<glyph unicode="&#x2044;" horiz-adv-x="821" d="M-63 -84l1081 1602h108l-1081 -1602h-108z" />
<glyph unicode="&#x205f;" horiz-adv-x="508" />
<glyph unicode="&#x20ac;" horiz-adv-x="1267" d="M150 528l16 95h113q0 96 32 208h-110l14 93h129q100 241 303 388.5t451 147.5q195 0 313 -86l-57 -84q-111 72 -269 72q-204 0 -373 -120.5t-255 -317.5h624l-22 -93h-635q-37 -105 -37 -208h621l-23 -95h-596q13 -128 68 -228.5t159 -163t242 -62.5q180 0 320 86l39 -82 q-60 -42 -158.5 -73.5t-212.5 -31.5q-124 0 -228 45t-174.5 121.5t-113 176.5t-51.5 212h-129z" />
<glyph unicode="&#x2116;" horiz-adv-x="2279" d="M190 0l240 1434h102l668 -1264l211 1264h105l-240 -1434h-105l-665 1266l-211 -1266h-105zM1573 502l16 100h658l-17 -100h-657zM1638 1044q0 168 123.5 292t300.5 124q139 0 221 -88t82 -221q0 -168 -123 -292t-300 -124q-139 0 -221.5 88t-82.5 221zM1739 1055 q0 -98 58.5 -162t160.5 -64q131 0 220 92.5t89 219.5q0 97 -58.5 161t-160.5 64q-132 0 -220.5 -92t-88.5 -219z" />
<glyph unicode="&#x2122;" horiz-adv-x="1443" d="M283 1350l14 84h479l-14 -84h-197l-108 -652h-88l108 652h-194zM737 698l123 736h94l197 -560l375 560h100l-123 -736h-84l97 582l-336 -498h-84l-178 498l-97 -582h-84z" />
<glyph unicode="&#x2212;" horiz-adv-x="1126" d="M184 592l17 92h954l-16 -92h-955z" />
<glyph unicode="&#x25fc;" horiz-adv-x="1064" d="M0 0v1065h1065v-1065h-1065z" />
<glyph unicode="&#xf6c3;" horiz-adv-x="407" d="M47 -381q97 80 113 139q-29 3 -46.5 23.5t-17.5 48.5q0 40 29 69t68 29q35 0 55 -22t20 -56q0 -143 -168 -280z" />
<glyph horiz-adv-x="661" d="M195 670l16 98h498l-17 -98h-497z" />
<glyph horiz-adv-x="1181" d="M195 676l16 92h1018l-17 -92h-1017z" />
<glyph horiz-adv-x="1720" d="M195 676l16 92h1556l-16 -92h-1556z" />
<glyph horiz-adv-x="815" d="M199 731l313 373h119l-320 -383l193 -361h-107zM494 731l313 373h119l-320 -383l193 -361h-107z" />
<glyph horiz-adv-x="815" d="M131 360l320 383l-193 361h107l198 -371l-313 -373h-119zM426 360l319 383l-192 361h106l199 -371l-313 -373h-119z" />
<glyph horiz-adv-x="520" d="M199 731l313 373h119l-320 -383l193 -361h-107z" />
<glyph horiz-adv-x="520" d="M131 360l320 383l-193 361h107l198 -371l-313 -373h-119z" />
<glyph horiz-adv-x="581" d="M168 51l217 1290q22 136 95.5 200.5t185.5 64.5h32l-14 -90h-22q-85 0 -123.5 -48t-53.5 -137l-213 -1270q-8 -39 -6.5 -72.5t11.5 -58.5t37.5 -39t72.5 -14h23l-15 -90h-33q-112 0 -164 64t-30 200z" />
<glyph horiz-adv-x="581" d="M117 -213l14 90h23q85 0 123.5 47.5t52.5 136.5l213 1270q8 53 5.5 94t-32 66t-88.5 25h-22l16 90h33q112 0 164 -64.5t28 -200.5l-215 -1290q-46 -264 -282 -264h-33z" />
<glyph horiz-adv-x="598" d="M141 -213l305 1819h271l-17 -90h-168l-274 -1639h168l-14 -90h-271z" />
<glyph horiz-adv-x="598" d="M117 -213l14 90h168l274 1639h-167l16 90h270l-305 -1819h-270z" />
<glyph horiz-adv-x="653" d="M190 651l15 90q149 0 188 228l62 372q22 136 96 200.5t186 64.5h33l-14 -90h-23q-85 0 -123.5 -48t-52.5 -137l-61 -366q-9 -56 -27 -102t-36.5 -74t-41 -49t-37 -30t-28.5 -14q12 -5 23.5 -14t27.5 -29.5t24 -49t12.5 -73.5t-7.5 -102l-62 -367q-15 -89 7.5 -136.5 t107.5 -47.5h22l-16 -90h-33q-112 0 -163 64t-29 200l61 373q39 227 -111 227z" />
<glyph horiz-adv-x="485" d="M141 -307l328 1954h100l-327 -1954h-101z" />
<glyph horiz-adv-x="653" d="M117 -213l14 90h23q85 0 123 47t53 137l61 367q12 69 35 122t50.5 82t47 43t37.5 21q-12 5 -23.5 14t-27.5 30t-24 49.5t-12.5 73t7.5 102.5l62 366q8 53 5.5 94t-32 66t-88.5 25h-22l16 90h33q112 0 163 -64.5t29 -200.5l-63 -372q-39 -228 112 -228l-14 -90 q-149 0 -188 -227l-62 -373q-44 -264 -282 -264h-33z" />
<glyph horiz-adv-x="845" d="M31 -166l917 1757h105l-918 -1757h-104z" />
<glyph horiz-adv-x="845" d="M328 1591h100l328 -1757h-101z" />
<glyph horiz-adv-x="495" d="M197 0l192 1096h88l-176 -1096h-104zM393 1362q0 39 31 68.5t70 29.5q32 0 52.5 -21.5t20.5 -52.5q0 -39 -31 -68.5t-71 -29.5q-31 0 -51.5 21.5t-20.5 52.5z" />
<glyph horiz-adv-x="942" d="M143 289q0 81 25 151t65.5 120.5t90 94.5t101.5 83.5t96 77.5t76.5 85.5t41.5 99.5l16 95h103l-17 -95q-10 -60 -42.5 -114t-76.5 -95.5t-94 -82t-98.5 -82.5t-88 -87.5t-63.5 -107t-24 -131.5q0 -104 64.5 -167.5t179.5 -63.5q51 0 95 12.5t74.5 30.5t59 46t44.5 50 t34 51l84 -39q-23 -45 -58.5 -86t-85 -79t-118 -60.5t-144.5 -22.5q-160 0 -250 92t-90 224zM662 1362q0 39 30.5 68.5t69.5 29.5q32 0 53 -21.5t21 -52.5q0 -39 -32 -68.5t-71 -29.5q-30 0 -50.5 21.5t-20.5 52.5z" />
<glyph horiz-adv-x="440" d="M254 715q0 39 30.5 68.5t69.5 29.5q32 0 53 -21.5t21 -52.5q0 -39 -31.5 -68.5t-70.5 -29.5q-32 0 -52 21.5t-20 52.5z" />
<glyph horiz-adv-x="831" d="M180 674q0 107 57 200.5t153 148t206 54.5q134 0 216.5 -86t82.5 -215q0 -164 -123.5 -283.5t-292.5 -119.5q-134 0 -216.5 86t-82.5 215z" />
<glyph horiz-adv-x="1114" d="M204.5 406.5q-1.5 137.5 28.5 310.5q23 147 52 256t74 204.5t103.5 155.5t141.5 93.5t189 33.5t179 -33.5t114.5 -94t57.5 -155t10.5 -205t-28.5 -255.5q-23 -146 -51.5 -255t-72.5 -204.5t-103 -155t-141.5 -93.5t-188.5 -34q-132 0 -214 51t-115.5 147t-35 233.5z M308.5 436.5q-3.5 -72.5 3 -121.5t24 -98t48.5 -78t80 -47t116 -18q52 0 97 11t80 29.5t65.5 49t53 63t42.5 79t34 89t27 101t22 107t19 114.5q14 86 21.5 147.5t11.5 133.5t-2.5 121.5t-24 98.5t-48.5 78.5t-80 47.5t-116 18q-66 0 -121 -18.5t-95 -47.5t-73 -79 t-54.5 -98.5t-41 -121.5t-31.5 -133t-26 -147q-13 -86 -20.5 -147t-11 -133.5z" />
<glyph horiz-adv-x="1114" d="M238 0l16 96h307l205 1229l-332 -139l-28 86l397 162h86l-223 -1338h268l-16 -96h-680z" />
<glyph horiz-adv-x="1114" d="M137 0l6 41q13 84 69 166t135.5 151t172.5 138t183.5 139.5t164.5 142.5t120 159t46 179q0 108 -70 177t-194 69q-127 0 -213 -72.5t-125 -175.5l-94 23q12 36 34 75.5t61.5 85t88 80.5t118.5 58.5t148 23.5q160 0 257.5 -95t97.5 -235q0 -99 -45.5 -195.5t-119.5 -175 t-163.5 -152.5t-181.5 -140.5t-169.5 -127.5t-131 -124t-62.5 -119h727l-16 -96h-844z" />
<glyph horiz-adv-x="1114" d="M166 268l90 37q17 -105 90 -169t219 -64q159 0 276 112.5t117 280.5q0 127 -76 195.5t-223 68.5h-124l14 88l502 520h-662l17 97h780l-17 -105l-497 -504h37q148 0 253 -96t105 -254q0 -138 -69.5 -253t-188 -181t-258.5 -66q-76 0 -139 17.5t-105 46t-72.5 67.5 t-46.5 79t-22 83z" />
<glyph horiz-adv-x="1114" d="M139 377l15 86l837 971h99l-160 -959h186l-16 -98h-187l-63 -377h-105l64 377h-670zM281 475h544l133 797z" />
<glyph horiz-adv-x="1114" d="M170 268l90 37q17 -104 92 -168.5t219 -64.5q115 0 206.5 61t139.5 158.5t48 210.5q0 134 -76.5 217.5t-210.5 83.5q-88 0 -152.5 -26.5t-138.5 -76.5l-88 17l150 717h700l-16 -99h-605l-110 -520q126 82 274 82q175 0 278 -108.5t103 -272.5q0 -145 -66 -268.5 t-185 -198t-265 -74.5q-91 0 -164 26t-118 69.5t-71 93.5t-34 104z" />
<glyph horiz-adv-x="1114" d="M195 424q0 96 8.5 190.5t30.5 199t55 196t86 175.5t120 144t161 95.5t204 35.5q170 0 295 -104l-63 -76q-101 84 -246 84q-419 0 -524 -643q64 81 167.5 139t227.5 58q176 0 270 -106t94 -271q0 -253 -141.5 -409.5t-376.5 -156.5q-80 0 -143.5 24t-105 65t-69 98.5 t-39 122t-11.5 139.5zM297 412q0 -338 283 -338q171 0 283 123t112 331q0 130 -69 210.5t-201 80.5q-121 0 -223.5 -62.5t-172.5 -170.5q-12 -86 -12 -174z" />
<glyph horiz-adv-x="1114" d="M342 0l762 1335h-754l17 99h864l-14 -86l-766 -1348h-109z" />
<glyph horiz-adv-x="1114" d="M162 330q0 79 25 149t62 116.5t85 84t87.5 57.5t76.5 31q-61 27 -113.5 100t-52.5 176q0 121 63.5 217t168.5 147.5t229 51.5q153 0 252.5 -86.5t99.5 -228.5q0 -61 -20 -118t-50 -97.5t-68.5 -74.5t-72 -54.5t-64.5 -32.5q32 -11 65.5 -33.5t67 -59.5t55 -95.5 t21.5 -128.5q0 -134 -69.5 -244t-189 -172t-263.5 -62q-177 0 -286 99t-109 258zM272 346q0 -117 76.5 -196.5t218.5 -79.5q90 0 167 31.5t128.5 84t80 119t28.5 137.5q0 128 -82 200.5t-213 72.5q-108 0 -199 -43.5t-148 -129t-57 -196.5zM440 1055q0 -100 70 -170t182 -70 q139 0 240.5 95t101.5 220q0 100 -65.5 166t-186.5 66q-77 0 -142.5 -25.5t-108.5 -68.5t-67 -98t-24 -115z" />
<glyph horiz-adv-x="1114" d="M197 80l63 76q101 -84 246 -84q419 0 524 643q-64 -81 -167.5 -139t-227.5 -58q-174 0 -269.5 107t-95.5 270q0 253 141.5 409t376.5 156q80 0 143.5 -24t105 -64.5t69 -98.5t39.5 -122.5t12 -138.5q0 -96 -8.5 -191t-30.5 -199t-55 -195.5t-86 -175.5t-120 -144.5 t-161 -96t-204 -35.5q-169 0 -295 105zM377 907q0 -130 69 -210.5t201 -80.5q121 0 223 63t172 171q13 93 13 174q0 338 -283 338q-171 0 -283 -123.5t-112 -331.5z" />
</font>
</defs>
</svg>
