<?xml version="1.0" standalone="no"?>
<!DOCTYPE svg PUBLIC "-//W3C//DTD SVG 1.1//EN" "http://www.w3.org/Graphics/SVG/1.1/DTD/svg11.dtd" >
<svg xmlns="http://www.w3.org/2000/svg">
<metadata></metadata>
<defs>
<font id="geomanistregular" horiz-adv-x="409" >
<font-face units-per-em="2048" ascent="1536" descent="-512" />
<missing-glyph horiz-adv-x="538" />
<glyph unicode="&#x2e;&#x2e;&#x2e;" horiz-adv-x="1286" d="M115 59q0 35 25.5 60.5t60.5 25.5t60.5 -25.5t25.5 -60.5t-25.5 -60.5t-60.5 -25.5t-60.5 25.5t-25.5 60.5zM557 59q0 35 25.5 60.5t60.5 25.5t60.5 -25.5t25.5 -60.5t-25.5 -60.5t-60.5 -25.5t-60.5 25.5t-25.5 60.5zM999 59q0 35 25.5 60.5t60.5 25.5t60.5 -25.5 t25.5 -60.5t-25.5 -60.5t-60.5 -25.5t-60.5 25.5t-25.5 60.5z" />
<glyph unicode=" "  horiz-adv-x="538" />
<glyph unicode="&#x09;" horiz-adv-x="538" />
<glyph unicode="&#xa0;" horiz-adv-x="538" />
<glyph unicode="!" horiz-adv-x="495" d="M164 59q0 35 25.5 60.5t60.5 25.5t60.5 -25.5t25.5 -60.5t-25.5 -60.5t-60.5 -25.5t-60.5 25.5t-25.5 60.5zM197 1434h104l-8 -1096h-88z" />
<glyph unicode="&#x22;" horiz-adv-x="536" d="M104 1434h101l-12 -365h-76zM332 1434h100l-12 -365h-76z" />
<glyph unicode="#" horiz-adv-x="1316" d="M68 410l18 92h256l90 430h-254l17 92h258l84 410h100l-82 -410h330l84 410h100l-82 -410h262l-16 -92h-266l-88 -430h262l-17 -92h-266l-86 -410h-100l84 410h-332l-86 -410h-100l86 410h-256zM444 502h332l90 430h-331z" />
<glyph unicode="$" horiz-adv-x="1021" d="M82 281l90 32q84 -243 348 -243q132 0 217.5 76.5t85.5 205.5q0 84 -38.5 148t-100 104.5t-135.5 75.5t-148 71.5t-135.5 81t-100 116t-38.5 165.5q0 135 90 231t244 111v113h100v-111q73 -7 134.5 -35t101.5 -67t65 -76t39 -74l-88 -32q-15 33 -37.5 63t-58 61 t-88.5 49.5t-115 18.5q-134 0 -208.5 -72.5t-74.5 -181.5q0 -59 24 -108t64.5 -83.5t93 -65t110 -58t115.5 -56t110.5 -64.5t93 -79t64.5 -104.5t24 -135.5q0 -154 -101 -262t-268 -121v-151h-100v153q-81 7 -147 36t-110.5 73t-74 92t-47.5 103z" />
<glyph unicode="%" horiz-adv-x="1503" d="M94 1159q0 126 85.5 213.5t213.5 87.5q132 0 219.5 -87t87.5 -214q0 -124 -88 -211.5t-217 -87.5q-128 0 -214.5 87t-86.5 212zM147 0l1096 1434h113l-1096 -1434h-113zM193 1159q0 -89 57 -149t147 -60q91 0 147 60t56 149q0 91 -57.5 152t-149.5 61q-88 0 -144 -61 t-56 -152zM801 272q0 126 85.5 213.5t213.5 87.5q132 0 219.5 -87.5t87.5 -213.5q0 -125 -87.5 -212t-217.5 -87q-128 0 -214.5 86.5t-86.5 212.5zM899 272q0 -90 57.5 -150.5t147.5 -60.5q91 0 147 60t56 151t-57.5 151t-149.5 60q-88 0 -144.5 -60.5t-56.5 -150.5z" />
<glyph unicode="&#x26;" horiz-adv-x="1257" d="M86 391q0 126 71.5 222t186.5 159q-53 51 -86.5 92.5t-60.5 106.5t-27 137q0 67 24.5 129t70 112t119.5 80.5t165 30.5q177 0 281 -96t104 -254q0 -130 -87 -228.5t-263 -195.5l403 -387q51 89 67.5 171t16.5 214h100q0 -149 -20.5 -251.5t-83.5 -205.5l152 -149l-78 -78 l-142 147q-74 -79 -186 -126.5t-246 -47.5q-218 0 -349.5 121t-131.5 297zM188 391q0 -147 108 -234t271 -87q108 0 204 41t159 106l-510 485q-100 -39 -166 -118.5t-66 -192.5zM272 1106q0 -43 14 -84.5t33.5 -73.5t55.5 -71t63 -63.5t72 -63.5q144 70 232.5 160t88.5 198 q0 115 -77.5 187.5t-204.5 72.5q-122 0 -199.5 -73.5t-77.5 -188.5z" />
<glyph unicode="'" horiz-adv-x="309" d="M104 1434h101l-12 -365h-76z" />
<glyph unicode="(" horiz-adv-x="581" d="M160 -29v1291q0 136 62.5 200t174.5 64h33v-90h-22q-85 0 -115.5 -48t-30.5 -137v-1269q0 -89 30.5 -137t115.5 -48h22v-90h-33q-112 0 -174.5 64t-62.5 200z" />
<glyph unicode=")" horiz-adv-x="581" d="M152 -203h22q85 0 115 48t30 137v1269q0 89 -30 137t-115 48h-22v90h32q112 0 175 -64t63 -200v-1291q0 -136 -63 -200t-175 -64h-32v90z" />
<glyph unicode="*" horiz-adv-x="870" d="M117 1227l47 78l223 -136v265h94v-267l226 138l45 -74l-232 -137l232 -136l-45 -75l-226 133v-260h-94v262l-223 -135l-45 73l229 136z" />
<glyph unicode="+" horiz-adv-x="1126" d="M86 592v92h428v459h100v-459h426v-92h-426v-459h-100v459h-428z" />
<glyph unicode="," horiz-adv-x="401" d="M109 -164q74 69 84 139q-33 3 -55.5 27t-22.5 57q0 36 23.5 61t58.5 25q40 0 65 -26t25 -66q0 -84 -32.5 -146t-90.5 -120z" />
<glyph unicode="-" horiz-adv-x="661" d="M82 565v99h498v-99h-498z" />
<glyph unicode="." horiz-adv-x="403" d="M115 59q0 35 25.5 60.5t60.5 25.5t60.5 -25.5t25.5 -60.5t-25.5 -60.5t-60.5 -25.5t-60.5 25.5t-25.5 60.5z" />
<glyph unicode="/" horiz-adv-x="845" d="M61 -221l623 1757h100l-622 -1757h-101z" />
<glyph unicode="0" horiz-adv-x="1114" d="M111 717q0 121 8.5 216.5t27.5 181.5t52.5 147.5t82.5 107t118 68t157 22.5q106 0 184 -33.5t128 -93.5t80.5 -155t42.5 -205t12 -256q0 -145 -12 -255t-42.5 -204.5t-80.5 -155t-128 -94t-184 -33.5t-184 33.5t-128 94t-80 155t-42 204.5t-12 255zM217 717q0 -66 1 -115 t5 -107.5t11.5 -101t20 -89t30 -79t43.5 -63t58.5 -48.5t75.5 -29t95 -11t95 11t75.5 29.5t58.5 49t43.5 63t30 79t20 89t11.5 100.5t5 107t1 115t-1 115t-5 107.5t-11.5 101.5t-20 89.5t-30 79t-43.5 63t-58.5 49t-75.5 29.5t-95 11t-95 -11t-75.5 -29.5t-58.5 -49.5 t-43.5 -63.5t-30 -79t-20 -89t-11.5 -101t-5 -107.5t-1 -115z" />
<glyph unicode="1" horiz-adv-x="606" d="M100 1335l238 99h84v-1434h-105v1325l-176 -76z" />
<glyph unicode="2" horiz-adv-x="1013" d="M92 0v41q0 80 39 158.5t101 145t137 133.5t150.5 135t137.5 136.5t101 150.5t39 167q0 129 -79.5 212t-219.5 83q-234 0 -301 -248l-93 23q6 36 21.5 75.5t47.5 85t75 80.5t108.5 58.5t143.5 23.5q98 0 176 -31.5t127.5 -85.5t75.5 -124.5t26 -151.5q0 -91 -38.5 -180 t-100 -162t-135.5 -143t-148 -133t-135.5 -121.5t-100 -118t-38.5 -113.5h719v-96h-836z" />
<glyph unicode="3" horiz-adv-x="1060" d="M84 268l88 37q34 -105 117.5 -169t226.5 -64q141 0 236.5 94t95.5 237q0 157 -89 241.5t-259 84.5h-125v88l416 520h-662v97h780v-105l-413 -504h36q81 0 155 -26t134.5 -76t96.5 -133t36 -187q0 -181 -125.5 -304.5t-310.5 -123.5q-79 0 -145.5 17.5t-112.5 46 t-82.5 67.5t-58 78.5t-35.5 83.5z" />
<glyph unicode="4" horiz-adv-x="1118" d="M68 377v86l686 971h98v-959h197v-98h-197v-377h-104v377h-680zM193 475h555v797z" />
<glyph unicode="5" horiz-adv-x="1052" d="M86 268l88 37q34 -105 117.5 -169t226.5 -64q150 0 237 104.5t87 261.5q0 160 -92 262.5t-246 102.5q-61 0 -114 -16.5t-82 -34.5t-72 -52l-93 17l31 717h692v-99h-596l-24 -520q110 82 258 82q203 0 323.5 -128.5t120.5 -330.5q0 -198 -117 -330.5t-311 -132.5 q-94 0 -171.5 26t-128.5 70t-84 93t-50 104z" />
<glyph unicode="6" horiz-adv-x="1103" d="M111 592q0 425 121 646.5t382 221.5q169 0 316 -106l-56 -74q-118 84 -260 84q-90 0 -160 -37.5t-114 -98.5t-73 -146t-40.5 -173.5t-11.5 -187.5q52 84 139.5 140.5t210.5 56.5q103 0 185.5 -36.5t135 -99.5t80 -145t27.5 -176q0 -229 -116.5 -357.5t-319.5 -128.5 q-102 0 -181 34t-128.5 90.5t-80.5 138t-43.5 167.5t-12.5 187zM215 580q0 -88 7 -156t29.5 -137t59.5 -113t101 -72t151 -28q146 0 235 100.5t89 286.5q0 156 -84.5 257t-239.5 101q-119 0 -207.5 -64.5t-140.5 -174.5z" />
<glyph unicode="7" horiz-adv-x="962" d="M63 1335v99h848v-86l-524 -1348h-108l522 1335h-738z" />
<glyph unicode="8" horiz-adv-x="1110" d="M102 391q0 68 19.5 127.5t48.5 100t66.5 72.5t70 49.5t62.5 27.5q-33 14 -67.5 40t-69 65.5t-56.5 96.5t-22 120q0 167 115 268.5t286 101.5t286 -101.5t115 -268.5q0 -63 -22 -120t-56.5 -96.5t-69 -65.5t-67.5 -40q30 -10 62.5 -27.5t70 -49.5t66.5 -72.5t48.5 -100 t19.5 -127.5q0 -184 -128 -301t-325 -117t-325 117t-128 301zM211 391q0 -132 92 -226.5t252 -94.5t252 94.5t92 226.5q0 150 -98 237t-246 87t-246 -87t-98 -237zM262 1090q0 -111 84 -193t209 -82t209 82t84 193q0 116 -78 194t-215 78t-215 -78t-78 -194z" />
<glyph unicode="9" horiz-adv-x="1103" d="M111 975q0 229 116 357t320 128q102 0 181 -34t128.5 -90.5t80.5 -137.5t43.5 -167t12.5 -187q0 -425 -121.5 -647t-382.5 -222q-167 0 -315 107l55 74q118 -84 260 -84q90 0 160 37.5t114.5 98.5t73.5 146t40.5 173.5t11.5 187.5q-52 -84 -139.5 -140.5t-210.5 -56.5 q-103 0 -185.5 36.5t-135 99.5t-80 145t-27.5 176zM217 975q0 -157 84.5 -258t239.5 -101q119 0 207.5 65t140.5 175q0 88 -7 156t-29.5 137t-59.5 113t-101 72t-151 28q-146 0 -235 -100.5t-89 -286.5z" />
<glyph unicode=":" horiz-adv-x="401" d="M115 59q0 35 25.5 60.5t60.5 25.5t60.5 -25.5t25.5 -60.5t-25.5 -60.5t-60.5 -25.5t-60.5 25.5t-25.5 60.5zM115 887q0 35 25.5 60.5t60.5 25.5t60.5 -25.5t25.5 -60.5t-25.5 -60.5t-60.5 -25.5t-60.5 25.5t-25.5 60.5z" />
<glyph unicode=";" horiz-adv-x="401" d="M109 -164q75 69 84 139q-33 3 -55.5 27t-22.5 57q0 36 23.5 61t58.5 25q40 0 65 -26t25 -66q0 -84 -32.5 -146t-90.5 -120zM115 887q0 35 25.5 60.5t60.5 25.5t60.5 -25.5t25.5 -60.5t-25.5 -60.5t-60.5 -25.5t-60.5 25.5t-25.5 60.5z" />
<glyph unicode="&#x3c;" horiz-adv-x="995" d="M86 592v94l821 377v-107l-700 -315l700 -322v-102z" />
<glyph unicode="=" horiz-adv-x="1126" d="M86 426v92h954v-92h-954zM86 741v93h954v-93h-954z" />
<glyph unicode="&#x3e;" horiz-adv-x="995" d="M88 217v102l700 322l-700 315v107l821 -377v-94z" />
<glyph unicode="?" horiz-adv-x="942" d="M92 1212q16 43 44 83.5t71 79t107.5 62t140.5 23.5q184 0 289.5 -106t105.5 -269q0 -71 -21 -133t-54.5 -107.5t-73.5 -86.5t-80.5 -78t-74 -73.5t-54.5 -81.5t-21 -93v-94h-102v94q0 56 20.5 107.5t53 91.5t72 78.5t79 78.5t72 82.5t53 97.5t20.5 117q0 124 -76 201.5 t-206 77.5q-195 0 -283 -190zM338 59q0 35 25.5 60.5t60.5 25.5t60.5 -25.5t25.5 -60.5t-25.5 -60.5t-60.5 -25.5t-60.5 25.5t-25.5 60.5z" />
<glyph unicode="@" horiz-adv-x="1810" d="M90 541q0 174 61 329t168 268.5t262 179.5t334 66q183 0 336.5 -63t254.5 -169.5t156.5 -246t55.5 -293.5q0 -242 -83 -363.5t-226 -121.5q-90 0 -145 46.5t-70 117.5q-11 -20 -32.5 -44.5t-57.5 -53t-90 -47.5t-115 -19q-163 0 -276 111.5t-113 291.5t113 292t276 112 q57 0 107.5 -15t85.5 -39.5t55 -43t35 -37.5v123h98v-541q0 -162 135 -162q88 0 143.5 97t55.5 296q0 141 -49.5 265t-138.5 216t-222 145.5t-291 53.5q-209 0 -375 -103t-254.5 -273.5t-88.5 -374.5q0 -156 52 -293.5t142.5 -236.5t220 -156.5t277.5 -57.5q217 0 381 90 l47 -73q-63 -43 -180 -77t-246 -34q-159 0 -305 63.5t-255 173.5t-174 267t-65 334zM616 530q0 -140 80.5 -225.5t204.5 -85.5q122 0 203.5 82.5t81.5 235.5q0 137 -78.5 221t-208.5 84q-122 0 -202.5 -84.5t-80.5 -227.5z" />
<glyph unicode="A" horiz-adv-x="1261" d="M31 0l549 1434h102l549 -1434h-107l-194 514h-598l-195 -514h-106zM369 610h524l-262 705z" />
<glyph unicode="B" horiz-adv-x="1085" d="M174 0v1434h375q174 0 284.5 -102.5t110.5 -264.5q0 -107 -54.5 -190.5t-137.5 -124.5q105 -37 173 -131t68 -220q0 -169 -117 -285t-294 -116h-408zM279 94h270q150 0 243 81.5t93 225.5q0 143 -95.5 221t-244.5 78h-266v-606zM279 795h282q119 0 197 78t78 194 q0 118 -77 194t-198 76h-282v-542z" />
<glyph unicode="C" horiz-adv-x="1361" d="M88 717q0 208 96 379t259.5 267.5t357.5 96.5q80 0 155 -16t132 -42t96 -50t69 -49l-36 -95q-24 21 -57 43t-86.5 49.5t-125.5 44.5t-147 17q-124 0 -235 -49t-192.5 -134t-129 -205.5t-47.5 -256.5q0 -183 78 -330.5t218 -231t314 -83.5q249 0 440 172l35 -92 q-19 -20 -55.5 -46t-96.5 -58t-146 -53.5t-177 -21.5q-201 0 -366 97t-259 267.5t-94 379.5z" />
<glyph unicode="D" horiz-adv-x="1286" d="M174 0v1434h254q371 0 571.5 -189t200.5 -528q0 -356 -201.5 -536.5t-570.5 -180.5h-254zM279 96h192q291 0 457 160t166 461q0 289 -168 454.5t-455 165.5h-192v-1241z" />
<glyph unicode="E" horiz-adv-x="964" d="M174 0v1434h653v-97h-548v-557h481v-96h-481v-588h571v-96h-676z" />
<glyph unicode="F" horiz-adv-x="954" d="M174 0v1434h653v-97h-548v-567h481v-96h-481v-674h-105z" />
<glyph unicode="G" horiz-adv-x="1497" d="M88 713q0 157 55 295.5t149.5 237.5t228 156.5t284.5 57.5q95 0 180.5 -19.5t149 -51.5t105.5 -61.5t75 -61.5l-68 -72q-36 33 -70.5 57.5t-88.5 52.5t-126.5 43t-156.5 15q-174 0 -313 -85t-216 -233t-77 -331q0 -184 77.5 -330.5t215.5 -228.5t311 -82q91 0 171.5 18 t137 48t91 54.5t59.5 49.5v358h-344v96h446v-487q-214 -236 -561 -236q-151 0 -283.5 56t-227.5 153.5t-149.5 235.5t-54.5 295z" />
<glyph unicode="H" horiz-adv-x="1402" d="M174 0v1434h105v-652h845v652h105v-1434h-105v684h-845v-684h-105z" />
<glyph unicode="I" horiz-adv-x="452" d="M174 0v1434h105v-1434h-105z" />
<glyph unicode="J" horiz-adv-x="677" d="M49 8l10 94q66 -20 144 -20q196 0 196 233v1119h105v-1125q0 -153 -74.5 -237t-218.5 -84q-42 0 -82.5 5t-60.5 10z" />
<glyph unicode="K" horiz-adv-x="1107" d="M174 0v1434h105v-672l626 672h133l-639 -684l668 -750h-135l-653 729v-729h-105z" />
<glyph unicode="L" horiz-adv-x="913" d="M174 0v1434h105v-1338h571v-96h-676z" />
<glyph unicode="M" horiz-adv-x="1744" d="M174 0v1434h131l567 -1184l568 1184h131v-1434h-101v1280l-542 -1143h-111l-543 1143v-1280h-100z" />
<glyph unicode="N" horiz-adv-x="1433" d="M174 0v1434h102l879 -1254v1254h105v-1434h-105l-876 1255v-1255h-105z" />
<glyph unicode="O" horiz-adv-x="1622" d="M86 717q0 156 57 294.5t154 236.5t231 155t283 57q200 0 366.5 -97.5t262.5 -268t96 -377.5q0 -155 -57 -293.5t-154 -237t-231.5 -156t-284.5 -57.5q-199 0 -364.5 96t-262 267t-96.5 381zM195 717q0 -183 81 -331t222 -231t313 -83q128 0 242 48.5t196 133.5t130 205.5 t48 257.5q0 181 -81.5 329.5t-222.5 232t-312 83.5q-129 0 -243 -49.5t-196 -134.5t-129.5 -205t-47.5 -256z" />
<glyph unicode="P" horiz-adv-x="1005" d="M174 0v1434h361q181 0 295 -117t114 -279q0 -173 -117 -288t-292 -115h-256v-635h-105zM279 729h253q130 0 217 88t87 219q0 125 -88 213t-216 88h-253v-608z" />
<glyph unicode="Q" horiz-adv-x="1624" d="M86 717q0 156 57 294.5t154 236.5t231 155t283 57q200 0 366.5 -97.5t262.5 -268t96 -377.5q0 -151 -52.5 -283.5t-146.5 -232.5l158 -158l-72 -70l-159 158q-194 -158 -455 -158q-199 0 -364.5 96t-262 267t-96.5 381zM195 717q0 -183 81 -331t222 -231t313 -83 q219 0 381 131l-164 166l70 71l166 -170q163 184 163 447q0 181 -81.5 329.5t-222.5 232t-312 83.5q-129 0 -243 -49.5t-196 -134.5t-129.5 -205t-47.5 -256z" />
<glyph unicode="R" horiz-adv-x="1081" d="M174 0v1434h330q102 0 184.5 -31.5t135 -85.5t80.5 -124t28 -149q0 -131 -72.5 -229.5t-193.5 -138.5l364 -676h-117l-346 655h-288v-655h-105zM279 750h229q145 0 229 79t84 215q0 131 -84.5 212t-234.5 81h-223v-587z" />
<glyph unicode="S" horiz-adv-x="1021" d="M82 281l90 32q84 -243 348 -243q132 0 217.5 76.5t85.5 205.5q0 84 -38.5 148t-100 104.5t-135.5 75.5t-148 71.5t-135.5 81t-100 116t-38.5 165.5q0 147 105 246.5t282 99.5q85 0 155.5 -26t116 -67.5t73 -81t42.5 -79.5l-88 -32q-15 33 -37.5 63t-58 61t-88.5 49.5 t-115 18.5q-134 0 -208.5 -72.5t-74.5 -181.5q0 -59 24 -108t64.5 -83.5t93 -65t110 -58t115.5 -56t110.5 -64.5t93 -79t64.5 -104.5t24 -135.5q0 -164 -113 -274.5t-299 -110.5q-76 0 -141.5 18t-112 47.5t-83.5 71t-60 83t-39 88.5z" />
<glyph unicode="T" horiz-adv-x="1046" d="M45 1337v97h928v-97h-412v-1337h-104v1337h-412z" />
<glyph unicode="U" horiz-adv-x="1359" d="M164 504v930h104v-928q0 -203 106 -318.5t306 -115.5t306 115.5t106 318.5v928h104v-930q0 -245 -136 -388t-380 -143t-380 143t-136 388z" />
<glyph unicode="V" horiz-adv-x="1261" d="M23 1434h114l494 -1309l493 1309h115l-553 -1434h-111z" />
<glyph unicode="W" horiz-adv-x="1896" d="M27 1434h110l369 -1293l385 1293h115l385 -1293l368 1293h111l-420 -1434h-115l-387 1286l-387 -1286h-115z" />
<glyph unicode="X" horiz-adv-x="1200" d="M33 0l499 748l-454 686h127l395 -607l397 607h123l-454 -684l501 -750h-120l-451 670l-442 -670h-121z" />
<glyph unicode="Y" horiz-adv-x="1038" d="M23 1434h120l377 -650l381 650h117l-447 -752v-682h-104v682z" />
<glyph unicode="Z" horiz-adv-x="1208" d="M76 0v88l913 1249h-885v97h1014v-91l-913 -1247h917v-96h-1046z" />
<glyph unicode="[" horiz-adv-x="598" d="M176 -293v1819h270v-90h-167v-1639h167v-90h-270z" />
<glyph unicode="\" horiz-adv-x="845" d="M61 1536h101l622 -1757h-100z" />
<glyph unicode="]" horiz-adv-x="598" d="M152 -203h167v1639h-167v90h270v-1819h-270v90z" />
<glyph unicode="^" horiz-adv-x="1036" d="M98 651l373 783h94l373 -783h-109l-311 674l-311 -674h-109z" />
<glyph unicode="_" horiz-adv-x="1234" d="M78 -59h1079v-93h-1079v93z" />
<glyph unicode="`" horiz-adv-x="1007" d="M371 1485h118l150 -289h-94z" />
<glyph unicode="a" horiz-adv-x="1028" d="M80 326q0 151 115 249.5t292 98.5q100 0 183 -35t123 -80v162q0 131 -79 202.5t-212 71.5q-167 0 -328 -98l-43 80q174 113 377 113q192 0 289.5 -101.5t97.5 -273.5v-715h-84l-18 100q-110 -127 -306 -127q-179 0 -293 101.5t-114 251.5zM184 326q0 -109 85.5 -183.5 t224.5 -74.5q134 0 219.5 73.5t85.5 184.5q0 114 -84 184t-223 70q-138 0 -223 -72.5t-85 -181.5z" />
<glyph unicode="b" horiz-adv-x="1245" d="M154 0v1481h102v-621q16 31 45.5 65t78.5 74t123 65.5t159 25.5q224 0 365.5 -157.5t141.5 -404.5q0 -243 -145.5 -399t-372.5 -156q-72 0 -137 20.5t-105.5 45.5t-77 62t-49.5 56t-26 40v-197h-102zM252 528q0 -193 111 -325.5t292 -132.5q174 0 291 126.5t117 331.5 q0 203 -115 334t-289 131q-83 0 -157 -31.5t-129.5 -89.5t-88 -147t-32.5 -197z" />
<glyph unicode="c" horiz-adv-x="1073" d="M78 532q0 115 41 218t111 178t169 118.5t211 43.5q74 0 142 -17t116.5 -44.5t80 -52t52.5 -48.5l-40 -90q-19 21 -46 43.5t-71 50t-105.5 44.5t-128.5 17q-182 0 -303 -132.5t-121 -328.5q0 -125 56 -231.5t154 -168.5t216 -62q206 0 355 163l37 -90q-16 -20 -46 -45 t-79 -55t-120.5 -50t-148.5 -20q-151 0 -273.5 74.5t-190.5 202.5t-68 282z" />
<glyph unicode="d" horiz-adv-x="1245" d="M76 528q0 246 142 404t366 158q69 0 131.5 -18t105.5 -43.5t79.5 -59t56.5 -59.5t32 -50v621h103v-1481h-103v197q-13 -21 -26 -40t-49.5 -56t-77 -62t-105.5 -45.5t-137 -20.5q-227 0 -372.5 156t-145.5 399zM182 528q0 -205 117 -331.5t291 -126.5q181 0 292 132.5 t111 325.5q0 108 -32.5 197t-88 147t-129.5 89.5t-157 31.5q-174 0 -289 -131t-115 -334z" />
<glyph unicode="e" horiz-adv-x="1163" d="M78 528q0 127 42 234t113 178t163.5 110.5t193.5 39.5q225 0 362.5 -150.5t137.5 -382.5v-43h-906q0 -208 120 -327t314 -119q238 0 367 182l68 -47q-39 -62 -92.5 -110.5t-144 -84t-198.5 -35.5q-237 0 -388.5 154t-151.5 401zM190 604h793q-9 190 -121.5 290.5 t-273.5 100.5q-74 0 -141.5 -25t-122.5 -72.5t-91 -123.5t-43 -170z" />
<glyph unicode="f" horiz-adv-x="569" d="M57 971v92h123v63q0 95 25 165t68.5 108.5t95.5 56t114 17.5l56 -5v-92q-27 4 -52 4q-204 0 -204 -252v-65h247v-92h-247v-971h-103v971h-123z" />
<glyph unicode="g" horiz-adv-x="1234" d="M76 528q0 246 142 404t366 158q69 0 131.5 -18t105.5 -43.5t79.5 -59t56.5 -59.5t32 -50v203h103v-909q0 -545 -517 -545q-96 0 -198.5 31.5t-175.5 78.5l43 82q52 -34 139.5 -65t189.5 -31q89 0 162 21t131 64.5t90.5 117.5t32.5 174v115q-13 -21 -26 -40t-49.5 -56 t-77 -62t-105.5 -45.5t-137 -20.5q-227 0 -372.5 156t-145.5 399zM182 528q0 -205 117 -331.5t291 -126.5q181 0 292 132.5t111 325.5q0 108 -32.5 197t-88 147t-129.5 89.5t-157 31.5q-174 0 -289 -131t-115 -334z" />
<glyph unicode="h" horiz-adv-x="1110" d="M154 0v1481h102v-586q41 83 132 139t200 56q167 0 273 -108.5t106 -291.5v-690h-103v682q0 144 -81 228.5t-208 84.5q-140 0 -229.5 -96t-89.5 -250v-649h-102z" />
<glyph unicode="i" d="M121 1346q0 35 24.5 59.5t59.5 24.5t59.5 -24.5t24.5 -59.5t-24.5 -59.5t-59.5 -24.5t-59.5 24.5t-24.5 59.5zM154 0v1063h102v-1063h-102z" />
<glyph unicode="j" d="M-86 -295q25 -2 45 -2q195 0 195 252v1108h102v-1106q0 -96 -23 -165t-64.5 -107.5t-92.5 -56t-113 -17.5l-49 2v92zM121 1346q0 35 24.5 59.5t59.5 24.5t59.5 -24.5t24.5 -59.5t-24.5 -59.5t-59.5 -24.5t-59.5 24.5t-24.5 59.5z" />
<glyph unicode="k" horiz-adv-x="923" d="M154 0v1481h102v-879l489 461h138l-514 -477l540 -586h-137l-516 571v-571h-102z" />
<glyph unicode="l" d="M154 0v1481h102v-1481h-102z" />
<glyph unicode="m" horiz-adv-x="1767" d="M154 0v1063h102v-168q34 80 120 137.5t193 57.5q125 0 212.5 -57.5t123.5 -155.5q45 103 138.5 158t213.5 55q173 0 270 -112t97 -294v-684h-102v641q0 354 -277 354q-134 0 -219.5 -93.5t-85.5 -262.5v-639h-102v682q0 146 -76 229.5t-205 83.5q-125 0 -213 -97.5 t-88 -250.5v-647h-102z" />
<glyph unicode="n" horiz-adv-x="1110" d="M154 0v1063h102v-168q41 83 132 139t200 56q167 0 273 -108.5t106 -291.5v-690h-103v682q0 144 -81 228.5t-208 84.5q-140 0 -229.5 -96t-89.5 -250v-649h-102z" />
<glyph unicode="o" horiz-adv-x="1245" d="M78 532q0 157 71 285t196.5 200.5t279.5 72.5t279 -73.5t195 -201t70 -283.5q0 -239 -156.5 -399t-389.5 -160q-235 0 -390 158.5t-155 400.5zM184 532q0 -200 123 -331t316 -131t316.5 131t123.5 331q0 197 -123.5 329t-316.5 132q-192 0 -315.5 -132t-123.5 -329z" />
<glyph unicode="p" horiz-adv-x="1247" d="M154 -383v1446h102v-197q13 21 26 40t49.5 56t77 62t105.5 45.5t137 20.5q227 0 372.5 -156t145.5 -399q0 -247 -141.5 -404.5t-365.5 -157.5q-85 0 -159 25.5t-123 65.5t-78.5 74t-45.5 65v-586h-102zM252 535q0 -108 32.5 -197t88 -147t129.5 -89.5t157 -31.5 q174 0 289 131t115 334q0 205 -117 331.5t-291 126.5q-181 0 -292 -132.5t-111 -325.5z" />
<glyph unicode="q" horiz-adv-x="1247" d="M78 535q0 243 145.5 399t372.5 156q72 0 137 -20.5t105.5 -45.5t77 -62t49.5 -56t26 -40v197h103v-1446h-103v586q-12 -24 -32 -50t-56.5 -59.5t-79.5 -59t-105.5 -43.5t-131.5 -18q-224 0 -366 158t-142 404zM184 535q0 -203 115 -334t289 -131q83 0 157 31.5 t129.5 89.5t88 147t32.5 197q0 193 -111 325.5t-292 132.5q-174 0 -291 -126.5t-117 -331.5z" />
<glyph unicode="r" horiz-adv-x="647" d="M154 0v1063h102v-191q27 87 117 152.5t211 65.5v-101q-91 0 -157 -35t-102 -97t-52.5 -135t-16.5 -161v-561h-102z" />
<glyph unicode="s" horiz-adv-x="837" d="M70 217l88 35q81 -186 274 -186q96 0 164 56t68 150q0 58 -30.5 101.5t-78.5 71t-106.5 51t-117.5 49.5t-107 59t-78.5 86.5t-30.5 124.5q0 125 89.5 200t227.5 75q70 0 127.5 -20.5t93.5 -54t58 -67.5t32 -69l-84 -33q-13 30 -28 52.5t-41.5 48t-68.5 39t-97 13.5 q-89 0 -149 -48t-60 -130q0 -55 30.5 -96.5t78.5 -68t106.5 -49.5t117.5 -50t107 -61t78.5 -90t30.5 -130q0 -133 -95 -218t-241 -85q-81 0 -145 22t-105 61.5t-65 76.5t-43 84z" />
<glyph unicode="t" horiz-adv-x="567" d="M29 971v92h131v221h102v-221h250v-92h-250v-598q0 -171 45.5 -231t167.5 -60l47 2v-92q-49 -4 -88 -4q-129 0 -201.5 80.5t-72.5 238.5v664h-131z" />
<glyph unicode="u" horiz-adv-x="1099" d="M143 373v690h103v-682q0 -144 81 -228.5t208 -84.5q140 0 229.5 96t89.5 250v649h102v-1063h-102v168q-41 -83 -132 -139t-200 -56q-167 0 -273 108.5t-106 291.5z" />
<glyph unicode="v" horiz-adv-x="987" d="M14 1063h111l369 -940l368 940h111l-426 -1063h-107z" />
<glyph unicode="w" horiz-adv-x="1658" d="M14 1063h111l324 -936q2 8 327 936h107l327 -936l324 936h111l-379 -1063h-109l-328 926l-327 -926h-109z" />
<glyph unicode="x" horiz-adv-x="1003" d="M29 0l407 553l-373 510h127l312 -436l311 436h127l-373 -510l408 -553h-125l-348 479l-348 -479h-125z" />
<glyph unicode="y" horiz-adv-x="1009" d="M14 1063h113l385 -936l373 936h110l-585 -1430h-107l156 369z" />
<glyph unicode="z" horiz-adv-x="942" d="M70 0v86l665 887h-643v90h764v-86l-663 -887h673v-90h-796z" />
<glyph unicode="{" horiz-adv-x="653" d="M82 571v91q149 0 149 227v373q0 136 63 200t175 64h33v-90h-23q-85 0 -115 -48t-30 -137v-366q0 -56 -10 -102t-24 -74t-33 -49t-32 -30t-26 -14q17 -7 34 -21t40 -43t37 -82t14 -122v-366q0 -89 30 -137t115 -48h23v-90h-33q-112 0 -175 64t-63 200v373q0 227 -149 227z " />
<glyph unicode="|" horiz-adv-x="485" d="M193 -391v1954h100v-1954h-100z" />
<glyph unicode="}" horiz-adv-x="653" d="M152 -203h22q85 0 115 48t30 137v366q0 69 14 122t37 82t40 43t34 21q-13 5 -26 14t-32 30t-33 49t-24 74t-10 102v366q0 89 -30 137t-115 48h-22v90h32q112 0 175 -64t63 -200v-373q0 -227 149 -227v-91q-149 0 -149 -227v-373q0 -136 -63 -200t-175 -64h-32v90z" />
<glyph unicode="~" horiz-adv-x="1089" d="M102 502q0 106 64 178t176 72q57 0 118.5 -25t105.5 -55t95 -55t89 -25q70 0 106 45.5t39 112.5h92q0 -106 -63.5 -178t-175.5 -72q-48 0 -102.5 25t-96.5 54.5t-99.5 54.5t-109.5 25q-70 0 -106 -45t-39 -112h-93z" />
<glyph unicode="&#xa1;" horiz-adv-x="495" d="M164 1061q0 35 25.5 60.5t60.5 25.5t60.5 -25.5t25.5 -60.5t-25.5 -60.5t-60.5 -25.5t-60.5 25.5t-25.5 60.5zM197 -313l8 1095h88l8 -1095h-104z" />
<glyph unicode="&#xa2;" horiz-adv-x="1087" d="M80 692q0 222 138.5 380t348.5 175v189h101v-191q84 -7 161 -40t116 -63t59 -55l-41 -90q-19 22 -46 44.5t-71 49.5t-105.5 44.5t-128.5 17.5q-182 0 -303 -132.5t-121 -328.5q0 -125 56 -231.5t154 -169t216 -62.5q206 0 355 164l37 -90q-38 -48 -127 -102t-211 -66 v-135h-101v135q-214 17 -350.5 175t-136.5 382z" />
<glyph unicode="&#xa3;" horiz-adv-x="1118" d="M86 0v96h145v574h-125v96h125v293q0 180 107 290.5t287 110.5q77 0 142.5 -23t108 -60.5t69.5 -77t40 -80.5l-84 -39q-28 71 -98.5 126.5t-177.5 55.5q-142 0 -215.5 -82t-73.5 -225v-289h358v-96h-358v-574h678v-96h-928z" />
<glyph unicode="&#xa5;" horiz-adv-x="1087" d="M47 1434h121l377 -650l381 650h116l-395 -666h283v-90h-334v-203h334v-90h-334v-385h-104v385h-334v90h334v203h-334v90h282z" />
<glyph unicode="&#xa7;" horiz-adv-x="944" d="M74 606q0 101 55 177.5t137 107.5q-149 114 -149 287q0 143 99.5 233t264.5 90q68 0 126 -15.5t96 -39t69 -56t47.5 -61t28.5 -59.5l-82 -33q-78 170 -285 170q-128 0 -195 -62t-67 -169q0 -84 48.5 -145.5t140.5 -115.5l223 -131q237 -141 237 -315q0 -101 -55 -177.5 t-137 -107.5q149 -114 149 -286q0 -143 -99.5 -233.5t-264.5 -90.5q-68 0 -126 15.5t-96 39t-69 56t-47.5 61t-28.5 59.5l82 33q78 -170 285 -170q127 0 194.5 62.5t67.5 169.5q0 84 -48 145t-140 115l-306 186q-62 36 -108.5 102.5t-46.5 157.5zM172 608q0 -63 31 -110.5 t78 -75.5l284 -170q86 5 145.5 67t59.5 148q0 76 -49 133t-141 109l-203 114q-86 -5 -145.5 -67t-59.5 -148z" />
<glyph unicode="&#xa8;" horiz-adv-x="1007" d="M264 1337q0 35 24.5 59.5t59.5 24.5t59.5 -24.5t24.5 -59.5t-24.5 -59.5t-59.5 -24.5t-59.5 24.5t-24.5 59.5zM575 1337q0 35 24.5 59.5t59.5 24.5t59.5 -24.5t24.5 -59.5t-24.5 -59.5t-59.5 -24.5t-59.5 24.5t-24.5 59.5z" />
<glyph unicode="&#xa9;" horiz-adv-x="1660" d="M96 713q0 152 55.5 290t151.5 238.5t231.5 159.5t288.5 59q159 0 297.5 -58.5t235 -158.5t152 -237t55.5 -291q0 -206 -93 -376t-261.5 -269t-379.5 -99q-209 0 -377.5 98.5t-262 268t-93.5 375.5zM199 713q0 -182 79.5 -331t224 -235t326.5 -86q183 0 328 86t224 235 t79 333q0 183 -79.5 332t-225.5 235t-332 86q-178 0 -321 -86.5t-223 -236t-80 -332.5zM457 711q0 171 103 284t278 113q105 0 183 -43t124 -100l-62 -64q-103 115 -245 115q-134 0 -206.5 -85t-72.5 -218t72.5 -218t206.5 -85q143 0 245 114l62 -63q-46 -58 -124 -101 t-183 -43q-175 0 -278 111.5t-103 282.5z" />
<glyph unicode="&#xaa;" horiz-adv-x="833" d="M100 885q0 116 88 191t224 75q68 0 127 -23t94 -55v103q0 97 -57 148.5t-154 51.5q-124 0 -248 -76l-39 74q143 86 293 86q146 0 219.5 -78t73.5 -211v-538h-72l-14 67q-86 -86 -223 -86q-138 0 -225 77t-87 194zM188 885q0 -79 63 -134t165 -55q98 0 160.5 53.5 t62.5 135.5t-61.5 132t-161.5 50q-102 0 -165 -52.5t-63 -129.5z" />
<glyph unicode="&#xab;" horiz-adv-x="815" d="M76 596l256 373h110l-256 -373l256 -371h-110zM371 596l256 373h110l-256 -373l256 -371h-110z" />
<glyph unicode="&#xad;" horiz-adv-x="661" d="M82 565v99h498v-99h-498z" />
<glyph unicode="&#xae;" horiz-adv-x="925" d="M43 1106q0 176 115 295t299 119q192 0 308 -118t116 -294q0 -173 -115 -293.5t-303 -120.5t-304 117.5t-116 294.5zM129 1106q0 -145 89.5 -239.5t242.5 -94.5q156 0 245 93t89 243q0 151 -90 242.5t-248 91.5q-151 0 -239.5 -93.5t-88.5 -242.5zM332 885v442h137 q73 0 112.5 -35.5t39.5 -97.5q0 -41 -19.5 -71.5t-48.5 -43.5l84 -194h-88l-68 174h-65v-174h-84zM416 1135h61q26 0 39.5 16t13.5 43q0 26 -14 41.5t-39 15.5h-61v-116z" />
<glyph unicode="&#xaf;" horiz-adv-x="929" d="M229 1315v90h471v-90h-471z" />
<glyph unicode="&#xb0;" horiz-adv-x="706" d="M70 1180q0 118 79 199t201 81q127 0 206 -80t79 -198q0 -120 -78.5 -200.5t-204.5 -80.5q-127 0 -204.5 79.5t-77.5 199.5zM164 1180q0 -85 51.5 -140t136.5 -55t137 55.5t52 141.5q0 84 -53 139t-138 55q-82 0 -134 -56t-52 -140z" />
<glyph unicode="&#xb2;" horiz-adv-x="681" d="M109 625v75q0 58 28 112t70 93t91 80.5t91 75.5t70 76.5t28 85.5q0 59 -41 100t-108 41q-103 0 -156 -113l-73 33q27 71 83.5 118.5t145.5 47.5q113 0 177.5 -64.5t64.5 -162.5q0 -47 -21 -90.5t-54.5 -77.5t-74 -66.5t-80.5 -64t-73.5 -63t-54.5 -70.5t-21 -80h391v-86 h-483z" />
<glyph unicode="&#xb3;" horiz-adv-x="681" d="M88 776l74 35q55 -117 180 -117q72 0 119 41.5t47 118.5q0 80 -49 124t-144 44h-67v80l223 246h-346v86h453v-78l-230 -254q104 0 179 -65.5t75 -178.5q0 -116 -73.5 -183t-186.5 -67q-176 0 -254 168z" />
<glyph unicode="&#xb4;" horiz-adv-x="1007" d="M369 1196l149 289h119l-174 -289h-94z" />
<glyph unicode="&#xb6;" horiz-adv-x="993" d="M92 1059q0 155 110 265t265 110h111v-1526h-101v774q-162 0 -273.5 110.5t-111.5 266.5zM717 -92v1526h100v-1526h-100z" />
<glyph unicode="&#xb7;" horiz-adv-x="440" d="M133 643q0 35 25.5 60.5t60.5 25.5t60.5 -25.5t25.5 -60.5t-25.5 -60.5t-60.5 -25.5t-60.5 25.5t-25.5 60.5z" />
<glyph unicode="&#xb8;" horiz-adv-x="929" d="M319 -446l13 84q40 -5 59 -5q127 0 127 93q0 92 -131 92h-33l25 202h82l-19 -124q81 -10 124.5 -54t43.5 -114q0 -93 -63 -137t-158 -44z" />
<glyph unicode="&#xb9;" horiz-adv-x="489" d="M100 1372l154 62h74v-809h-92v716l-109 -45z" />
<glyph unicode="&#xba;" horiz-adv-x="946" d="M55 1036q0 184 119 304t299 120q177 0 294.5 -120.5t117.5 -303.5q0 -181 -118.5 -301.5t-295.5 -120.5q-180 0 -298 120t-118 302zM147 1036q0 -147 91 -243.5t233 -96.5q140 0 231 96.5t91 243.5q0 146 -90.5 243t-231.5 97t-232.5 -97t-91.5 -243z" />
<glyph unicode="&#xbb;" horiz-adv-x="815" d="M78 225l256 371l-256 373h110l256 -373l-256 -371h-110zM373 225l256 371l-256 373h110l256 -373l-256 -371h-110z" />
<glyph unicode="&#xbc;" horiz-adv-x="1572" d="M178 1372l154 62h74v-809h-93v716l-108 -45zM340 -84l813 1602h102l-813 -1602h-102zM901 170v72l399 567h86v-555h111v-84h-111v-170h-92v170h-393zM1008 254h286v414q-285 -415 -286 -414z" />
<glyph unicode="&#xbd;" horiz-adv-x="1591" d="M178 1372l154 62h74v-809h-93v716l-108 -45zM295 -84l813 1602h102l-813 -1602h-102zM983 0v76q0 50 21 97t54.5 83.5t73.5 71t80.5 66.5t74 63t54.5 67.5t21 73.5q0 59 -41.5 100t-108.5 41q-103 0 -155 -112l-74 32q27 71 83.5 118.5t145.5 47.5q113 0 177.5 -64.5 t64.5 -162.5q0 -47 -21 -90.5t-54.5 -77.5t-73.5 -66.5t-80.5 -64t-74 -63t-54.5 -70.5t-21 -80h391v-86h-483z" />
<glyph unicode="&#xbe;" horiz-adv-x="1695" d="M129 776l74 35q55 -117 180 -117q72 0 119 41.5t47 118.5q0 80 -49 124t-144 44h-67v80l223 246h-346v86h452v-76v-2l-229 -254q104 0 179 -65.5t75 -178.5q0 -116 -73.5 -183t-186.5 -67q-176 0 -254 168zM463 -84l813 1602h102l-813 -1602h-102zM983 170v72l399 567h86 v-555h111v-84h-111v-170h-92v170h-393zM1090 254h286v414q-285 -415 -286 -414z" />
<glyph unicode="&#xbf;" horiz-adv-x="942" d="M92 35q0 71 21 133t54.5 107.5t73.5 86.5t80.5 78t74 73.5t54.5 81.5t21 93v94h102v-94q0 -56 -20.5 -107.5t-53 -91.5t-72 -78.5t-79 -78.5t-72 -82.5t-53 -97.5t-20.5 -117q0 -124 76 -201.5t206 -77.5q195 0 283 191l82 -39q-16 -43 -44 -83.5t-71 -79t-107.5 -62 t-140.5 -23.5q-184 0 -289.5 106t-105.5 269zM432 1061q0 35 25.5 60.5t60.5 25.5t60.5 -25.5t25.5 -60.5t-25.5 -60.5t-60.5 -25.5t-60.5 25.5t-25.5 60.5z" />
<glyph unicode="&#xc0;" horiz-adv-x="1261" d="M31 0l549 1434h102l549 -1434h-107l-194 514h-598l-195 -514h-106zM369 610h524l-262 705zM406 1819h118l150 -289h-94z" />
<glyph unicode="&#xc1;" horiz-adv-x="1261" d="M31 0l549 1434h102l549 -1434h-107l-194 514h-598l-195 -514h-106zM369 610h524l-262 705zM580 1530l149 289h119l-174 -289h-94z" />
<glyph unicode="&#xc2;" horiz-adv-x="1261" d="M31 0l549 1434h102l549 -1434h-107l-194 514h-598l-195 -514h-106zM369 610h524l-262 705zM383 1546l190 256h115l191 -256h-109l-139 180l-139 -180h-109z" />
<glyph unicode="&#xc3;" horiz-adv-x="1261" d="M31 0l549 1434h102l549 -1434h-107l-194 514h-598l-195 -514h-106zM332 1571q0 85 49 135.5t125 50.5q43 0 91 -24.5t91.5 -49t75.5 -24.5q36 0 59.5 26.5t24.5 71.5h84q0 -84 -47.5 -136t-124.5 -52q-44 0 -91 24.5t-90.5 49t-78.5 24.5q-36 0 -58.5 -26t-23.5 -70h-86z M369 610h524l-262 705z" />
<glyph unicode="&#xc4;" horiz-adv-x="1261" d="M31 0l549 1434h102l549 -1434h-107l-194 514h-598l-195 -514h-106zM369 610h524l-262 705zM391 1663q0 35 24.5 59.5t59.5 24.5t59.5 -24.5t24.5 -59.5t-24.5 -59.5t-59.5 -24.5t-59.5 24.5t-24.5 59.5zM702 1663q0 35 24.5 59.5t59.5 24.5t59.5 -24.5t24.5 -59.5 t-24.5 -59.5t-59.5 -24.5t-59.5 24.5t-24.5 59.5z" />
<glyph unicode="&#xc5;" horiz-adv-x="1261" d="M31 0l549 1434h102l549 -1434h-107l-194 514h-598l-195 -514h-106zM369 610h524l-262 705zM463 1690q0 72 47 118.5t119 46.5q76 0 123 -46t47 -117q0 -72 -47.5 -120t-120.5 -48t-120.5 47.5t-47.5 118.5zM543 1690q0 -39 24.5 -63.5t63.5 -24.5q41 0 64.5 25t23.5 65 q0 39 -24 63.5t-66 24.5q-38 0 -62 -25t-24 -65z" />
<glyph unicode="&#xc6;" horiz-adv-x="1613" d="M18 0l721 1434h738v-97h-549v-557h481v-96h-481v-588h571v-96h-676v514h-442l-250 -514h-113zM430 610h393v727h-39z" />
<glyph unicode="&#xc7;" horiz-adv-x="1361" d="M88 717q0 208 96 379t259.5 267.5t357.5 96.5q80 0 155 -16t132 -42t96 -50t69 -49l-36 -95q-24 21 -57 43t-86.5 49.5t-125.5 44.5t-147 17q-124 0 -235 -49t-192.5 -134t-129 -205.5t-47.5 -256.5q0 -183 78 -330.5t218 -231t314 -83.5q249 0 440 172l35 -92 q-19 -20 -55.5 -46t-96.5 -58t-146 -53.5t-177 -21.5q-5 0 -16.5 1t-16.5 1l-10 -79q81 -10 124.5 -54t43.5 -114q0 -93 -63 -137t-158 -44l-70 7l12 84q40 -5 60 -5q127 0 127 93q0 92 -131 92h-33l18 164q-264 39 -435 243.5t-171 491.5z" />
<glyph unicode="&#xc8;" horiz-adv-x="964" d="M174 0v1434h653v-97h-548v-557h481v-96h-481v-588h571v-96h-676zM324 1819h118l150 -289h-94z" />
<glyph unicode="&#xc9;" horiz-adv-x="964" d="M174 0v1434h653v-97h-548v-557h481v-96h-481v-588h571v-96h-676zM444 1530l150 289h119l-174 -289h-95z" />
<glyph unicode="&#xca;" horiz-adv-x="964" d="M174 0v1434h653v-97h-548v-557h481v-96h-481v-588h571v-96h-676zM270 1546l191 256h114l191 -256h-109l-139 180l-139 -180h-109z" />
<glyph unicode="&#xcb;" horiz-adv-x="964" d="M174 0v1434h653v-97h-548v-557h481v-96h-481v-588h571v-96h-676zM289 1663q0 35 24.5 59.5t59.5 24.5t59.5 -24.5t24.5 -59.5t-24.5 -59.5t-59.5 -24.5t-59.5 24.5t-24.5 59.5zM600 1663q0 35 24.5 59.5t59.5 24.5t59.5 -24.5t24.5 -59.5t-24.5 -59.5t-59.5 -24.5 t-59.5 24.5t-24.5 59.5z" />
<glyph unicode="&#xcc;" horiz-adv-x="452" d="M14 1819h119l150 -289h-95zM174 0v1434h105v-1434h-105z" />
<glyph unicode="&#xcd;" horiz-adv-x="452" d="M164 1530l149 289h119l-174 -289h-94zM174 0v1434h105v-1434h-105z" />
<glyph unicode="&#xce;" horiz-adv-x="452" d="M-12 1546l190 256h115l190 -256h-108l-139 180l-140 -180h-108zM174 0v1434h105v-1434h-105z" />
<glyph unicode="&#xcf;" horiz-adv-x="452" d="M-10 1663q0 35 24.5 59.5t59.5 24.5t59.5 -24.5t24.5 -59.5t-24.5 -59.5t-59.5 -24.5t-59.5 24.5t-24.5 59.5zM174 0v1434h105v-1434h-105zM301 1663q0 35 24.5 59.5t59.5 24.5t59.5 -24.5t24.5 -59.5t-24.5 -59.5t-59.5 -24.5t-59.5 24.5t-24.5 59.5z" />
<glyph unicode="&#xd0;" horiz-adv-x="1286" d="M51 680v94h123v660h254q371 0 571.5 -189t200.5 -528q0 -356 -201.5 -536.5t-570.5 -180.5h-254v680h-123zM279 96h192q291 0 457 160t166 461q0 289 -168 454.5t-455 165.5h-192v-563h331v-94h-331v-584z" />
<glyph unicode="&#xd1;" horiz-adv-x="1433" d="M174 0v1434h102l879 -1254v1254h105v-1434h-105l-876 1255v-1255h-105zM416 1571q0 85 49 135.5t125 50.5q43 0 91 -24.5t91.5 -49t75.5 -24.5q36 0 59.5 26.5t24.5 71.5h84q0 -84 -47.5 -136t-124.5 -52q-44 0 -91 24.5t-90.5 49t-78.5 24.5q-36 0 -58.5 -26t-23.5 -70 h-86z" />
<glyph unicode="&#xd2;" horiz-adv-x="1622" d="M86 717q0 156 57 294.5t154 236.5t231 155t283 57q200 0 366.5 -97.5t262.5 -268t96 -377.5q0 -155 -57 -293.5t-154 -237t-231.5 -156t-284.5 -57.5q-199 0 -364.5 96t-262 267t-96.5 381zM195 717q0 -183 81 -331t222 -231t313 -83q128 0 242 48.5t196 133.5t130 205.5 t48 257.5q0 181 -81.5 329.5t-222.5 232t-312 83.5q-129 0 -243 -49.5t-196 -134.5t-129.5 -205t-47.5 -256zM598 1819h119l149 -289h-94z" />
<glyph unicode="&#xd3;" horiz-adv-x="1622" d="M86 717q0 156 57 294.5t154 236.5t231 155t283 57q200 0 366.5 -97.5t262.5 -268t96 -377.5q0 -155 -57 -293.5t-154 -237t-231.5 -156t-284.5 -57.5q-199 0 -364.5 96t-262 267t-96.5 381zM195 717q0 -183 81 -331t222 -231t313 -83q128 0 242 48.5t196 133.5t130 205.5 t48 257.5q0 181 -81.5 329.5t-222.5 232t-312 83.5q-129 0 -243 -49.5t-196 -134.5t-129.5 -205t-47.5 -256zM731 1530l150 289h118l-174 -289h-94z" />
<glyph unicode="&#xd4;" horiz-adv-x="1622" d="M86 717q0 156 57 294.5t154 236.5t231 155t283 57q200 0 366.5 -97.5t262.5 -268t96 -377.5q0 -155 -57 -293.5t-154 -237t-231.5 -156t-284.5 -57.5q-199 0 -364.5 96t-262 267t-96.5 381zM195 717q0 -183 81 -331t222 -231t313 -83q128 0 242 48.5t196 133.5t130 205.5 t48 257.5q0 181 -81.5 329.5t-222.5 232t-312 83.5q-129 0 -243 -49.5t-196 -134.5t-129.5 -205t-47.5 -256zM563 1546l191 256h114l191 -256h-109l-139 180l-139 -180h-109z" />
<glyph unicode="&#xd5;" horiz-adv-x="1622" d="M86 717q0 156 57 294.5t154 236.5t231 155t283 57q200 0 366.5 -97.5t262.5 -268t96 -377.5q0 -155 -57 -293.5t-154 -237t-231.5 -156t-284.5 -57.5q-199 0 -364.5 96t-262 267t-96.5 381zM195 717q0 -183 81 -331t222 -231t313 -83q128 0 242 48.5t196 133.5t130 205.5 t48 257.5q0 181 -81.5 329.5t-222.5 232t-312 83.5q-129 0 -243 -49.5t-196 -134.5t-129.5 -205t-47.5 -256zM520 1571q0 85 49 135.5t125 50.5q43 0 91 -24.5t91.5 -49t75.5 -24.5q36 0 59.5 26.5t24.5 71.5h84q0 -84 -47.5 -136t-124.5 -52q-44 0 -91 24.5t-90.5 49 t-78.5 24.5q-36 0 -58.5 -26t-23.5 -70h-86z" />
<glyph unicode="&#xd6;" horiz-adv-x="1622" d="M86 717q0 156 57 294.5t154 236.5t231 155t283 57q200 0 366.5 -97.5t262.5 -268t96 -377.5q0 -155 -57 -293.5t-154 -237t-231.5 -156t-284.5 -57.5q-199 0 -364.5 96t-262 267t-96.5 381zM195 717q0 -183 81 -331t222 -231t313 -83q128 0 242 48.5t196 133.5t130 205.5 t48 257.5q0 181 -81.5 329.5t-222.5 232t-312 83.5q-129 0 -243 -49.5t-196 -134.5t-129.5 -205t-47.5 -256zM573 1663q0 35 24.5 59.5t59.5 24.5t59.5 -24.5t24.5 -59.5t-24.5 -59.5t-59.5 -24.5t-59.5 24.5t-24.5 59.5zM885 1663q0 35 24.5 59.5t59.5 24.5t59.5 -24.5 t24.5 -59.5t-24.5 -59.5t-59.5 -24.5t-59.5 24.5t-24.5 59.5z" />
<glyph unicode="&#xd7;" horiz-adv-x="1091" d="M111 231l368 400l-368 401l65 68l369 -402l368 402l64 -66l-371 -401l373 -404l-66 -65l-370 401l-367 -399z" />
<glyph unicode="&#xd8;" horiz-adv-x="1624" d="M88 717q0 156 57 294.5t154 236.5t231 155t283 57q229 0 416 -131l110 139l78 -61l-110 -141q109 -101 170 -243.5t61 -305.5q0 -155 -57 -293.5t-154 -237t-231.5 -156t-284.5 -57.5q-234 0 -418 129l-106 -137l-78 60l108 139q-108 102 -168.5 244.5t-60.5 308.5z M197 717q0 -141 48.5 -262.5t137.5 -208.5l784 1003q-154 113 -354 113q-129 0 -243 -49.5t-196 -134.5t-129.5 -205t-47.5 -256zM457 182q153 -110 356 -110q128 0 242 49t196.5 133.5t130.5 205t48 257.5q0 138 -49.5 258.5t-137.5 210.5z" />
<glyph unicode="&#xd9;" horiz-adv-x="1359" d="M164 504v930h104v-928q0 -203 106 -318.5t306 -115.5t306 115.5t106 318.5v928h104v-930q0 -245 -136 -388t-380 -143t-380 143t-136 388zM494 1819h118l150 -289h-94z" />
<glyph unicode="&#xda;" horiz-adv-x="1359" d="M164 504v930h104v-928q0 -203 106 -318.5t306 -115.5t306 115.5t106 318.5v928h104v-930q0 -245 -136 -388t-380 -143t-380 143t-136 388zM600 1530l150 289h118l-174 -289h-94z" />
<glyph unicode="&#xdb;" horiz-adv-x="1359" d="M164 504v930h104v-928q0 -203 106 -318.5t306 -115.5t306 115.5t106 318.5v928h104v-930q0 -245 -136 -388t-380 -143t-380 143t-136 388zM434 1546l191 256h114l191 -256h-109l-139 180l-139 -180h-109z" />
<glyph unicode="&#xdc;" horiz-adv-x="1359" d="M164 504v930h104v-928q0 -203 106 -318.5t306 -115.5t306 115.5t106 318.5v928h104v-930q0 -245 -136 -388t-380 -143t-380 143t-136 388zM449 1663q0 35 24 59.5t59 24.5t59.5 -24.5t24.5 -59.5t-24.5 -59.5t-59.5 -24.5t-59 24.5t-24 59.5zM760 1663q0 35 24.5 59.5 t59.5 24.5t59.5 -24.5t24.5 -59.5t-24.5 -59.5t-59.5 -24.5t-59.5 24.5t-24.5 59.5z" />
<glyph unicode="&#xdd;" horiz-adv-x="1038" d="M23 1434h120l377 -650l381 650h117l-447 -752v-682h-104v682zM457 1530l149 289h119l-174 -289h-94z" />
<glyph unicode="&#xde;" horiz-adv-x="1005" d="M174 0v1434h105v-293h247q190 0 304 -105t114 -291t-116.5 -294.5t-301.5 -108.5h-247v-342h-105zM279 436h245q146 0 229 82.5t83 224.5q0 141 -82.5 221t-229.5 80h-245v-608z" />
<glyph unicode="&#xdf;" horiz-adv-x="1079" d="M150 0v1126q0 175 94 261t264 86q160 0 244 -83t84 -200q0 -190 -156 -266q147 -43 239.5 -155t92.5 -284q0 -119 -40 -213t-110.5 -152.5t-163.5 -89t-202 -30.5h-25v100h25q59 0 115.5 13t110.5 42.5t94 72.5t64.5 108.5t24.5 144.5q0 98 -36.5 173.5t-96.5 118.5 t-129.5 64t-144.5 21h-27v100h27q102 0 169.5 63t67.5 165q0 99 -60.5 146.5t-168.5 47.5q-254 0 -254 -252v-1128h-102z" />
<glyph unicode="&#xe0;" horiz-adv-x="1028" d="M80 326q0 151 115 249.5t292 98.5q100 0 183 -35t123 -80v162q0 131 -79 202.5t-212 71.5q-167 0 -328 -98l-43 80q174 113 377 113q192 0 289.5 -101.5t97.5 -273.5v-715h-84l-18 100q-110 -127 -306 -127q-179 0 -293 101.5t-114 251.5zM184 326q0 -109 85.5 -183.5 t224.5 -74.5q134 0 219.5 73.5t85.5 184.5q0 114 -84 184t-223 70q-138 0 -223 -72.5t-85 -181.5zM317 1485h119l150 -289h-94z" />
<glyph unicode="&#xe1;" horiz-adv-x="1028" d="M80 326q0 151 115 249.5t292 98.5q100 0 183 -35t123 -80v162q0 131 -79 202.5t-212 71.5q-167 0 -328 -98l-43 80q174 113 377 113q192 0 289.5 -101.5t97.5 -273.5v-715h-84l-18 100q-110 -127 -306 -127q-179 0 -293 101.5t-114 251.5zM184 326q0 -109 85.5 -183.5 t224.5 -74.5q134 0 219.5 73.5t85.5 184.5q0 114 -84 184t-223 70q-138 0 -223 -72.5t-85 -181.5zM436 1196l150 289h119l-175 -289h-94z" />
<glyph unicode="&#xe2;" horiz-adv-x="1028" d="M80 326q0 151 115 249.5t292 98.5q100 0 183 -35t123 -80v162q0 131 -79 202.5t-212 71.5q-167 0 -328 -98l-43 80q174 113 377 113q192 0 289.5 -101.5t97.5 -273.5v-715h-84l-18 100q-110 -127 -306 -127q-179 0 -293 101.5t-114 251.5zM184 326q0 -109 85.5 -183.5 t224.5 -74.5q134 0 219.5 73.5t85.5 184.5q0 114 -84 184t-223 70q-138 0 -223 -72.5t-85 -181.5zM266 1227l191 256h114l191 -256h-109l-139 180l-139 -180h-109z" />
<glyph unicode="&#xe3;" horiz-adv-x="1028" d="M80 326q0 151 115 249.5t292 98.5q100 0 183 -35t123 -80v162q0 131 -79 202.5t-212 71.5q-167 0 -328 -98l-43 80q174 113 377 113q192 0 289.5 -101.5t97.5 -273.5v-715h-84l-18 100q-110 -127 -306 -127q-179 0 -293 101.5t-114 251.5zM184 326q0 -109 85.5 -183.5 t224.5 -74.5q134 0 219.5 73.5t85.5 184.5q0 114 -84 184t-223 70q-138 0 -223 -72.5t-85 -181.5zM213 1249q0 85 49 136t125 51q43 0 91 -25t91.5 -49.5t75.5 -24.5q36 0 59.5 27t24.5 72h84q0 -85 -47.5 -137t-124.5 -52q-35 0 -72.5 15.5t-64.5 34t-61 34t-62 15.5 q-35 0 -58 -26.5t-24 -70.5h-86z" />
<glyph unicode="&#xe4;" horiz-adv-x="1028" d="M80 326q0 151 115 249.5t292 98.5q100 0 183 -35t123 -80v162q0 131 -79 202.5t-212 71.5q-167 0 -328 -98l-43 80q174 113 377 113q192 0 289.5 -101.5t97.5 -273.5v-715h-84l-18 100q-110 -127 -306 -127q-179 0 -293 101.5t-114 251.5zM184 326q0 -109 85.5 -183.5 t224.5 -74.5q134 0 219.5 73.5t85.5 184.5q0 114 -84 184t-223 70q-138 0 -223 -72.5t-85 -181.5zM283 1337q0 35 24.5 59.5t59.5 24.5t59.5 -24.5t24.5 -59.5t-24.5 -59.5t-59.5 -24.5t-59.5 24.5t-24.5 59.5zM594 1337q0 35 24.5 59.5t59.5 24.5t59.5 -24.5t24.5 -59.5 t-24.5 -59.5t-59.5 -24.5t-59.5 24.5t-24.5 59.5z" />
<glyph unicode="&#xe5;" horiz-adv-x="1028" d="M80 326q0 151 115 249.5t292 98.5q100 0 183 -35t123 -80v162q0 131 -79 202.5t-212 71.5q-167 0 -328 -98l-43 80q174 113 377 113q192 0 289.5 -101.5t97.5 -273.5v-715h-84l-18 100q-110 -127 -306 -127q-179 0 -293 101.5t-114 251.5zM184 326q0 -109 85.5 -183.5 t224.5 -74.5q134 0 219.5 73.5t85.5 184.5q0 114 -84 184t-223 70q-138 0 -223 -72.5t-85 -181.5zM346 1360q0 72 47 119t119 47q76 0 123 -46.5t47 -117.5q0 -72 -47.5 -120t-120.5 -48t-120.5 47.5t-47.5 118.5zM426 1360q0 -39 24.5 -63.5t63.5 -24.5q41 0 64.5 25 t23.5 65q0 39 -24 63.5t-66 24.5q-38 0 -62 -25t-24 -65z" />
<glyph unicode="&#xe6;" horiz-adv-x="1871" d="M80 326q0 151 115 249.5t292 98.5q100 0 183 -35t123 -80v162q0 131 -79 202.5t-212 71.5q-167 0 -328 -98l-43 80q174 113 377 113q151 0 244 -65t125 -179q69 116 179.5 180t241.5 64q225 0 362.5 -150.5t137.5 -382.5v-43h-905q0 -208 120 -327t314 -119 q238 0 367 182l67 -47q-39 -62 -92.5 -110.5t-143.5 -84t-198 -35.5q-156 0 -277 65.5t-182 188.5q-32 -101 -131 -177.5t-250 -76.5q-179 0 -293 101.5t-114 251.5zM184 326q0 -109 85.5 -183.5t224.5 -74.5q133 0 216 73t83 185q0 115 -81.5 184.5t-219.5 69.5t-223 -72.5 t-85 -181.5zM899 604h793q-9 190 -122 290.5t-274 100.5q-74 0 -141 -25t-122 -72.5t-91 -123.5t-43 -170z" />
<glyph unicode="&#xe7;" horiz-adv-x="1073" d="M78 532q0 115 41 218t111 178t169 118.5t211 43.5q74 0 142 -17t116.5 -44.5t80 -52t52.5 -48.5l-40 -90q-19 21 -46 43.5t-71 50t-105.5 44.5t-128.5 17q-182 0 -303 -132.5t-121 -328.5q0 -125 56 -231.5t154 -168.5t216 -62q206 0 355 163l37 -90q-16 -20 -46 -45 t-79 -55t-121 -50t-150 -20l-10 -77q81 -10 124.5 -54t43.5 -114q0 -93 -63 -137t-158 -44l-70 7l12 84q40 -5 60 -5q127 0 127 93q0 92 -131 92h-33l18 162q-199 29 -324.5 183.5t-125.5 368.5z" />
<glyph unicode="&#xe8;" horiz-adv-x="1163" d="M78 528q0 127 42 234t113 178t163.5 110.5t193.5 39.5q225 0 362.5 -150.5t137.5 -382.5v-43h-906q0 -208 120 -327t314 -119q238 0 367 182l68 -47q-39 -62 -92.5 -110.5t-144 -84t-198.5 -35.5q-237 0 -388.5 154t-151.5 401zM190 604h793q-9 190 -121.5 290.5 t-273.5 100.5q-74 0 -141.5 -25t-122.5 -72.5t-91 -123.5t-43 -170zM399 1485h119l150 -289h-95z" />
<glyph unicode="&#xe9;" horiz-adv-x="1163" d="M78 528q0 127 42 234t113 178t163.5 110.5t193.5 39.5q225 0 362.5 -150.5t137.5 -382.5v-43h-906q0 -208 120 -327t314 -119q238 0 367 182l68 -47q-39 -62 -92.5 -110.5t-144 -84t-198.5 -35.5q-237 0 -388.5 154t-151.5 401zM190 604h793q-9 190 -121.5 290.5 t-273.5 100.5q-74 0 -141.5 -25t-122.5 -72.5t-91 -123.5t-43 -170zM510 1196l149 289h119l-174 -289h-94z" />
<glyph unicode="&#xea;" horiz-adv-x="1163" d="M78 528q0 127 42 234t113 178t163.5 110.5t193.5 39.5q225 0 362.5 -150.5t137.5 -382.5v-43h-906q0 -208 120 -327t314 -119q238 0 367 182l68 -47q-39 -62 -92.5 -110.5t-144 -84t-198.5 -35.5q-237 0 -388.5 154t-151.5 401zM190 604h793q-9 190 -121.5 290.5 t-273.5 100.5q-74 0 -141.5 -25t-122.5 -72.5t-91 -123.5t-43 -170zM344 1227l191 256h114l191 -256h-109l-139 180l-139 -180h-109z" />
<glyph unicode="&#xeb;" horiz-adv-x="1163" d="M78 528q0 127 42 234t113 178t163.5 110.5t193.5 39.5q225 0 362.5 -150.5t137.5 -382.5v-43h-906q0 -208 120 -327t314 -119q238 0 367 182l68 -47q-39 -62 -92.5 -110.5t-144 -84t-198.5 -35.5q-237 0 -388.5 154t-151.5 401zM190 604h793q-9 190 -121.5 290.5 t-273.5 100.5q-74 0 -141.5 -25t-122.5 -72.5t-91 -123.5t-43 -170zM352 1337q0 35 24.5 59.5t59.5 24.5t59.5 -24.5t24.5 -59.5t-24.5 -59.5t-59.5 -24.5t-59.5 24.5t-24.5 59.5zM664 1337q0 35 24.5 59.5t59.5 24.5t59 -24.5t24 -59.5t-24 -59.5t-59 -24.5t-59.5 24.5 t-24.5 59.5z" />
<glyph unicode="&#xec;" d="M-4 1485h119l149 -289h-94zM154 0v1063h102v-1063h-102z" />
<glyph unicode="&#xed;" d="M141 1196l150 289h119l-174 -289h-95zM154 0v1063h102v-1063h-102z" />
<glyph unicode="&#xee;" d="M-39 1227l191 256h114l191 -256h-109l-139 180l-139 -180h-109zM154 0v1063h102v-1063h-102z" />
<glyph unicode="&#xef;" d="M-33 1337q0 35 24.5 59.5t59.5 24.5t59.5 -24.5t24.5 -59.5t-24.5 -59.5t-59.5 -24.5t-59.5 24.5t-24.5 59.5zM154 0v1063h102v-1063h-102zM279 1337q0 35 24 59.5t59 24.5t59.5 -24.5t24.5 -59.5t-24.5 -59.5t-59.5 -24.5t-59 24.5t-24 59.5z" />
<glyph unicode="&#xf0;" horiz-adv-x="1214" d="M84 506q0 225 146 376.5t382 151.5q90 0 166.5 -31t120.5 -67q-52 80 -138 164t-145 121l-331 -134l-17 89l267 108q-114 79 -248 148l75 51q140 -65 277 -160l242 98l16 -88l-178 -73q405 -314 405 -719q0 -120 -35 -223.5t-100.5 -180t-166.5 -120.5t-226 -44 q-149 0 -267 71.5t-181.5 193t-63.5 268.5zM190 506q0 -184 113.5 -311t294.5 -127q102 0 183.5 38t132.5 103.5t77.5 150t26.5 181.5q0 166 -115.5 282.5t-292.5 116.5q-128 0 -225 -59.5t-146 -157.5t-49 -217z" />
<glyph unicode="&#xf1;" horiz-adv-x="1110" d="M154 0v1063h102v-168q41 83 132 139t200 56q167 0 273 -108.5t106 -291.5v-690h-103v682q0 144 -81 228.5t-208 84.5q-140 0 -229.5 -96t-89.5 -250v-649h-102zM254 1249q0 85 49 136t125 51q43 0 91 -25t91.5 -49.5t75.5 -24.5q36 0 59.5 27t24.5 72h84 q0 -85 -47.5 -137t-124.5 -52q-35 0 -72.5 15.5t-64.5 34t-61 34t-62 15.5q-35 0 -58 -26.5t-24 -70.5h-86z" />
<glyph unicode="&#xf2;" horiz-adv-x="1245" d="M78 532q0 157 71 285t196.5 200.5t279.5 72.5t279 -73.5t195 -201t70 -283.5q0 -239 -156.5 -399t-389.5 -160q-235 0 -390 158.5t-155 400.5zM184 532q0 -200 123 -331t316 -131t316.5 131t123.5 331q0 197 -123.5 329t-316.5 132q-192 0 -315.5 -132t-123.5 -329z M401 1485h119l150 -289h-95z" />
<glyph unicode="&#xf3;" horiz-adv-x="1245" d="M78 532q0 157 71 285t196.5 200.5t279.5 72.5t279 -73.5t195 -201t70 -283.5q0 -239 -156.5 -399t-389.5 -160q-235 0 -390 158.5t-155 400.5zM184 532q0 -200 123 -331t316 -131t316.5 131t123.5 331q0 197 -123.5 329t-316.5 132q-192 0 -315.5 -132t-123.5 -329z M545 1196l149 289h119l-174 -289h-94z" />
<glyph unicode="&#xf4;" horiz-adv-x="1245" d="M78 532q0 157 71 285t196.5 200.5t279.5 72.5t279 -73.5t195 -201t70 -283.5q0 -239 -156.5 -399t-389.5 -160q-235 0 -390 158.5t-155 400.5zM184 532q0 -200 123 -331t316 -131t316.5 131t123.5 331q0 197 -123.5 329t-316.5 132q-192 0 -315.5 -132t-123.5 -329z M381 1227l190 256h115l191 -256h-109l-139 180l-140 -180h-108z" />
<glyph unicode="&#xf5;" horiz-adv-x="1245" d="M78 532q0 157 71 285t196.5 200.5t279.5 72.5t279 -73.5t195 -201t70 -283.5q0 -239 -156.5 -399t-389.5 -160q-235 0 -390 158.5t-155 400.5zM184 532q0 -200 123 -331t316 -131t316.5 131t123.5 331q0 197 -123.5 329t-316.5 132q-192 0 -315.5 -132t-123.5 -329z M332 1249q0 85 49 136t125 51q43 0 91 -25t91.5 -49.5t75.5 -24.5q36 0 59.5 27t24.5 72h84q0 -85 -47.5 -137t-124.5 -52q-35 0 -72.5 15.5t-64.5 34t-61 34t-62 15.5q-35 0 -58 -26.5t-24 -70.5h-86z" />
<glyph unicode="&#xf6;" horiz-adv-x="1245" d="M78 532q0 157 71 285t196.5 200.5t279.5 72.5t279 -73.5t195 -201t70 -283.5q0 -239 -156.5 -399t-389.5 -160q-235 0 -390 158.5t-155 400.5zM184 532q0 -200 123 -331t316 -131t316.5 131t123.5 331q0 197 -123.5 329t-316.5 132q-192 0 -315.5 -132t-123.5 -329z M387 1337q0 35 24.5 59.5t59.5 24.5t59.5 -24.5t24.5 -59.5t-24.5 -59.5t-59.5 -24.5t-59.5 24.5t-24.5 59.5zM698 1337q0 35 24.5 59.5t59.5 24.5t59.5 -24.5t24.5 -59.5t-24.5 -59.5t-59.5 -24.5t-59.5 24.5t-24.5 59.5z" />
<glyph unicode="&#xf7;" horiz-adv-x="1126" d="M86 592v92h954v-92h-954zM481 299q0 34 24 58t58 24t58 -24t24 -58t-24 -58t-58 -24t-58 24t-24 58zM481 977q0 34 24 58t58 24t58 -24t24 -58t-24 -58t-58 -24t-58 24t-24 58z" />
<glyph unicode="&#xf8;" horiz-adv-x="1247" d="M78 532q0 157 71 285t196.5 200.5t279.5 72.5q169 0 311 -95l78 101l76 -62l-80 -100q76 -76 117.5 -179.5t41.5 -222.5q0 -239 -156.5 -399t-389.5 -160q-169 0 -299 82l-76 -96l-74 59l76 97q-81 77 -126.5 184t-45.5 233zM184 532q0 -204 127 -337l563 723 q-112 75 -251 75q-192 0 -315.5 -132t-123.5 -329zM385 135q103 -65 238 -65q193 0 316.5 131t123.5 331q0 190 -117 320z" />
<glyph unicode="&#xf9;" horiz-adv-x="1099" d="M143 373v690h103v-682q0 -144 81 -228.5t208 -84.5q140 0 229.5 96t89.5 250v649h102v-1063h-102v168q-41 -83 -132 -139t-200 -56q-167 0 -273 108.5t-106 291.5zM375 1485h119l149 -289h-94z" />
<glyph unicode="&#xfa;" horiz-adv-x="1099" d="M143 373v690h103v-682q0 -144 81 -228.5t208 -84.5q140 0 229.5 96t89.5 250v649h102v-1063h-102v168q-41 -83 -132 -139t-200 -56q-167 0 -273 108.5t-106 291.5zM479 1196l150 289h119l-175 -289h-94z" />
<glyph unicode="&#xfb;" horiz-adv-x="1099" d="M143 373v690h103v-682q0 -144 81 -228.5t208 -84.5q140 0 229.5 96t89.5 250v649h102v-1063h-102v168q-41 -83 -132 -139t-200 -56q-167 0 -273 108.5t-106 291.5zM305 1227l191 256h114l191 -256h-109l-139 180l-139 -180h-109z" />
<glyph unicode="&#xfc;" horiz-adv-x="1099" d="M143 373v690h103v-682q0 -144 81 -228.5t208 -84.5q140 0 229.5 96t89.5 250v649h102v-1063h-102v168q-41 -83 -132 -139t-200 -56q-167 0 -273 108.5t-106 291.5zM317 1337q0 35 24.5 59.5t59.5 24.5t59.5 -24.5t24.5 -59.5t-24.5 -59.5t-59.5 -24.5t-59.5 24.5 t-24.5 59.5zM629 1337q0 35 24.5 59.5t59.5 24.5t59.5 -24.5t24.5 -59.5t-24.5 -59.5t-59.5 -24.5t-59.5 24.5t-24.5 59.5z" />
<glyph unicode="&#xfd;" horiz-adv-x="1009" d="M14 1063h113l385 -936l373 936h110l-585 -1430h-107l156 369zM438 1196l150 289h119l-175 -289h-94z" />
<glyph unicode="&#xfe;" horiz-adv-x="1247" d="M154 -383v1864h102v-615q13 21 26 40t49.5 56t77 62t105.5 45.5t137 20.5q227 0 372.5 -156t145.5 -399q0 -247 -141.5 -404.5t-365.5 -157.5q-85 0 -159 25.5t-123 65.5t-78.5 74t-45.5 65v-586h-102zM252 535q0 -108 32.5 -197t88 -147t129.5 -89.5t157 -31.5 q174 0 289 131t115 334q0 205 -117 331.5t-291 126.5q-181 0 -292 -132.5t-111 -325.5z" />
<glyph unicode="&#xff;" horiz-adv-x="1009" d="M14 1063h113l385 -936l373 936h110l-585 -1430h-107l156 369zM274 1337q0 35 24.5 59.5t59.5 24.5t59.5 -24.5t24.5 -59.5t-24.5 -59.5t-59.5 -24.5t-59.5 24.5t-24.5 59.5zM586 1337q0 35 24.5 59.5t59.5 24.5t59.5 -24.5t24.5 -59.5t-24.5 -59.5t-59.5 -24.5 t-59.5 24.5t-24.5 59.5z" />
<glyph unicode="&#x100;" horiz-adv-x="1261" d="M31 0l549 1434h102l549 -1434h-107l-194 514h-598l-195 -514h-106zM369 610h524l-262 705zM395 1581v90h471v-90h-471z" />
<glyph unicode="&#x101;" horiz-adv-x="1028" d="M80 326q0 151 115 249.5t292 98.5q100 0 183 -35t123 -80v162q0 131 -79 202.5t-212 71.5q-167 0 -328 -98l-43 80q174 113 377 113q192 0 289.5 -101.5t97.5 -273.5v-715h-84l-18 100q-110 -127 -306 -127q-179 0 -293 101.5t-114 251.5zM184 326q0 -109 85.5 -183.5 t224.5 -74.5q134 0 219.5 73.5t85.5 184.5q0 114 -84 184t-223 70q-138 0 -223 -72.5t-85 -181.5zM285 1315v90h471v-90h-471z" />
<glyph unicode="&#x102;" horiz-adv-x="1261" d="M31 0l549 1434h102l549 -1434h-107l-194 514h-598l-195 -514h-106zM369 610h524l-262 705zM395 1778h92q0 -70 36 -113t108 -43t107.5 43t35.5 113h92q0 -104 -61 -173t-174 -69t-174.5 69t-61.5 173z" />
<glyph unicode="&#x103;" horiz-adv-x="1028" d="M80 326q0 151 115 249.5t292 98.5q100 0 183 -35t123 -80v162q0 131 -79 202.5t-212 71.5q-167 0 -328 -98l-43 80q174 113 377 113q192 0 289.5 -101.5t97.5 -273.5v-715h-84l-18 100q-110 -127 -306 -127q-179 0 -293 101.5t-114 251.5zM184 326q0 -109 85.5 -183.5 t224.5 -74.5q134 0 219.5 73.5t85.5 184.5q0 114 -84 184t-223 70q-138 0 -223 -72.5t-85 -181.5zM279 1450h92q0 -70 35.5 -113t107.5 -43t107.5 43t35.5 113h93q0 -104 -61.5 -173t-174.5 -69t-174 69t-61 173z" />
<glyph unicode="&#x104;" horiz-adv-x="1261" d="M31 0l549 1434h102l549 -1434q-48 -18 -104 -71t-56 -117q0 -60 44 -86.5t104 -26.5v-86q-43 0 -84.5 9.5t-80 29.5t-62 58t-23.5 89q0 68 49 121.5t106 79.5l-194 514h-598l-195 -514h-106zM369 610h524l-262 705z" />
<glyph unicode="&#x105;" horiz-adv-x="1028" d="M80 326q0 151 115 249.5t292 98.5q100 0 183 -35t123 -80v162q0 131 -79 202.5t-212 71.5q-167 0 -328 -98l-43 80q174 113 377 113q192 0 289.5 -101.5t97.5 -273.5v-715q-48 -18 -104 -71t-56 -117q0 -60 44 -86.5t104 -26.5v-86q-43 0 -84.5 9.5t-80 29.5t-62 58 t-23.5 89q0 65 52 122.5t108 82.5v96q-110 -127 -306 -127q-179 0 -293 101.5t-114 251.5zM184 326q0 -109 85.5 -183.5t224.5 -74.5q134 0 219.5 73.5t85.5 184.5q0 114 -84 184t-223 70q-138 0 -223 -72.5t-85 -181.5z" />
<glyph unicode="&#x106;" horiz-adv-x="1361" d="M88 717q0 208 96 379t259.5 267.5t357.5 96.5q80 0 155 -16t132 -42t96 -50t69 -49l-36 -95q-24 21 -57 43t-86.5 49.5t-125.5 44.5t-147 17q-124 0 -235 -49t-192.5 -134t-129 -205.5t-47.5 -256.5q0 -183 78 -330.5t218 -231t314 -83.5q249 0 440 172l35 -92 q-19 -20 -55.5 -46t-96.5 -58t-146 -53.5t-177 -21.5q-201 0 -366 97t-259 267.5t-94 379.5zM688 1530l150 289h118l-174 -289h-94z" />
<glyph unicode="&#x107;" horiz-adv-x="1073" d="M78 532q0 115 41 218t111 178t169 118.5t211 43.5q74 0 142 -17t116.5 -44.5t80 -52t52.5 -48.5l-40 -90q-19 21 -46 43.5t-71 50t-105.5 44.5t-128.5 17q-182 0 -303 -132.5t-121 -328.5q0 -125 56 -231.5t154 -168.5t216 -62q206 0 355 163l37 -90q-16 -20 -46 -45 t-79 -55t-120.5 -50t-148.5 -20q-151 0 -273.5 74.5t-190.5 202.5t-68 282zM496 1196l149 289h119l-174 -289h-94z" />
<glyph unicode="&#x108;" horiz-adv-x="1361" d="M88 717q0 208 96 379t259.5 267.5t357.5 96.5q80 0 155 -16t132 -42t96 -50t69 -49l-36 -95q-24 21 -57 43t-86.5 49.5t-125.5 44.5t-147 17q-124 0 -235 -49t-192.5 -134t-129 -205.5t-47.5 -256.5q0 -183 78 -330.5t218 -231t314 -83.5q249 0 440 172l35 -92 q-19 -20 -55.5 -46t-96.5 -58t-146 -53.5t-177 -21.5q-201 0 -366 97t-259 267.5t-94 379.5zM565 1546l191 256h114l191 -256h-109l-139 180l-139 -180h-109z" />
<glyph unicode="&#x109;" horiz-adv-x="1073" d="M78 532q0 115 41 218t111 178t169 118.5t211 43.5q74 0 142 -17t116.5 -44.5t80 -52t52.5 -48.5l-40 -90q-19 21 -46 43.5t-71 50t-105.5 44.5t-128.5 17q-182 0 -303 -132.5t-121 -328.5q0 -125 56 -231.5t154 -168.5t216 -62q206 0 355 163l37 -90q-16 -20 -46 -45 t-79 -55t-120.5 -50t-148.5 -20q-151 0 -273.5 74.5t-190.5 202.5t-68 282zM371 1227l190 256h115l190 -256h-108l-140 180l-139 -180h-108z" />
<glyph unicode="&#x10a;" horiz-adv-x="1361" d="M88 717q0 208 96 379t259.5 267.5t357.5 96.5q80 0 155 -16t132 -42t96 -50t69 -49l-36 -95q-24 21 -57 43t-86.5 49.5t-125.5 44.5t-147 17q-124 0 -235 -49t-192.5 -134t-129 -205.5t-47.5 -256.5q0 -183 78 -330.5t218 -231t314 -83.5q249 0 440 172l35 -92 q-19 -20 -55.5 -46t-96.5 -58t-146 -53.5t-177 -21.5q-201 0 -366 97t-259 267.5t-94 379.5zM723 1663q0 35 24.5 59.5t59.5 24.5t59.5 -24.5t24.5 -59.5t-24.5 -59.5t-59.5 -24.5t-59.5 24.5t-24.5 59.5z" />
<glyph unicode="&#x10b;" horiz-adv-x="1073" d="M78 532q0 115 41 218t111 178t169 118.5t211 43.5q74 0 142 -17t116.5 -44.5t80 -52t52.5 -48.5l-40 -90q-19 21 -46 43.5t-71 50t-105.5 44.5t-128.5 17q-182 0 -303 -132.5t-121 -328.5q0 -125 56 -231.5t154 -168.5t216 -62q206 0 355 163l37 -90q-16 -20 -46 -45 t-79 -55t-120.5 -50t-148.5 -20q-151 0 -273.5 74.5t-190.5 202.5t-68 282zM530 1346q0 35 24.5 59.5t59.5 24.5t59.5 -24.5t24.5 -59.5t-24.5 -59.5t-59.5 -24.5t-59.5 24.5t-24.5 59.5z" />
<glyph unicode="&#x10c;" horiz-adv-x="1361" d="M88 717q0 208 96 379t259.5 267.5t357.5 96.5q80 0 155 -16t132 -42t96 -50t69 -49l-36 -95q-24 21 -57 43t-86.5 49.5t-125.5 44.5t-147 17q-124 0 -235 -49t-192.5 -134t-129 -205.5t-47.5 -256.5q0 -183 78 -330.5t218 -231t314 -83.5q249 0 440 172l35 -92 q-19 -20 -55.5 -46t-96.5 -58t-146 -53.5t-177 -21.5q-201 0 -366 97t-259 267.5t-94 379.5zM553 1802h109l139 -180l139 180h109l-191 -256h-115z" />
<glyph unicode="&#x10d;" horiz-adv-x="1073" d="M78 532q0 115 41 218t111 178t169 118.5t211 43.5q74 0 142 -17t116.5 -44.5t80 -52t52.5 -48.5l-40 -90q-19 21 -46 43.5t-71 50t-105.5 44.5t-128.5 17q-182 0 -303 -132.5t-121 -328.5q0 -125 56 -231.5t154 -168.5t216 -62q206 0 355 163l37 -90q-16 -20 -46 -45 t-79 -55t-120.5 -50t-148.5 -20q-151 0 -273.5 74.5t-190.5 202.5t-68 282zM354 1483h109l139 -180l139 180h109l-191 -256h-114z" />
<glyph unicode="&#x10e;" horiz-adv-x="1286" d="M174 0v1434h254q371 0 571.5 -189t200.5 -528q0 -356 -201.5 -536.5t-570.5 -180.5h-254zM279 96h192q291 0 457 160t166 461q0 289 -168 454.5t-455 165.5h-192v-1241zM301 1802h109l139 -180l139 180h109l-191 -256h-114z" />
<glyph unicode="&#x10f;" horiz-adv-x="1251" d="M76 528q0 246 142 404t366 158q69 0 131.5 -18t105.5 -43.5t79.5 -59t56.5 -59.5t32 -50v621h103v-1481h-103v197q-13 -21 -26 -40t-49.5 -56t-77 -62t-105.5 -45.5t-137 -20.5q-227 0 -372.5 156t-145.5 399zM182 528q0 -205 117 -331.5t291 -126.5q181 0 292 132.5 t111 325.5q0 108 -32.5 197t-88 147t-129.5 89.5t-157 31.5q-174 0 -289 -131t-115 -334zM1159 1141l29 340h96l-49 -340h-76z" />
<glyph unicode="&#x110;" horiz-adv-x="1286" d="M51 680v94h123v660h254q371 0 571.5 -189t200.5 -528q0 -356 -201.5 -536.5t-570.5 -180.5h-254v680h-123zM279 96h192q291 0 457 160t166 461q0 289 -168 454.5t-455 165.5h-192v-563h331v-94h-331v-584z" />
<glyph unicode="&#x111;" horiz-adv-x="1245" d="M76 528q0 246 142 404t366 158q69 0 131.5 -18t105.5 -43.5t79.5 -59t56.5 -59.5t32 -50v354h-266v91h266v176h103v-176h143v-91h-143v-1214h-103v197q-13 -21 -26 -40t-49.5 -56t-77 -62t-105.5 -45.5t-137 -20.5q-227 0 -372.5 156t-145.5 399zM182 528 q0 -205 117 -331.5t291 -126.5q181 0 292 132.5t111 325.5q0 108 -32.5 197t-88 147t-129.5 89.5t-157 31.5q-174 0 -289 -131t-115 -334z" />
<glyph unicode="&#x112;" horiz-adv-x="964" d="M174 0v1434h653v-97h-548v-557h481v-96h-481v-588h571v-96h-676zM283 1581v90h471v-90h-471z" />
<glyph unicode="&#x113;" horiz-adv-x="1163" d="M78 528q0 127 42 234t113 178t163.5 110.5t193.5 39.5q225 0 362.5 -150.5t137.5 -382.5v-43h-906q0 -208 120 -327t314 -119q238 0 367 182l68 -47q-39 -62 -92.5 -110.5t-144 -84t-198.5 -35.5q-237 0 -388.5 154t-151.5 401zM190 604h793q-9 190 -121.5 290.5 t-273.5 100.5q-74 0 -141.5 -25t-122.5 -72.5t-91 -123.5t-43 -170zM360 1315v90h471v-90h-471z" />
<glyph unicode="&#x114;" horiz-adv-x="964" d="M174 0v1434h653v-97h-548v-557h481v-96h-481v-588h571v-96h-676zM272 1778h93q0 -70 35.5 -113t107.5 -43t107.5 43t35.5 113h92q0 -104 -61 -173t-174 -69t-174.5 69t-61.5 173z" />
<glyph unicode="&#x115;" horiz-adv-x="1163" d="M78 528q0 127 42 234t113 178t163.5 110.5t193.5 39.5q225 0 362.5 -150.5t137.5 -382.5v-43h-906q0 -208 120 -327t314 -119q238 0 367 182l68 -47q-39 -62 -92.5 -110.5t-144 -84t-198.5 -35.5q-237 0 -388.5 154t-151.5 401zM190 604h793q-9 190 -121.5 290.5 t-273.5 100.5q-74 0 -141.5 -25t-122.5 -72.5t-91 -123.5t-43 -170zM354 1450h92q0 -70 36 -113t108 -43t107.5 43t35.5 113h92q0 -104 -61 -173t-174 -69t-174.5 69t-61.5 173z" />
<glyph unicode="&#x116;" horiz-adv-x="964" d="M174 0v1434h653v-97h-548v-557h481v-96h-481v-588h571v-96h-676zM457 1663q0 35 24.5 59.5t59.5 24.5t59.5 -24.5t24.5 -59.5t-24.5 -59.5t-59.5 -24.5t-59.5 24.5t-24.5 59.5z" />
<glyph unicode="&#x117;" horiz-adv-x="1163" d="M78 528q0 127 42 234t113 178t163.5 110.5t193.5 39.5q225 0 362.5 -150.5t137.5 -382.5v-43h-906q0 -208 120 -327t314 -119q238 0 367 182l68 -47q-39 -62 -92.5 -110.5t-144 -84t-198.5 -35.5q-237 0 -388.5 154t-151.5 401zM190 604h793q-9 190 -121.5 290.5 t-273.5 100.5q-74 0 -141.5 -25t-122.5 -72.5t-91 -123.5t-43 -170zM514 1346q0 35 24.5 59.5t59.5 24.5t59.5 -24.5t24.5 -59.5t-24.5 -59.5t-59.5 -24.5t-59.5 24.5t-24.5 59.5z" />
<glyph unicode="&#x118;" horiz-adv-x="964" d="M174 0v1434h653v-97h-548v-557h481v-96h-481v-588h571v-96q-48 -18 -104 -71t-56 -117q0 -60 44 -86.5t104 -26.5v-86q-43 0 -84.5 9.5t-80 29.5t-62 58t-23.5 89q0 65 47.5 120.5t101.5 80.5h-563z" />
<glyph unicode="&#x119;" horiz-adv-x="1163" d="M78 528q0 127 42 234t113 178t163.5 110.5t193.5 39.5q225 0 362.5 -150.5t137.5 -382.5v-43h-906q0 -208 120 -327t314 -119q238 0 367 182l68 -47q-97 -156 -269 -207q-30 -15 -60.5 -37.5t-59.5 -63.5t-29 -83q0 -60 44 -86.5t103 -26.5v-86q-43 0 -84.5 9.5t-80 29.5 t-62 58t-23.5 89t30.5 96.5t74.5 77.5h-19q-237 0 -388.5 154t-151.5 401zM190 604h793q-9 190 -121.5 290.5t-273.5 100.5q-74 0 -141.5 -25t-122.5 -72.5t-91 -123.5t-43 -170z" />
<glyph unicode="&#x11a;" horiz-adv-x="964" d="M174 0v1434h653v-97h-548v-557h481v-96h-481v-588h571v-96h-676zM289 1802h108l140 -180l139 180h108l-190 -256h-115z" />
<glyph unicode="&#x11b;" horiz-adv-x="1163" d="M78 528q0 127 42 234t113 178t163.5 110.5t193.5 39.5q225 0 362.5 -150.5t137.5 -382.5v-43h-906q0 -208 120 -327t314 -119q238 0 367 182l68 -47q-39 -62 -92.5 -110.5t-144 -84t-198.5 -35.5q-237 0 -388.5 154t-151.5 401zM190 604h793q-9 190 -121.5 290.5 t-273.5 100.5q-74 0 -141.5 -25t-122.5 -72.5t-91 -123.5t-43 -170zM346 1483h109l139 -180l139 180h109l-191 -256h-114z" />
<glyph unicode="&#x11c;" horiz-adv-x="1497" d="M88 713q0 157 55 295.5t149.5 237.5t228 156.5t284.5 57.5q95 0 180.5 -19.5t149 -51.5t105.5 -61.5t75 -61.5l-68 -72q-36 33 -70.5 57.5t-88.5 52.5t-126.5 43t-156.5 15q-174 0 -313 -85t-216 -233t-77 -331q0 -184 77.5 -330.5t215.5 -228.5t311 -82q91 0 171.5 18 t137 48t91 54.5t59.5 49.5v358h-344v96h446v-487q-214 -236 -561 -236q-151 0 -283.5 56t-227.5 153.5t-149.5 235.5t-54.5 295zM565 1546l191 256h114l191 -256h-109l-139 180l-139 -180h-109z" />
<glyph unicode="&#x11d;" horiz-adv-x="1234" d="M76 528q0 246 142 404t366 158q69 0 131.5 -18t105.5 -43.5t79.5 -59t56.5 -59.5t32 -50v203h103v-909q0 -545 -517 -545q-96 0 -198.5 31.5t-175.5 78.5l43 82q52 -34 139.5 -65t189.5 -31q89 0 162 21t131 64.5t90.5 117.5t32.5 174v115q-13 -21 -26 -40t-49.5 -56 t-77 -62t-105.5 -45.5t-137 -20.5q-227 0 -372.5 156t-145.5 399zM182 528q0 -205 117 -331.5t291 -126.5q181 0 292 132.5t111 325.5q0 108 -32.5 197t-88 147t-129.5 89.5t-157 31.5q-174 0 -289 -131t-115 -334zM369 1227l190 256h115l190 -256h-108l-140 180l-139 -180 h-108z" />
<glyph unicode="&#x11e;" horiz-adv-x="1497" d="M88 713q0 157 55 295.5t149.5 237.5t228 156.5t284.5 57.5q95 0 180.5 -19.5t149 -51.5t105.5 -61.5t75 -61.5l-68 -72q-36 33 -70.5 57.5t-88.5 52.5t-126.5 43t-156.5 15q-174 0 -313 -85t-216 -233t-77 -331q0 -184 77.5 -330.5t215.5 -228.5t311 -82q91 0 171.5 18 t137 48t91 54.5t59.5 49.5v358h-344v96h446v-487q-214 -236 -561 -236q-151 0 -283.5 56t-227.5 153.5t-149.5 235.5t-54.5 295zM557 1778h92q0 -70 36 -113t108 -43t107.5 43t35.5 113h92q0 -104 -61 -173t-174 -69t-174.5 69t-61.5 173z" />
<glyph unicode="&#x11f;" horiz-adv-x="1234" d="M76 528q0 246 142 404t366 158q69 0 131.5 -18t105.5 -43.5t79.5 -59t56.5 -59.5t32 -50v203h103v-909q0 -545 -517 -545q-96 0 -198.5 31.5t-175.5 78.5l43 82q52 -34 139.5 -65t189.5 -31q89 0 162 21t131 64.5t90.5 117.5t32.5 174v115q-13 -21 -26 -40t-49.5 -56 t-77 -62t-105.5 -45.5t-137 -20.5q-227 0 -372.5 156t-145.5 399zM182 528q0 -205 117 -331.5t291 -126.5q181 0 292 132.5t111 325.5q0 108 -32.5 197t-88 147t-129.5 89.5t-157 31.5q-174 0 -289 -131t-115 -334zM381 1450h92q0 -70 35.5 -113t107.5 -43t108 43t36 113h92 q0 -104 -61.5 -173t-174.5 -69t-174 69t-61 173z" />
<glyph unicode="&#x120;" horiz-adv-x="1497" d="M88 713q0 157 55 295.5t149.5 237.5t228 156.5t284.5 57.5q95 0 180.5 -19.5t149 -51.5t105.5 -61.5t75 -61.5l-68 -72q-36 33 -70.5 57.5t-88.5 52.5t-126.5 43t-156.5 15q-174 0 -313 -85t-216 -233t-77 -331q0 -184 77.5 -330.5t215.5 -228.5t311 -82q91 0 171.5 18 t137 48t91 54.5t59.5 49.5v358h-344v96h446v-487q-214 -236 -561 -236q-151 0 -283.5 56t-227.5 153.5t-149.5 235.5t-54.5 295zM723 1663q0 35 24.5 59.5t59.5 24.5t59.5 -24.5t24.5 -59.5t-24.5 -59.5t-59.5 -24.5t-59.5 24.5t-24.5 59.5z" />
<glyph unicode="&#x121;" horiz-adv-x="1234" d="M76 528q0 246 142 404t366 158q69 0 131.5 -18t105.5 -43.5t79.5 -59t56.5 -59.5t32 -50v203h103v-909q0 -545 -517 -545q-96 0 -198.5 31.5t-175.5 78.5l43 82q52 -34 139.5 -65t189.5 -31q89 0 162 21t131 64.5t90.5 117.5t32.5 174v115q-13 -21 -26 -40t-49.5 -56 t-77 -62t-105.5 -45.5t-137 -20.5q-227 0 -372.5 156t-145.5 399zM182 528q0 -205 117 -331.5t291 -126.5q181 0 292 132.5t111 325.5q0 108 -32.5 197t-88 147t-129.5 89.5t-157 31.5q-174 0 -289 -131t-115 -334zM532 1346q0 35 24.5 59.5t59.5 24.5t59.5 -24.5 t24.5 -59.5t-24.5 -59.5t-59.5 -24.5t-59.5 24.5t-24.5 59.5z" />
<glyph unicode="&#x122;" horiz-adv-x="1497" d="M88 713q0 157 55 295.5t149.5 237.5t228 156.5t284.5 57.5q95 0 180.5 -19.5t149 -51.5t105.5 -61.5t75 -61.5l-68 -72q-36 33 -70.5 57.5t-88.5 52.5t-126.5 43t-156.5 15q-174 0 -313 -85t-216 -233t-77 -331q0 -184 77.5 -330.5t215.5 -228.5t311 -82q91 0 171.5 18 t137 48t91 54.5t59.5 49.5v358h-344v96h446v-487q-214 -236 -561 -236q-151 0 -283.5 56t-227.5 153.5t-149.5 235.5t-54.5 295zM725 -381q74 69 84 139q-33 3 -55.5 27t-22.5 57q0 36 23.5 61t58.5 25q40 0 65 -26t25 -66q0 -84 -32.5 -146t-90.5 -120z" />
<glyph unicode="&#x123;" horiz-adv-x="1234" d="M76 528q0 246 142 404t366 158q69 0 131.5 -18t105.5 -43.5t79.5 -59t56.5 -59.5t32 -50v203h103v-909q0 -545 -517 -545q-96 0 -198.5 31.5t-175.5 78.5l43 82q52 -34 139.5 -65t189.5 -31q89 0 162 21t131 64.5t90.5 117.5t32.5 174v115q-13 -21 -26 -40t-49.5 -56 t-77 -62t-105.5 -45.5t-137 -20.5q-227 0 -372.5 156t-145.5 399zM182 528q0 -205 117 -331.5t291 -126.5q181 0 292 132.5t111 325.5q0 108 -32.5 197t-88 147t-129.5 89.5t-157 31.5q-174 0 -289 -131t-115 -334zM514 1268q0 84 32.5 146t90.5 120l55 -49 q-74 -69 -84 -139q33 -3 55.5 -27t22.5 -57q0 -36 -23.5 -61t-58.5 -25q-40 0 -65 26t-25 66z" />
<glyph unicode="&#x124;" horiz-adv-x="1402" d="M174 0v1434h105v-652h845v652h105v-1434h-105v684h-845v-684h-105zM463 1546l190 256h115l190 -256h-108l-139 180l-140 -180h-108z" />
<glyph unicode="&#x125;" horiz-adv-x="1110" d="M154 0v1481h102v-586q41 83 132 139t200 56q167 0 273 -108.5t106 -291.5v-690h-103v682q0 144 -81 228.5t-208 84.5q-140 0 -229.5 -96t-89.5 -250v-649h-102zM307 1536l191 256h114l191 -256h-109l-139 180l-139 -180h-109z" />
<glyph unicode="&#x126;" horiz-adv-x="1402" d="M45 1061v94h129v279h105v-279h845v279h105v-279h129v-94h-129v-1061h-105v684h-845v-684h-105v1061h-129zM279 782h845v279h-845v-279z" />
<glyph unicode="&#x127;" horiz-adv-x="1110" d="M12 1217v90h142v174h102v-174h262v-90h-262v-322q41 83 132 139t200 56q167 0 273 -108.5t106 -291.5v-690h-103v682q0 144 -81 228.5t-208 84.5q-140 0 -229.5 -96t-89.5 -250v-649h-102v1217h-142z" />
<glyph unicode="&#x128;" horiz-adv-x="452" d="M-70 1571q0 85 49 135.5t125 50.5q43 0 91 -24.5t91.5 -49t75.5 -24.5q36 0 59.5 26.5t24.5 71.5h84q0 -84 -47.5 -136t-124.5 -52q-44 0 -91 24.5t-90.5 49t-78.5 24.5q-36 0 -58.5 -26t-23.5 -70h-86zM174 0v1434h105v-1434h-105z" />
<glyph unicode="&#x129;" d="M-92 1249q0 85 49 136t125 51q43 0 91 -25t91.5 -49.5t75.5 -24.5q36 0 59.5 27t24.5 72h84q0 -85 -47.5 -137t-124.5 -52q-35 0 -72.5 15.5t-64.5 34t-61 34t-62 15.5q-35 0 -58 -26.5t-24 -70.5h-86zM154 0v1063h102v-1063h-102z" />
<glyph unicode="&#x12a;" horiz-adv-x="452" d="M-2 1581v90h471v-90h-471zM174 0v1434h105v-1434h-105z" />
<glyph unicode="&#x12b;" d="M-29 1315v90h471v-90h-471zM154 0v1063h102v-1063h-102z" />
<glyph unicode="&#x12c;" horiz-adv-x="452" d="M-6 1778h92q0 -70 35.5 -113t107.5 -43t108 43t36 113h92q0 -104 -61.5 -173t-174.5 -69t-174 69t-61 173zM174 0v1434h105v-1434h-105z" />
<glyph unicode="&#x12d;" d="M-29 1450h92q0 -70 36 -113t108 -43t107.5 43t35.5 113h92q0 -104 -61 -173t-174 -69t-174.5 69t-61.5 173zM154 0v1063h102v-1063h-102z" />
<glyph unicode="&#x12e;" horiz-adv-x="452" d="M16 -201q0 65 51 120t107 81v1434h105v-1434q-48 -18 -104 -71t-56 -117q0 -60 44 -86.5t103 -26.5v-86q-43 0 -84.5 9.5t-80 29.5t-62 58t-23.5 89z" />
<glyph unicode="&#x12f;" d="M-6 -201q0 65 51.5 120t108.5 81v1063h102v-1063q-48 -18 -104 -71t-56 -117q0 -60 44 -86.5t104 -26.5v-86q-43 0 -84.5 9.5t-80 29.5t-62 58t-23.5 89zM121 1346q0 35 24.5 59.5t59.5 24.5t59.5 -24.5t24.5 -59.5t-24.5 -59.5t-59.5 -24.5t-59.5 24.5t-24.5 59.5z" />
<glyph unicode="&#x130;" horiz-adv-x="452" d="M145 1663q0 35 24.5 59.5t59.5 24.5t59.5 -24.5t24.5 -59.5t-24.5 -59.5t-59.5 -24.5t-59.5 24.5t-24.5 59.5zM174 0v1434h105v-1434h-105z" />
<glyph unicode="&#x131;" d="M154 0v1063h102v-1063h-102z" />
<glyph unicode="&#x132;" horiz-adv-x="1130" d="M174 0v1434h105v-1434h-105zM502 8l10 94q65 -20 143 -20q197 0 197 233v1119h104v-1125q0 -153 -74 -237t-218 -84q-42 0 -82.5 5t-59.5 10z" />
<glyph unicode="&#x133;" horiz-adv-x="819" d="M121 1346q0 35 24.5 59.5t59.5 24.5t59.5 -24.5t24.5 -59.5t-24.5 -59.5t-59.5 -24.5t-59.5 24.5t-24.5 59.5zM154 0v1063h102v-1063h-102zM324 -295q25 -2 45 -2q97 0 145.5 61t48.5 191v1108h103v-1106q0 -96 -23 -165t-64.5 -107.5t-92.5 -56t-113 -17.5l-49 2v92z M530 1346q0 35 24.5 59.5t59.5 24.5t59.5 -24.5t24.5 -59.5t-24.5 -59.5t-59.5 -24.5t-59.5 24.5t-24.5 59.5z" />
<glyph unicode="&#x134;" horiz-adv-x="677" d="M49 8l10 94q66 -20 144 -20q196 0 196 233v1119h105v-1125q0 -153 -74.5 -237t-218.5 -84q-42 0 -82.5 5t-60.5 10zM205 1546l190 256h115l190 -256h-108l-139 180l-140 -180h-108z" />
<glyph unicode="&#x135;" d="M-86 -295q25 -2 45 -2q195 0 195 252v1108h102v-1106q0 -96 -23 -165t-64.5 -107.5t-92.5 -56t-113 -17.5l-49 2v92zM-43 1227l190 256h115l191 -256h-109l-139 180l-139 -180h-109z" />
<glyph unicode="&#x136;" horiz-adv-x="1107" d="M174 0v1434h105v-672l626 672h133l-639 -684l668 -750h-135l-653 729v-729h-105zM512 -381q74 69 84 139q-33 3 -55.5 27t-22.5 57q0 36 23.5 61t58.5 25q40 0 65 -26t25 -66q0 -84 -32.5 -146t-90.5 -120z" />
<glyph unicode="&#x137;" horiz-adv-x="923" d="M154 0v1481h102v-879l489 461h138l-514 -477l540 -586h-137l-516 571v-571h-102zM418 -381q74 69 84 139q-33 3 -55.5 27t-22.5 57q0 36 23.5 61t58.5 25q40 0 65 -26t25 -66q0 -84 -32.5 -146t-90.5 -120z" />
<glyph unicode="&#x138;" horiz-adv-x="923" d="M172 0v1063h102v-471l490 471h137l-514 -488l541 -575h-137l-517 561v-561h-102z" />
<glyph unicode="&#x139;" horiz-adv-x="913" d="M174 0v1434h105v-1338h571v-96h-676zM178 1530l150 289h118l-174 -289h-94z" />
<glyph unicode="&#x13a;" d="M143 1536l150 289h119l-174 -289h-95zM154 0v1481h102v-1481h-102z" />
<glyph unicode="&#x13b;" horiz-adv-x="913" d="M174 0v1434h105v-1338h571v-96h-676zM430 -381q74 69 84 139q-33 3 -55.5 27t-22.5 57q0 36 23.5 61t58.5 25q40 0 65 -26t25 -66q0 -84 -32.5 -146t-90.5 -120z" />
<glyph unicode="&#x13c;" d="M119 -381q74 69 84 139q-33 3 -55.5 27t-22.5 57q0 36 23.5 61t58.5 25q40 0 65 -26t25 -66q0 -84 -32.5 -146t-90.5 -120zM154 0v1481h102v-1481h-102z" />
<glyph unicode="&#x13d;" horiz-adv-x="913" d="M174 0v1434h105v-1338h571v-96h-676zM551 1094l29 340h96l-49 -340h-76z" />
<glyph unicode="&#x13e;" horiz-adv-x="417" d="M154 0v1481h102v-1481h-102zM305 1141l29 340h96l-49 -340h-76z" />
<glyph unicode="&#x13f;" horiz-adv-x="913" d="M174 0v1434h105v-1338h571v-96h-676zM526 754q0 35 25.5 60.5t60.5 25.5t60.5 -25.5t25.5 -60.5t-25.5 -60.5t-60.5 -25.5t-60.5 25.5t-25.5 60.5z" />
<glyph unicode="&#x140;" horiz-adv-x="591" d="M154 0v1481h102v-1481h-102zM344 643q0 35 25.5 60.5t60.5 25.5t60.5 -25.5t25.5 -60.5t-25.5 -60.5t-60.5 -25.5t-60.5 25.5t-25.5 60.5z" />
<glyph unicode="&#x141;" horiz-adv-x="913" d="M51 541v106l123 76v711h105v-648l272 170v-110l-272 -168v-582h571v-96h-676v614z" />
<glyph unicode="&#x142;" horiz-adv-x="491" d="M51 631v112l144 97v641h102v-574l149 103v-115l-149 -100v-795h-102v727z" />
<glyph unicode="&#x143;" horiz-adv-x="1433" d="M174 0v1434h102l879 -1254v1254h105v-1434h-105l-876 1255v-1255h-105zM668 1530l149 289h119l-174 -289h-94z" />
<glyph unicode="&#x144;" horiz-adv-x="1110" d="M154 0v1063h102v-168q41 83 132 139t200 56q167 0 273 -108.5t106 -291.5v-690h-103v682q0 144 -81 228.5t-208 84.5q-140 0 -229.5 -96t-89.5 -250v-649h-102zM487 1196l150 289h119l-174 -289h-95z" />
<glyph unicode="&#x145;" horiz-adv-x="1433" d="M174 0v1434h102l879 -1254v1254h105v-1434h-105l-876 1255v-1255h-105zM625 -381q74 69 84 139q-33 3 -55.5 27t-22.5 57q0 36 23.5 61t58.5 25q40 0 65 -26t25 -66q0 -84 -32.5 -146t-90.5 -120z" />
<glyph unicode="&#x146;" horiz-adv-x="1110" d="M154 0v1063h102v-168q41 83 132 139t200 56q167 0 273 -108.5t106 -291.5v-690h-103v682q0 144 -81 228.5t-208 84.5q-140 0 -229.5 -96t-89.5 -250v-649h-102zM465 -381q74 69 84 139q-33 3 -55.5 27t-22.5 57q0 36 23.5 61t58.5 25q40 0 65 -26t25 -66 q0 -84 -32.5 -146t-90.5 -120z" />
<glyph unicode="&#x147;" horiz-adv-x="1433" d="M174 0v1434h102l879 -1254v1254h105v-1434h-105l-876 1255v-1255h-105zM469 1802h109l139 -180l139 180h109l-191 -256h-115z" />
<glyph unicode="&#x148;" horiz-adv-x="1110" d="M154 0v1063h102v-168q41 83 132 139t200 56q167 0 273 -108.5t106 -291.5v-690h-103v682q0 144 -81 228.5t-208 84.5q-140 0 -229.5 -96t-89.5 -250v-649h-102zM340 1483h109l139 -180l139 180h109l-191 -256h-115z" />
<glyph unicode="&#x149;" horiz-adv-x="1110" d="M-14 1145q74 69 84 139q-33 3 -55.5 27t-22.5 57q0 36 23.5 61t58.5 25q40 0 65 -26t25 -66q0 -84 -32.5 -146t-90.5 -120zM154 0v1063h102v-168q41 83 132 139t200 56q167 0 273 -108.5t106 -291.5v-690h-103v682q0 144 -81 228.5t-208 84.5q-140 0 -229.5 -96 t-89.5 -250v-649h-102z" />
<glyph unicode="&#x14a;" horiz-adv-x="1433" d="M174 0v1434h102l879 -1264v1264h105v-1502q0 -153 -74.5 -237t-218.5 -84q-42 0 -82.5 5t-60.5 10l-19 5l10 95q65 -21 143 -21q197 0 197 234v61l-876 1266v-1266h-105z" />
<glyph unicode="&#x14b;" horiz-adv-x="1110" d="M154 0v1063h102v-168q41 83 132 139t200 56q167 0 273 -108.5t106 -291.5v-733q0 -96 -23 -165t-64.5 -107.5t-92.5 -56t-113 -17.5l-49 2v92q25 -2 45 -2q97 0 145.5 61t48.5 191v727q0 144 -81 228.5t-208 84.5q-140 0 -229.5 -96t-89.5 -250v-649h-102z" />
<glyph unicode="&#x14c;" horiz-adv-x="1622" d="M86 717q0 156 57 294.5t154 236.5t231 155t283 57q200 0 366.5 -97.5t262.5 -268t96 -377.5q0 -155 -57 -293.5t-154 -237t-231.5 -156t-284.5 -57.5q-199 0 -364.5 96t-262 267t-96.5 381zM195 717q0 -183 81 -331t222 -231t313 -83q128 0 242 48.5t196 133.5t130 205.5 t48 257.5q0 181 -81.5 329.5t-222.5 232t-312 83.5q-129 0 -243 -49.5t-196 -134.5t-129.5 -205t-47.5 -256zM575 1581v90h472v-90h-472z" />
<glyph unicode="&#x14d;" horiz-adv-x="1245" d="M78 532q0 157 71 285t196.5 200.5t279.5 72.5t279 -73.5t195 -201t70 -283.5q0 -239 -156.5 -399t-389.5 -160q-235 0 -390 158.5t-155 400.5zM184 532q0 -200 123 -331t316 -131t316.5 131t123.5 331q0 197 -123.5 329t-316.5 132q-192 0 -315.5 -132t-123.5 -329z M395 1315v90h471v-90h-471z" />
<glyph unicode="&#x14e;" horiz-adv-x="1622" d="M86 717q0 156 57 294.5t154 236.5t231 155t283 57q200 0 366.5 -97.5t262.5 -268t96 -377.5q0 -155 -57 -293.5t-154 -237t-231.5 -156t-284.5 -57.5q-199 0 -364.5 96t-262 267t-96.5 381zM195 717q0 -183 81 -331t222 -231t313 -83q128 0 242 48.5t196 133.5t130 205.5 t48 257.5q0 181 -81.5 329.5t-222.5 232t-312 83.5q-129 0 -243 -49.5t-196 -134.5t-129.5 -205t-47.5 -256zM586 1778h92q0 -70 35.5 -113t107.5 -43t108 43t36 113h92q0 -104 -61.5 -173t-174.5 -69t-174 69t-61 173z" />
<glyph unicode="&#x14f;" horiz-adv-x="1245" d="M78 532q0 157 71 285t196.5 200.5t279.5 72.5t279 -73.5t195 -201t70 -283.5q0 -239 -156.5 -399t-389.5 -160q-235 0 -390 158.5t-155 400.5zM184 532q0 -200 123 -331t316 -131t316.5 131t123.5 331q0 197 -123.5 329t-316.5 132q-192 0 -315.5 -132t-123.5 -329z M387 1450h92q0 -70 36 -113t108 -43t107.5 43t35.5 113h92q0 -104 -61 -173t-174 -69t-174.5 69t-61.5 173z" />
<glyph unicode="&#x150;" horiz-adv-x="1622" d="M86 717q0 156 57 294.5t154 236.5t231 155t283 57q200 0 366.5 -97.5t262.5 -268t96 -377.5q0 -155 -57 -293.5t-154 -237t-231.5 -156t-284.5 -57.5q-199 0 -364.5 96t-262 267t-96.5 381zM195 717q0 -183 81 -331t222 -231t313 -83q128 0 242 48.5t196 133.5t130 205.5 t48 257.5q0 181 -81.5 329.5t-222.5 232t-312 83.5q-129 0 -243 -49.5t-196 -134.5t-129.5 -205t-47.5 -256zM635 1530l149 289h119l-174 -289h-94zM868 1530l150 289h119l-174 -289h-95z" />
<glyph unicode="&#x151;" horiz-adv-x="1245" d="M78 532q0 157 71 285t196.5 200.5t279.5 72.5t279 -73.5t195 -201t70 -283.5q0 -239 -156.5 -399t-389.5 -160q-235 0 -390 158.5t-155 400.5zM184 532q0 -200 123 -331t316 -131t316.5 131t123.5 331q0 197 -123.5 329t-316.5 132q-192 0 -315.5 -132t-123.5 -329z M444 1196l150 289h119l-174 -289h-95zM678 1196l149 289h119l-174 -289h-94z" />
<glyph unicode="&#x152;" horiz-adv-x="2213" d="M86 717q0 156 57 294.5t154 236.5t231 155t283 57q96 0 195 -26h1062v-97h-854q136 -93 221.5 -238t98.5 -319h467v-96h-467q-7 -186 -92.5 -339t-227.5 -249h877v-96h-1085q-106 -27 -197 -27q-199 0 -364.5 96t-262 267t-96.5 381zM195 717q0 -183 81 -331t222 -231 t313 -83q128 0 242 48.5t196 133.5t130 205.5t48 257.5q0 181 -81.5 329.5t-222.5 232t-312 83.5q-129 0 -243 -49.5t-196 -134.5t-129.5 -205t-47.5 -256z" />
<glyph unicode="&#x153;" horiz-adv-x="2148" d="M78 532q0 157 71 285t196.5 200.5t279.5 72.5q164 0 293.5 -83.5t195.5 -224.5q62 144 186.5 226t274.5 82q225 0 362.5 -150.5t137.5 -382.5v-43h-906q0 -211 120 -328.5t315 -117.5q237 0 366 182l68 -47q-39 -62 -92.5 -110.5t-143.5 -84t-198 -35.5q-169 0 -298.5 82 t-191.5 226q-65 -141 -196 -224.5t-295 -83.5q-235 0 -390 158.5t-155 400.5zM184 532q0 -200 123 -331t316 -131t316.5 131t123.5 331q0 197 -123.5 329t-316.5 132q-192 0 -315.5 -132t-123.5 -329zM1176 604h792q-9 190 -121.5 290.5t-273.5 100.5q-74 0 -141 -25 t-122 -72.5t-91 -123.5t-43 -170z" />
<glyph unicode="&#x154;" horiz-adv-x="1081" d="M174 0v1434h330q102 0 184.5 -31.5t135 -85.5t80.5 -124t28 -149q0 -131 -72.5 -229.5t-193.5 -138.5l364 -676h-117l-346 655h-288v-655h-105zM279 750h229q145 0 229 79t84 215q0 131 -84.5 212t-234.5 81h-223v-587zM455 1530l149 289h119l-174 -289h-94z" />
<glyph unicode="&#x155;" horiz-adv-x="647" d="M154 0v1063h102v-191q27 87 117 152.5t211 65.5v-101q-91 0 -157 -35t-102 -97t-52.5 -135t-16.5 -161v-561h-102zM276 1196l150 289h119l-174 -289h-95z" />
<glyph unicode="&#x156;" horiz-adv-x="1081" d="M174 0v1434h330q102 0 184.5 -31.5t135 -85.5t80.5 -124t28 -149q0 -131 -72.5 -229.5t-193.5 -138.5l364 -676h-117l-346 655h-288v-655h-105zM279 750h229q145 0 229 79t84 215q0 131 -84.5 212t-234.5 81h-223v-587zM465 -381q74 69 84 139q-33 3 -55.5 27t-22.5 57 q0 36 23.5 61t58.5 25q40 0 65 -26t25 -66q0 -84 -32.5 -146t-90.5 -120z" />
<glyph unicode="&#x157;" horiz-adv-x="647" d="M139 -381q74 69 84 139q-33 3 -55.5 27t-22.5 57q0 36 23.5 61t58.5 25q40 0 65 -26t25 -66q0 -85 -32 -146.5t-90 -119.5zM154 0v1063h102v-191q27 87 117 152.5t211 65.5v-101q-91 0 -157 -35t-102 -97t-52.5 -135t-16.5 -161v-561h-102z" />
<glyph unicode="&#x158;" horiz-adv-x="1081" d="M174 0v1434h330q102 0 184.5 -31.5t135 -85.5t80.5 -124t28 -149q0 -131 -72.5 -229.5t-193.5 -138.5l364 -676h-117l-346 655h-288v-655h-105zM262 1802h109l139 -180l139 180h109l-191 -256h-114zM279 750h229q145 0 229 79t84 215q0 131 -84.5 212t-234.5 81h-223 v-587z" />
<glyph unicode="&#x159;" horiz-adv-x="647" d="M102 1483h109l139 -180l139 180h109l-190 -256h-115zM154 0v1063h102v-191q27 87 117 152.5t211 65.5v-101q-91 0 -157 -35t-102 -97t-52.5 -135t-16.5 -161v-561h-102z" />
<glyph unicode="&#x15a;" horiz-adv-x="1021" d="M82 281l90 32q84 -243 348 -243q132 0 217.5 76.5t85.5 205.5q0 84 -38.5 148t-100 104.5t-135.5 75.5t-148 71.5t-135.5 81t-100 116t-38.5 165.5q0 147 105 246.5t282 99.5q85 0 155.5 -26t116 -67.5t73 -81t42.5 -79.5l-88 -32q-15 33 -37.5 63t-58 61t-88.5 49.5 t-115 18.5q-134 0 -208.5 -72.5t-74.5 -181.5q0 -59 24 -108t64.5 -83.5t93 -65t110 -58t115.5 -56t110.5 -64.5t93 -79t64.5 -104.5t24 -135.5q0 -164 -113 -274.5t-299 -110.5q-76 0 -141.5 18t-112 47.5t-83.5 71t-60 83t-39 88.5zM442 1530l150 289h119l-174 -289h-95z " />
<glyph unicode="&#x15b;" horiz-adv-x="837" d="M70 217l88 35q81 -186 274 -186q96 0 164 56t68 150q0 58 -30.5 101.5t-78.5 71t-106.5 51t-117.5 49.5t-107 59t-78.5 86.5t-30.5 124.5q0 125 89.5 200t227.5 75q70 0 127.5 -20.5t93.5 -54t58 -67.5t32 -69l-84 -33q-13 30 -28 52.5t-41.5 48t-68.5 39t-97 13.5 q-89 0 -149 -48t-60 -130q0 -55 30.5 -96.5t78.5 -68t106.5 -49.5t117.5 -50t107 -61t78.5 -90t30.5 -130q0 -133 -95 -218t-241 -85q-81 0 -145 22t-105 61.5t-65 76.5t-43 84zM340 1196l149 289h119l-174 -289h-94z" />
<glyph unicode="&#x15c;" horiz-adv-x="1021" d="M82 281l90 32q84 -243 348 -243q132 0 217.5 76.5t85.5 205.5q0 84 -38.5 148t-100 104.5t-135.5 75.5t-148 71.5t-135.5 81t-100 116t-38.5 165.5q0 147 105 246.5t282 99.5q85 0 155.5 -26t116 -67.5t73 -81t42.5 -79.5l-88 -32q-15 33 -37.5 63t-58 61t-88.5 49.5 t-115 18.5q-134 0 -208.5 -72.5t-74.5 -181.5q0 -59 24 -108t64.5 -83.5t93 -65t110 -58t115.5 -56t110.5 -64.5t93 -79t64.5 -104.5t24 -135.5q0 -164 -113 -274.5t-299 -110.5q-76 0 -141.5 18t-112 47.5t-83.5 71t-60 83t-39 88.5zM264 1546l191 256h114l191 -256h-109 l-139 180l-139 -180h-109z" />
<glyph unicode="&#x15d;" horiz-adv-x="837" d="M70 217l88 35q81 -186 274 -186q96 0 164 56t68 150q0 58 -30.5 101.5t-78.5 71t-106.5 51t-117.5 49.5t-107 59t-78.5 86.5t-30.5 124.5q0 125 89.5 200t227.5 75q70 0 127.5 -20.5t93.5 -54t58 -67.5t32 -69l-84 -33q-13 30 -28 52.5t-41.5 48t-68.5 39t-97 13.5 q-89 0 -149 -48t-60 -130q0 -55 30.5 -96.5t78.5 -68t106.5 -49.5t117.5 -50t107 -61t78.5 -90t30.5 -130q0 -133 -95 -218t-241 -85q-81 0 -145 22t-105 61.5t-65 76.5t-43 84zM184 1227l191 256h114l191 -256h-109l-139 180l-139 -180h-109z" />
<glyph unicode="&#x15e;" horiz-adv-x="1021" d="M82 281l90 32q84 -243 348 -243q132 0 217.5 76.5t85.5 205.5q0 84 -38.5 148t-100 104.5t-135.5 75.5t-148 71.5t-135.5 81t-100 116t-38.5 165.5q0 147 105 246.5t282 99.5q85 0 155.5 -26t116 -67.5t73 -81t42.5 -79.5l-88 -32q-15 33 -37.5 63t-58 61t-88.5 49.5 t-115 18.5q-134 0 -208.5 -72.5t-74.5 -181.5q0 -59 24 -108t64.5 -83.5t93 -65t110 -58t115.5 -56t110.5 -64.5t93 -79t64.5 -104.5t24 -135.5q0 -157 -105 -265.5t-280 -117.5l-10 -79q81 -10 124 -54t43 -114q0 -93 -63 -137t-158 -44l-69 7l12 84q40 -5 59 -5 q127 0 127 93q0 92 -131 92h-33l19 157q-82 7 -148.5 36t-112 73.5t-75 93t-47.5 103.5z" />
<glyph unicode="&#x15f;" horiz-adv-x="837" d="M70 217l88 35q81 -186 274 -186q96 0 164 56t68 150q0 58 -30.5 101.5t-78.5 71t-106.5 51t-117.5 49.5t-107 59t-78.5 86.5t-30.5 124.5q0 125 89.5 200t227.5 75q70 0 128.5 -21.5t95 -55t58.5 -68t29 -66.5l-84 -33q-13 30 -28 52.5t-41.5 48t-68.5 39t-97 13.5 q-89 0 -149 -48t-60 -130q0 -55 30.5 -96.5t78.5 -68t106.5 -49.5t117.5 -50t107 -61t78.5 -90t30.5 -130q0 -128 -88.5 -211.5t-226.5 -89.5l-11 -79q81 -10 124.5 -54t43.5 -114q0 -93 -63 -137t-158 -44l-70 7l13 84q40 -5 59 -5q127 0 127 93q0 92 -131 92h-33l19 159 q-213 23 -299 240z" />
<glyph unicode="&#x160;" horiz-adv-x="1021" d="M82 281l90 32q84 -243 348 -243q132 0 217.5 76.5t85.5 205.5q0 84 -38.5 148t-100 104.5t-135.5 75.5t-148 71.5t-135.5 81t-100 116t-38.5 165.5q0 147 105 246.5t282 99.5q85 0 155.5 -26t116 -67.5t73 -81t42.5 -79.5l-88 -32q-15 33 -37.5 63t-58 61t-88.5 49.5 t-115 18.5q-134 0 -208.5 -72.5t-74.5 -181.5q0 -59 24 -108t64.5 -83.5t93 -65t110 -58t115.5 -56t110.5 -64.5t93 -79t64.5 -104.5t24 -135.5q0 -164 -113 -274.5t-299 -110.5q-76 0 -141.5 18t-112 47.5t-83.5 71t-60 83t-39 88.5zM260 1802h109l139 -180l139 180h109 l-191 -256h-114z" />
<glyph unicode="&#x161;" horiz-adv-x="837" d="M70 217l88 35q81 -186 274 -186q96 0 164 56t68 150q0 58 -30.5 101.5t-78.5 71t-106.5 51t-117.5 49.5t-107 59t-78.5 86.5t-30.5 124.5q0 125 89.5 200t227.5 75q70 0 127.5 -20.5t93.5 -54t58 -67.5t32 -69l-84 -33q-13 30 -28 52.5t-41.5 48t-68.5 39t-97 13.5 q-89 0 -149 -48t-60 -130q0 -55 30.5 -96.5t78.5 -68t106.5 -49.5t117.5 -50t107 -61t78.5 -90t30.5 -130q0 -133 -95 -218t-241 -85q-81 0 -145 22t-105 61.5t-65 76.5t-43 84zM186 1483h109l139 -180l139 180h109l-190 -256h-115z" />
<glyph unicode="&#x162;" horiz-adv-x="1046" d="M45 1337v97h928v-97h-412v-1337h-14l-15 -104q81 -10 124.5 -54t43.5 -114q0 -93 -63 -137t-158 -44l-69 7l12 84q40 -5 59 -5q127 0 127 93q0 92 -131 92h-33l23 182h-10v1337h-412z" />
<glyph unicode="&#x163;" horiz-adv-x="567" d="M29 971v92h131v221h102v-221h250v-92h-250v-598q0 -171 45.5 -231t167.5 -60l47 2v-92q-49 -4 -88 -4q-21 0 -49 4l-14 -96q81 -10 124.5 -54t43.5 -114q0 -93 -63.5 -137t-158.5 -44l-69 7l12 84q40 -5 59 -5q127 0 127 93q0 92 -131 92h-32l22 194q-145 68 -145 295 v664h-131z" />
<glyph unicode="&#x164;" horiz-adv-x="1046" d="M45 1337v97h928v-97h-412v-1337h-104v1337h-412zM281 1802h108l139 -180l140 180h108l-190 -256h-115z" />
<glyph unicode="&#x165;" horiz-adv-x="569" d="M29 971v92h131v221h102v-221h250v-92h-250v-598q0 -171 45.5 -231t167.5 -60l47 2v-92q-49 -4 -88 -4q-129 0 -201.5 80.5t-72.5 238.5v664h-131zM362 1141l29 340h96l-49 -340h-76z" />
<glyph unicode="&#x166;" horiz-adv-x="1046" d="M45 1337v97h928v-97h-412v-510h270v-92h-270v-735h-104v735h-271v92h271v510h-412z" />
<glyph unicode="&#x167;" horiz-adv-x="567" d="M29 971v92h131v221h102v-221h250v-92h-250v-269h250v-90h-250v-239q0 -171 45.5 -231t167.5 -60l47 2v-92q-49 -4 -88 -4q-129 0 -201.5 80.5t-72.5 238.5v305h-127v90h127v269h-131z" />
<glyph unicode="&#x168;" horiz-adv-x="1359" d="M164 504v930h104v-928q0 -203 106 -318.5t306 -115.5t306 115.5t106 318.5v928h104v-930q0 -245 -136 -388t-380 -143t-380 143t-136 388zM385 1571q0 85 49 135.5t125 50.5q43 0 91 -24.5t91.5 -49t75.5 -24.5q36 0 59.5 26.5t24.5 71.5h84q0 -84 -47.5 -136t-124.5 -52 q-44 0 -91 24.5t-90.5 49t-78.5 24.5q-36 0 -58.5 -26t-23.5 -70h-86z" />
<glyph unicode="&#x169;" horiz-adv-x="1099" d="M143 373v690h103v-682q0 -144 81 -228.5t208 -84.5q140 0 229.5 96t89.5 250v649h102v-1063h-102v168q-41 -83 -132 -139t-200 -56q-167 0 -273 108.5t-106 291.5zM258 1249q0 85 49 136t125 51q43 0 91 -25t91.5 -49.5t75.5 -24.5q36 0 59.5 27t24.5 72h84 q0 -85 -47.5 -137t-124.5 -52q-35 0 -72.5 15.5t-64.5 34t-61 34t-62 15.5q-35 0 -58 -26.5t-24 -70.5h-86z" />
<glyph unicode="&#x16a;" horiz-adv-x="1359" d="M164 504v930h104v-928q0 -203 106 -318.5t306 -115.5t306 115.5t106 318.5v928h104v-930q0 -245 -136 -388t-380 -143t-380 143t-136 388zM467 1581v90h471v-90h-471z" />
<glyph unicode="&#x16b;" horiz-adv-x="1099" d="M143 373v690h103v-682q0 -144 81 -228.5t208 -84.5q140 0 229.5 96t89.5 250v649h102v-1063h-102v168q-41 -83 -132 -139t-200 -56q-167 0 -273 108.5t-106 291.5zM326 1315v90h471v-90h-471z" />
<glyph unicode="&#x16c;" horiz-adv-x="1359" d="M164 504v930h104v-928q0 -203 106 -318.5t306 -115.5t306 115.5t106 318.5v928h104v-930q0 -245 -136 -388t-380 -143t-380 143t-136 388zM451 1778h92q0 -70 35.5 -113t107.5 -43t107.5 43t35.5 113h93q0 -104 -61.5 -173t-174.5 -69t-174 69t-61 173z" />
<glyph unicode="&#x16d;" horiz-adv-x="1099" d="M143 373v690h103v-682q0 -144 81 -228.5t208 -84.5q140 0 229.5 96t89.5 250v649h102v-1063h-102v168q-41 -83 -132 -139t-200 -56q-167 0 -273 108.5t-106 291.5zM319 1450h93q0 -70 35.5 -113t107.5 -43t107.5 43t35.5 113h93q0 -104 -61.5 -173t-174.5 -69t-174.5 69 t-61.5 173z" />
<glyph unicode="&#x16e;" horiz-adv-x="1359" d="M164 504v930h104v-928q0 -203 106 -318.5t306 -115.5t306 115.5t106 318.5v928h104v-930q0 -245 -136 -388t-380 -143t-380 143t-136 388zM526 1690q0 72 47 118.5t119 46.5q76 0 123 -46t47 -117q0 -72 -47.5 -120t-120.5 -48t-120.5 47.5t-47.5 118.5zM606 1690 q0 -39 24.5 -63.5t63.5 -24.5q41 0 64.5 25t23.5 65q0 39 -24 63.5t-66 24.5q-38 0 -62 -25t-24 -65z" />
<glyph unicode="&#x16f;" horiz-adv-x="1099" d="M143 373v690h103v-682q0 -144 81 -228.5t208 -84.5q140 0 229.5 96t89.5 250v649h102v-1063h-102v168q-41 -83 -132 -139t-200 -56q-167 0 -273 108.5t-106 291.5zM389 1360q0 72 47 119t119 47q76 0 123 -46.5t47 -117.5q0 -72 -47.5 -120t-120.5 -48t-120.5 47.5 t-47.5 118.5zM469 1360q0 -39 24.5 -63.5t63.5 -24.5q41 0 64.5 25t23.5 65q0 39 -24 63.5t-66 24.5q-38 0 -62 -25t-24 -65z" />
<glyph unicode="&#x170;" horiz-adv-x="1359" d="M164 504v930h104v-928q0 -203 106 -318.5t306 -115.5t306 115.5t106 318.5v928h104v-930q0 -245 -136 -388t-380 -143t-380 143t-136 388zM489 1530l150 289h119l-174 -289h-95zM723 1530l149 289h119l-174 -289h-94z" />
<glyph unicode="&#x171;" horiz-adv-x="1099" d="M143 373v690h103v-682q0 -144 81 -228.5t208 -84.5q140 0 229.5 96t89.5 250v649h102v-1063h-102v168q-41 -83 -132 -139t-200 -56q-167 0 -273 108.5t-106 291.5zM356 1196l150 289h119l-174 -289h-95zM590 1196l149 289h119l-174 -289h-94z" />
<glyph unicode="&#x172;" horiz-adv-x="1359" d="M164 504v930h104v-928q0 -203 106 -318.5t306 -115.5t306 115.5t106 318.5v928h104v-930q0 -191 -85 -323t-243 -181q-48 -18 -103.5 -71t-55.5 -117q0 -60 44 -86.5t103 -26.5v-86q-43 0 -84.5 9.5t-80 29.5t-62 58t-23.5 89t30.5 96.5t74.5 77.5h-31q-244 0 -380 143 t-136 388z" />
<glyph unicode="&#x173;" horiz-adv-x="1099" d="M143 373v690h103v-682q0 -144 81 -228.5t208 -84.5q140 0 229.5 96t89.5 250v649h102v-1063q-48 -18 -103.5 -71t-55.5 -117q0 -60 44 -86.5t103 -26.5v-86q-43 0 -84.5 9.5t-80 29.5t-62 58t-23.5 89q0 65 52 122.5t108 82.5v164q-41 -83 -132 -139t-200 -56 q-167 0 -273 108.5t-106 291.5z" />
<glyph unicode="&#x174;" horiz-adv-x="1896" d="M27 1434h110l369 -1293l385 1293h115l385 -1293l368 1293h111l-420 -1434h-115l-387 1286l-387 -1286h-115zM705 1546l190 256h115l190 -256h-108l-140 180l-139 -180h-108z" />
<glyph unicode="&#x175;" horiz-adv-x="1658" d="M14 1063h111l324 -936q2 8 327 936h107l327 -936l324 936h111l-379 -1063h-109l-328 926l-327 -926h-109zM584 1227l190 256h115l190 -256h-108l-140 180l-139 -180h-108z" />
<glyph unicode="&#x176;" horiz-adv-x="1038" d="M23 1434h120l377 -650l381 650h117l-447 -752v-682h-104v682zM274 1546l191 256h115l190 -256h-108l-140 180l-139 -180h-109z" />
<glyph unicode="&#x177;" horiz-adv-x="1009" d="M14 1063h113l385 -936l373 936h110l-585 -1430h-107l156 369zM268 1227l191 256h114l191 -256h-109l-139 180l-139 -180h-109z" />
<glyph unicode="&#x178;" horiz-adv-x="1038" d="M23 1434h120l377 -650l381 650h117l-447 -752v-682h-104v682zM283 1708q0 35 24.5 59.5t59.5 24.5t59.5 -24.5t24.5 -59.5t-24.5 -59.5t-59.5 -24.5t-59.5 24.5t-24.5 59.5zM594 1708q0 35 24.5 59.5t59.5 24.5t59.5 -24.5t24.5 -59.5t-24.5 -59.5t-59.5 -24.5 t-59.5 24.5t-24.5 59.5z" />
<glyph unicode="&#x179;" horiz-adv-x="1208" d="M76 0v88l913 1249h-885v97h1014v-91l-913 -1247h917v-96h-1046zM543 1530l149 289h119l-174 -289h-94z" />
<glyph unicode="&#x17a;" horiz-adv-x="942" d="M70 0v86l665 887h-643v90h764v-86l-663 -887h673v-90h-796zM377 1196l149 289h119l-174 -289h-94z" />
<glyph unicode="&#x17b;" horiz-adv-x="1208" d="M76 0v88l913 1249h-885v97h1014v-91l-913 -1247h917v-96h-1046zM524 1663q0 35 24.5 59.5t59.5 24.5t59.5 -24.5t24.5 -59.5t-24.5 -59.5t-59.5 -24.5t-59.5 24.5t-24.5 59.5z" />
<glyph unicode="&#x17c;" horiz-adv-x="942" d="M70 0v86l665 887h-643v90h764v-86l-663 -887h673v-90h-796zM387 1346q0 35 24.5 59.5t59.5 24.5t59.5 -24.5t24.5 -59.5t-24.5 -59.5t-59.5 -24.5t-59.5 24.5t-24.5 59.5z" />
<glyph unicode="&#x17d;" horiz-adv-x="1208" d="M76 0v88l913 1249h-885v97h1014v-91l-913 -1247h917v-96h-1046zM356 1802h109l139 -180l139 180h109l-190 -256h-115z" />
<glyph unicode="&#x17e;" horiz-adv-x="942" d="M70 0v86l665 887h-643v90h764v-86l-663 -887h673v-90h-796zM223 1483h109l139 -180l139 180h109l-191 -256h-114z" />
<glyph unicode="&#x192;" horiz-adv-x="911" d="M-90 -381l14 92q50 -12 107 -12q98 0 155 70t78 231l101 748h-156v92h168l41 276q14 93 47.5 160.5t81 103.5t97 52t106.5 16q29 0 57.5 -3t42.5 -6l14 -3l-14 -93q-50 13 -107 13q-99 0 -153.5 -61t-75.5 -212l-35 -243h236v-92h-248l-111 -809q-13 -92 -46 -159 t-80.5 -103.5t-98 -53t-106.5 -16.5q-29 0 -58 3t-43 6z" />
<glyph unicode="&#x1fa;" horiz-adv-x="1261" d="M31 0l526 1372q-44 21 -69 60.5t-25 91.5q0 72 47 119t119 47q76 0 123 -46.5t47 -117.5q0 -52 -25.5 -92.5t-68.5 -61.5l526 -1372h-107l-194 514h-598l-195 -514h-106zM369 610h524l-262 705zM543 1524q0 -39 24.5 -63.5t63.5 -24.5q41 0 64.5 25t23.5 65 q0 39 -24 63.5t-66 24.5q-38 0 -62 -25t-24 -65zM575 1745l150 289h119l-174 -289h-95z" />
<glyph unicode="&#x1fb;" horiz-adv-x="1028" d="M80 326q0 151 115 249.5t292 98.5q100 0 183 -35t123 -80v162q0 131 -79 202.5t-212 71.5q-167 0 -328 -98l-43 80q174 113 377 113q192 0 289.5 -101.5t97.5 -273.5v-715h-84l-18 100q-110 -127 -306 -127q-179 0 -293 101.5t-114 251.5zM184 326q0 -109 85.5 -183.5 t224.5 -74.5q134 0 219.5 73.5t85.5 184.5q0 114 -84 184t-223 70q-138 0 -223 -72.5t-85 -181.5zM346 1360q0 72 47 119t119 47q76 0 123 -46.5t47 -117.5q0 -72 -47.5 -120t-120.5 -48t-120.5 47.5t-47.5 118.5zM426 1360q0 -39 24.5 -63.5t63.5 -24.5q41 0 64.5 25 t23.5 65q0 39 -24 63.5t-66 24.5q-38 0 -62 -25t-24 -65zM455 1589l149 289h119l-174 -289h-94z" />
<glyph unicode="&#x1fc;" horiz-adv-x="1613" d="M18 0l721 1434h738v-97h-549v-557h481v-96h-481v-588h571v-96h-676v514h-442l-250 -514h-113zM430 610h393v727h-39zM915 1530l150 289h119l-174 -289h-95z" />
<glyph unicode="&#x1fd;" horiz-adv-x="1871" d="M80 326q0 151 115 249.5t292 98.5q100 0 183 -35t123 -80v162q0 131 -79 202.5t-212 71.5q-167 0 -328 -98l-43 80q174 113 377 113q151 0 244 -65t125 -179q69 116 179.5 180t241.5 64q225 0 362.5 -150.5t137.5 -382.5v-43h-905q0 -208 120 -327t314 -119 q238 0 367 182l67 -47q-39 -62 -92.5 -110.5t-143.5 -84t-198 -35.5q-156 0 -277 65.5t-182 188.5q-32 -101 -131 -177.5t-250 -76.5q-179 0 -293 101.5t-114 251.5zM184 326q0 -109 85.5 -183.5t224.5 -74.5q133 0 216 73t83 185q0 115 -81.5 184.5t-219.5 69.5t-223 -72.5 t-85 -181.5zM838 1196l149 289h119l-174 -289h-94zM899 604h793q-9 190 -122 290.5t-274 100.5q-74 0 -141 -25t-122 -72.5t-91 -123.5t-43 -170z" />
<glyph unicode="&#x1fe;" horiz-adv-x="1624" d="M88 717q0 156 57 294.5t154 236.5t231 155t283 57q229 0 416 -131l110 139l78 -61l-110 -141q109 -101 170 -243.5t61 -305.5q0 -155 -57 -293.5t-154 -237t-231.5 -156t-284.5 -57.5q-234 0 -418 129l-106 -137l-78 60l108 139q-108 102 -168.5 244.5t-60.5 308.5z M197 717q0 -141 48.5 -262.5t137.5 -208.5l784 1003q-154 113 -354 113q-129 0 -243 -49.5t-196 -134.5t-129.5 -205t-47.5 -256zM457 182q153 -110 356 -110q128 0 242 49t196.5 133.5t130.5 205t48 257.5q0 138 -49.5 258.5t-137.5 210.5zM731 1530l150 289h118l-174 -289 h-94z" />
<glyph unicode="&#x1ff;" horiz-adv-x="1247" d="M78 532q0 157 71 285t196.5 200.5t279.5 72.5q169 0 311 -95l78 101l76 -62l-80 -100q76 -76 117.5 -179.5t41.5 -222.5q0 -239 -156.5 -399t-389.5 -160q-169 0 -299 82l-76 -96l-74 59l76 97q-81 77 -126.5 184t-45.5 233zM184 532q0 -204 127 -337l563 723 q-112 75 -251 75q-192 0 -315.5 -132t-123.5 -329zM385 135q103 -65 238 -65q193 0 316.5 131t123.5 331q0 190 -117 320zM545 1196l149 289h119l-174 -289h-94z" />
<glyph unicode="&#x218;" horiz-adv-x="1021" d="M82 281l90 32q84 -243 348 -243q132 0 217.5 76.5t85.5 205.5q0 84 -38.5 148t-100 104.5t-135.5 75.5t-148 71.5t-135.5 81t-100 116t-38.5 165.5q0 147 105 246.5t282 99.5q85 0 155.5 -26t116 -67.5t73 -81t42.5 -79.5l-88 -32q-15 33 -37.5 63t-58 61t-88.5 49.5 t-115 18.5q-134 0 -208.5 -72.5t-74.5 -181.5q0 -59 24 -108t64.5 -83.5t93 -65t110 -58t115.5 -56t110.5 -64.5t93 -79t64.5 -104.5t24 -135.5q0 -164 -113 -274.5t-299 -110.5q-76 0 -141.5 18t-112 47.5t-83.5 71t-60 83t-39 88.5zM432 -381q74 69 84 139q-33 3 -55.5 27 t-22.5 57q0 36 23.5 61t58.5 25q40 0 65 -26t25 -66q0 -84 -32.5 -146t-90.5 -120z" />
<glyph unicode="&#x219;" horiz-adv-x="837" d="M70 217l88 35q81 -186 274 -186q96 0 164 56t68 150q0 58 -30.5 101.5t-78.5 71t-106.5 51t-117.5 49.5t-107 59t-78.5 86.5t-30.5 124.5q0 125 89.5 200t227.5 75q70 0 127.5 -20.5t93.5 -54t58 -67.5t32 -69l-84 -33q-13 30 -28 52.5t-41.5 48t-68.5 39t-97 13.5 q-89 0 -149 -48t-60 -130q0 -55 30.5 -96.5t78.5 -68t106.5 -49.5t117.5 -50t107 -61t78.5 -90t30.5 -130q0 -133 -95 -218t-241 -85q-81 0 -145 22t-105 61.5t-65 76.5t-43 84zM344 -381q74 69 84 139q-33 3 -55.5 27t-22.5 57q0 36 23.5 61t58.5 25q40 0 65 -26t25 -66 q0 -84 -32.5 -146t-90.5 -120z" />
<glyph unicode="&#x21a;" horiz-adv-x="1046" d="M45 1337v97h928v-97h-412v-1337h-104v1337h-412zM418 -381q74 69 84 139q-33 3 -55.5 27t-22.5 57q0 36 23.5 61t58.5 25q40 0 65 -26t25 -66q0 -84 -32.5 -146t-90.5 -120z" />
<glyph unicode="&#x21b;" horiz-adv-x="567" d="M29 971v92h131v221h102v-221h250v-92h-250v-598q0 -171 45.5 -231t167.5 -60l47 2v-92q-49 -4 -88 -4q-129 0 -201.5 80.5t-72.5 238.5v664h-131zM291 -381q74 69 84 139q-33 3 -55.5 27t-22.5 57q0 36 23.5 61t58.5 25q40 0 65 -26t25 -66q0 -84 -32.5 -146t-90.5 -120z " />
<glyph unicode="&#x237;" d="M-86 -295q25 -2 45 -2q195 0 195 252v1108h102v-1106q0 -96 -23 -165t-64.5 -107.5t-92.5 -56t-113 -17.5l-49 2v92z" />
<glyph unicode="&#x2c6;" horiz-adv-x="929" d="M217 1227l191 256h114l191 -256h-109l-139 180l-139 -180h-109z" />
<glyph unicode="&#x2c7;" horiz-adv-x="929" d="M217 1483h109l139 -180l139 180h109l-191 -256h-114z" />
<glyph unicode="&#x2d8;" horiz-adv-x="931" d="M229 1450h93q0 -70 35.5 -113t107.5 -43t107.5 43t35.5 113h92q0 -104 -61 -173t-174 -69t-174.5 69t-61.5 173z" />
<glyph unicode="&#x2d9;" horiz-adv-x="931" d="M381 1346q0 35 24.5 59.5t59.5 24.5t59.5 -24.5t24.5 -59.5t-24.5 -59.5t-59.5 -24.5t-59.5 24.5t-24.5 59.5z" />
<glyph unicode="&#x2da;" horiz-adv-x="931" d="M297 1360q0 72 47 119t119 47q76 0 123 -46.5t47 -117.5q0 -72 -47.5 -120t-120.5 -48t-120.5 47.5t-47.5 118.5zM377 1360q0 -39 24.5 -63.5t63.5 -24.5q41 0 64.5 25t23.5 65q0 39 -24 63.5t-66 24.5q-38 0 -62 -25t-24 -65z" />
<glyph unicode="&#x2db;" horiz-adv-x="929" d="M334 -201q0 65 47.5 120.5t101.5 80.5h113q-48 -18 -104 -71t-56 -117q0 -60 44 -86.5t104 -26.5v-86q-43 0 -84.5 9.5t-80 29.5t-62 58t-23.5 89z" />
<glyph unicode="&#x2dc;" horiz-adv-x="929" d="M164 1249q0 85 49 136t125 51q43 0 91 -25t91.5 -49.5t75.5 -24.5q36 0 59.5 27t24.5 72h84q0 -85 -47.5 -137t-124.5 -52q-35 0 -72.5 15.5t-64.5 34t-61 34t-62 15.5q-35 0 -58 -26.5t-24 -70.5h-86z" />
<glyph unicode="&#x2dd;" horiz-adv-x="929" d="M213 1196l149 289h119l-174 -289h-94zM446 1196l150 289h119l-174 -289h-95z" />
<glyph unicode="&#x1e80;" horiz-adv-x="1896" d="M27 1434h110l369 -1293l385 1293h115l385 -1293l368 1293h111l-420 -1434h-115l-387 1286l-387 -1286h-115zM735 1823h119l150 -289h-95z" />
<glyph unicode="&#x1e81;" horiz-adv-x="1658" d="M14 1063h111l324 -936q2 8 327 936h107l327 -936l324 936h111l-379 -1063h-109l-328 926l-327 -926h-109zM608 1485h119l150 -289h-95z" />
<glyph unicode="&#x1e82;" horiz-adv-x="1896" d="M27 1434h110l369 -1293l385 1293h115l385 -1293l368 1293h111l-420 -1434h-115l-387 1286l-387 -1286h-115zM887 1534l149 289h119l-174 -289h-94z" />
<glyph unicode="&#x1e83;" horiz-adv-x="1658" d="M14 1063h111l324 -936q2 8 327 936h107l327 -936l324 936h111l-379 -1063h-109l-328 926l-327 -926h-109zM766 1196l149 289h119l-174 -289h-94z" />
<glyph unicode="&#x1e84;" horiz-adv-x="1896" d="M27 1434h110l369 -1293l385 1293h115l385 -1293l368 1293h111l-420 -1434h-115l-387 1286l-387 -1286h-115zM709 1663q0 35 24.5 59.5t59.5 24.5t59.5 -24.5t24.5 -59.5t-24.5 -59.5t-59.5 -24.5t-59.5 24.5t-24.5 59.5zM1020 1663q0 35 24.5 59.5t59.5 24.5t59.5 -24.5 t24.5 -59.5t-24.5 -59.5t-59.5 -24.5t-59.5 24.5t-24.5 59.5z" />
<glyph unicode="&#x1e85;" horiz-adv-x="1658" d="M14 1063h111l324 -936q2 8 327 936h107l327 -936l324 936h111l-379 -1063h-109l-328 926l-327 -926h-109zM588 1337q0 35 24.5 59.5t59.5 24.5t59.5 -24.5t24.5 -59.5t-24.5 -59.5t-59.5 -24.5t-59.5 24.5t-24.5 59.5zM899 1337q0 35 24.5 59.5t59.5 24.5t59.5 -24.5 t24.5 -59.5t-24.5 -59.5t-59.5 -24.5t-59.5 24.5t-24.5 59.5z" />
<glyph unicode="&#x1ef2;" horiz-adv-x="1038" d="M23 1434h120l377 -650l381 650h117l-447 -752v-682h-104v682zM311 1823h119l150 -289h-95z" />
<glyph unicode="&#x1ef3;" horiz-adv-x="1009" d="M14 1063h113l385 -936l373 936h110l-585 -1430h-107l156 369zM324 1485h118l150 -289h-94z" />
<glyph unicode="&#x2000;" horiz-adv-x="1017" />
<glyph unicode="&#x2001;" horiz-adv-x="2034" />
<glyph unicode="&#x2002;" horiz-adv-x="1017" />
<glyph unicode="&#x2003;" horiz-adv-x="2034" />
<glyph unicode="&#x2004;" horiz-adv-x="678" />
<glyph unicode="&#x2005;" horiz-adv-x="508" />
<glyph unicode="&#x2006;" horiz-adv-x="339" />
<glyph unicode="&#x2007;" horiz-adv-x="339" />
<glyph unicode="&#x2008;" horiz-adv-x="254" />
<glyph unicode="&#x2009;" horiz-adv-x="406" />
<glyph unicode="&#x200a;" horiz-adv-x="113" />
<glyph unicode="&#x2010;" horiz-adv-x="661" d="M82 565v99h498v-99h-498z" />
<glyph unicode="&#x2011;" horiz-adv-x="661" d="M82 565v99h498v-99h-498z" />
<glyph unicode="&#x2012;" horiz-adv-x="661" d="M82 565v99h498v-99h-498z" />
<glyph unicode="&#x2013;" horiz-adv-x="1181" d="M82 565v92h1018v-92h-1018z" />
<glyph unicode="&#x2014;" horiz-adv-x="1720" d="M82 565v92h1556v-92h-1556z" />
<glyph unicode="&#x2018;" horiz-adv-x="337" d="M80 1186q0 84 32.5 146t90.5 120l55 -49q-74 -69 -84 -139q33 -3 55.5 -27t22.5 -57q0 -36 -23.5 -61t-58.5 -25q-40 0 -65 26t-25 66z" />
<glyph unicode="&#x2019;" horiz-adv-x="337" d="M80 1143q74 69 84 139q-33 3 -55.5 27t-22.5 57q0 36 23.5 61t58.5 25q40 0 65 -26t25 -66q0 -84 -32.5 -146t-90.5 -120z" />
<glyph unicode="&#x201a;" horiz-adv-x="401" d="M109 -164q74 69 84 139q-33 3 -55.5 27t-22.5 57q0 36 23.5 61t58.5 25q40 0 65 -26t25 -66q0 -84 -32.5 -146t-90.5 -120z" />
<glyph unicode="&#x201c;" horiz-adv-x="587" d="M80 1186q0 84 32.5 146t90.5 120l55 -49q-74 -69 -84 -139q33 -3 55.5 -27t22.5 -57q0 -36 -23.5 -61t-58.5 -25q-40 0 -65 26t-25 66zM330 1186q0 84 32.5 146t90.5 120l55 -49q-74 -69 -84 -139q33 -3 55.5 -27t22.5 -57q0 -36 -23.5 -61t-58.5 -25q-40 0 -65 26 t-25 66z" />
<glyph unicode="&#x201d;" horiz-adv-x="587" d="M80 1143q74 69 84 139q-33 3 -55.5 27t-22.5 57q0 36 23.5 61t58.5 25q40 0 65 -26t25 -66q0 -84 -32.5 -146t-90.5 -120zM330 1143q74 69 84 139q-33 3 -55.5 27t-22.5 57q0 36 23.5 61t58.5 25q40 0 65 -26t25 -66q0 -84 -32.5 -146t-90.5 -120z" />
<glyph unicode="&#x201e;" horiz-adv-x="587" d="M80 -164q74 69 84 139q-33 3 -55.5 27t-22.5 57q0 36 23.5 61t58.5 25q40 0 65 -26t25 -66q0 -84 -32.5 -146t-90.5 -120zM330 -164q74 69 84 139q-33 3 -55.5 27t-22.5 57q0 36 23.5 61t58.5 25q40 0 65 -26t25 -66q0 -84 -32.5 -146t-90.5 -120z" />
<glyph unicode="&#x2020;" horiz-adv-x="727" d="M76 975v92h233v367h103v-367h239v-92h-239v-975h-103v975h-233z" />
<glyph unicode="&#x2021;" horiz-adv-x="720" d="M76 410v92h233v430h-233v92h233v410h103v-410h239v-92h-239v-430h239v-92h-239v-410h-103v410h-233z" />
<glyph unicode="&#x2022;" horiz-adv-x="831" d="M63 635q0 148 101 250t252 102t251.5 -102t100.5 -250t-100.5 -250t-251.5 -102t-252 102t-101 250z" />
<glyph unicode="&#x202f;" horiz-adv-x="406" />
<glyph unicode="&#x2030;" horiz-adv-x="2217" d="M94 1159q0 126 85.5 213.5t213.5 87.5q132 0 219.5 -87t87.5 -214q0 -124 -88 -211.5t-217 -87.5q-128 0 -214.5 87t-86.5 212zM147 0l1096 1434h113l-1096 -1434h-113zM193 1159q0 -89 57 -149t147 -60q91 0 147 60t56 149q0 91 -57.5 152t-149.5 61q-88 0 -144 -61 t-56 -152zM801 272q0 126 85.5 213.5t213.5 87.5q132 0 219.5 -87.5t87.5 -213.5q0 -125 -87.5 -212t-217.5 -87q-128 0 -214.5 86.5t-86.5 212.5zM899 272q0 -90 57.5 -150.5t147.5 -60.5q91 0 147 60t56 151t-57.5 151t-149.5 60q-88 0 -144.5 -60.5t-56.5 -150.5z M1518 272q0 126 85.5 213.5t213.5 87.5q132 0 219.5 -87.5t87.5 -213.5q0 -125 -87.5 -212t-217.5 -87q-129 0 -215 86.5t-86 212.5zM1616 272q0 -90 57.5 -150.5t147.5 -60.5q91 0 146.5 60t55.5 151t-57 151t-149 60q-88 0 -144.5 -60.5t-56.5 -150.5z" />
<glyph unicode="&#x2039;" horiz-adv-x="520" d="M76 596l256 373h110l-256 -373l256 -371h-110z" />
<glyph unicode="&#x203a;" horiz-adv-x="520" d="M76 225l256 371l-256 373h110l256 -373l-256 -371h-110z" />
<glyph unicode="&#x2044;" horiz-adv-x="821" d="M-47 -84l813 1602h102l-813 -1602h-102z" />
<glyph unicode="&#x205f;" horiz-adv-x="508" />
<glyph unicode="&#x20ac;" horiz-adv-x="1267" d="M61 528v95h111q-6 46 -6 94q0 59 6 114h-111v93h129q60 237 240.5 386.5t427.5 149.5q194 0 324 -86l-47 -84q-123 72 -277 72q-204 0 -353 -120.5t-202 -317.5h625l-8 -93h-635q-9 -55 -9 -110q0 -40 7 -98h620l-6 -95h-596q25 -95 73 -176t116 -143.5t159.5 -98.5 t196.5 -36q99 0 181 26.5t130 59.5l47 -82q-46 -37 -146 -71t-212 -34q-128 0 -240.5 44.5t-194.5 122t-139 176.5t-84 212h-127z" />
<glyph unicode="&#x2116;" horiz-adv-x="2279" d="M190 0v1434h103l878 -1264v1264h105v-1434h-105l-876 1266v-1266h-105zM1460 1098q0 152 100.5 257t258.5 105t258 -104.5t100 -257.5t-100 -258t-258 -105t-258.5 105t-100.5 258zM1489 502v100h657v-100h-657zM1559 1098q0 -114 71.5 -191.5t188.5 -77.5t188.5 77.5 t71.5 191.5q0 113 -71.5 190.5t-188.5 77.5t-188.5 -77.5t-71.5 -190.5z" />
<glyph unicode="&#x2122;" horiz-adv-x="1443" d="M57 1350v84h480v-84h-197v-652h-88v652h-195zM621 698v736h100l283 -551l282 551h100v-736h-83v582l-254 -498h-91l-253 498v-582h-84z" />
<glyph unicode="&#x2212;" horiz-adv-x="1126" d="M86 592v92h954v-92h-954z" />
<glyph unicode="&#x25fc;" horiz-adv-x="1064" d="M0 0v1065h1065v-1065h-1065z" />
<glyph unicode="&#xf6c3;" horiz-adv-x="407" d="M117 -381q74 69 84 139q-33 3 -55.5 27t-22.5 57q0 36 23.5 61t58.5 25q40 0 65 -26t25 -66q0 -84 -32.5 -146t-90.5 -120z" />
<glyph horiz-adv-x="661" d="M82 670v98h498v-98h-498z" />
<glyph horiz-adv-x="1181" d="M82 676v92h1018v-92h-1018z" />
<glyph horiz-adv-x="1720" d="M82 676v92h1556v-92h-1556z" />
<glyph horiz-adv-x="815" d="M76 731l256 373h110l-256 -373l256 -371h-110zM371 731l256 373h110l-256 -373l256 -371h-110z" />
<glyph horiz-adv-x="815" d="M76 360l256 371l-256 373h110l256 -373l-256 -371h-110zM371 360l256 371l-256 373h110l256 -373l-256 -371h-110z" />
<glyph horiz-adv-x="520" d="M76 731l256 373h110l-256 -373l256 -371h-110z" />
<glyph horiz-adv-x="520" d="M76 360l256 371l-256 373h110l256 -373l-256 -371h-110z" />
<glyph horiz-adv-x="581" d="M160 51v1290q0 136 62.5 200.5t174.5 64.5h33v-90h-22q-85 0 -115.5 -48t-30.5 -137v-1270q0 -89 30.5 -136.5t115.5 -47.5h22v-90h-33q-112 0 -174.5 64t-62.5 200z" />
<glyph horiz-adv-x="581" d="M152 -123h22q85 0 115 47.5t30 136.5v1270q0 89 -30 137t-115 48h-22v90h32q112 0 175 -64.5t63 -200.5v-1290q0 -136 -63 -200t-175 -64h-32v90z" />
<glyph horiz-adv-x="598" d="M176 -213v1819h270v-90h-167v-1639h167v-90h-270z" />
<glyph horiz-adv-x="598" d="M152 -123h167v1639h-167v90h270v-1819h-270v90z" />
<glyph horiz-adv-x="653" d="M82 651v90q149 0 149 228v372q0 136 63 200.5t175 64.5h33v-90h-23q-85 0 -115 -48t-30 -137v-366q0 -56 -10 -102t-24 -74t-33 -49t-32 -30t-26 -14q17 -7 34 -21t40 -43t37 -82t14 -122v-367q0 -89 30 -136.5t115 -47.5h23v-90h-33q-112 0 -175 64t-63 200v373 q0 227 -149 227z" />
<glyph horiz-adv-x="485" d="M193 -307v1954h100v-1954h-100z" />
<glyph horiz-adv-x="653" d="M152 -123h22q85 0 115 47.5t30 136.5v367q0 69 14 122t37 82t40 43t34 21q-13 5 -26 14t-32 30t-33 49t-24 74t-10 102v366q0 89 -30 137t-115 48h-22v90h32q112 0 175 -64.5t63 -200.5v-372q0 -228 149 -228v-90q-149 0 -149 -227v-373q0 -136 -63 -200t-175 -64h-32v90 z" />
<glyph horiz-adv-x="845" d="M61 -166l623 1757h100l-622 -1757h-101z" />
<glyph horiz-adv-x="845" d="M61 1591h101l622 -1757h-100z" />
<glyph horiz-adv-x="495" d="M164 1374q0 35 25.5 60.5t60.5 25.5t60.5 -25.5t25.5 -60.5t-25.5 -60.5t-60.5 -25.5t-60.5 25.5t-25.5 60.5zM197 0l8 1096h88l8 -1096h-104z" />
<glyph horiz-adv-x="942" d="M92 348q0 71 21 133t54.5 107.5t73.5 86.5t80.5 78t74 73.5t54.5 81.5t21 93v95h102v-95q0 -56 -20.5 -107.5t-53 -91.5t-72 -78.5t-79 -78.5t-72 -82.5t-53 -97.5t-20.5 -117q0 -124 76 -201t206 -77q195 0 283 190l82 -39q-16 -43 -44 -83.5t-71 -79t-107.5 -62 t-140.5 -23.5q-184 0 -289.5 106t-105.5 269zM432 1374q0 35 25.5 60.5t60.5 25.5t60.5 -25.5t25.5 -60.5t-25.5 -60.5t-60.5 -25.5t-60.5 25.5t-25.5 60.5z" />
<glyph horiz-adv-x="440" d="M133 727q0 35 25.5 60.5t60.5 25.5t60.5 -25.5t25.5 -60.5t-25.5 -60.5t-60.5 -25.5t-60.5 25.5t-25.5 60.5z" />
<glyph horiz-adv-x="831" d="M63 725q0 148 101 250t252 102t251.5 -102t100.5 -250t-100.5 -250t-251.5 -102t-252 102t-101 250z" />
<glyph horiz-adv-x="1114" d="M111 717q0 121 8.5 216.5t27.5 181.5t52.5 147.5t82.5 107t118 68t157 22.5q106 0 184 -33.5t128 -93.5t80.5 -155t42.5 -205t12 -256q0 -145 -12 -255t-42.5 -204.5t-80.5 -155t-128 -94t-184 -33.5t-184 33.5t-128 94t-80 155t-42 204.5t-12 255zM217 717q0 -66 1 -115 t5 -107.5t11.5 -101t20 -89t30 -79t43.5 -63t58.5 -48.5t75.5 -29t95 -11t95 11t75.5 29.5t58.5 49t43.5 63t30 79t20 89t11.5 100.5t5 107t1 115t-1 115t-5 107.5t-11.5 101.5t-20 89.5t-30 79t-43.5 63t-58.5 49t-75.5 29.5t-95 11t-95 -11t-75.5 -29.5t-58.5 -49.5 t-43.5 -63.5t-30 -79t-20 -89t-11.5 -101t-5 -107.5t-1 -115z" />
<glyph horiz-adv-x="1114" d="M195 1272l370 162h84v-1338h269v-96h-680v96h307v1229l-309 -139z" />
<glyph horiz-adv-x="1114" d="M133 0v41q0 80 39.5 158.5t103 145t139.5 133.5t152.5 135t140 136.5t103 150.5t39.5 167q0 128 -82 211.5t-223 83.5q-128 0 -202.5 -69.5t-104.5 -178.5l-93 23q6 36 22.5 76t49 85t76 80t110 58.5t144.5 23.5q193 0 302 -112.5t109 -280.5q0 -91 -39 -180t-101.5 -162 t-138 -143t-151 -133t-138 -121.5t-101.5 -118t-39 -113.5h731v-96h-848z" />
<glyph horiz-adv-x="1114" d="M121 268l88 37q34 -105 117.5 -169t226.5 -64q141 0 236.5 94t95.5 237q0 157 -89 241.5t-259 84.5h-125v88l415 520h-661v97h780v-105l-414 -504h37q81 0 155 -26t134.5 -76t96.5 -133t36 -187q0 -181 -125.5 -304.5t-310.5 -123.5q-79 0 -145.5 17.5t-112.5 46 t-82.5 67.5t-58 78.5t-35.5 83.5z" />
<glyph horiz-adv-x="1114" d="M76 377v86l676 971h98v-959h186v-98h-186v-377h-105v377h-669zM201 475h544v797z" />
<glyph horiz-adv-x="1114" d="M121 268l88 37q34 -104 119 -168.5t229 -64.5q151 0 239.5 105t88.5 261q0 159 -94 262t-248 103q-88 0 -148.5 -26.5t-124.5 -76.5l-92 17l31 717h700v-99h-604l-24 -520q110 82 262 82q204 0 326 -129t122 -330q0 -198 -119 -330.5t-313 -132.5q-94 0 -172 26t-130 70 t-85.5 93t-50.5 104z" />
<glyph horiz-adv-x="1114" d="M115 592q0 425 121 646.5t382 221.5q169 0 316 -106l-55 -74q-118 84 -261 84q-90 0 -160 -37.5t-114 -98.5t-73 -146t-40.5 -173.5t-11.5 -187.5q52 84 139.5 140.5t210.5 56.5q103 0 185.5 -36.5t135 -99.5t80 -145t27.5 -176q0 -229 -116.5 -357.5t-319.5 -128.5 q-102 0 -181 34t-128.5 90.5t-80.5 138t-43.5 167.5t-12.5 187zM219 580q0 -88 7 -156t29.5 -137t59.5 -113t101 -72t151 -28q146 0 235 100.5t89 286.5q0 156 -84.5 257t-239.5 101q-119 0 -207.5 -64.5t-140.5 -174.5z" />
<glyph horiz-adv-x="1114" d="M123 1335v99h868v-86l-540 -1348h-109l539 1335h-758z" />
<glyph horiz-adv-x="1114" d="M104 391q0 68 19.5 127.5t48.5 100t66.5 72.5t70 49.5t62.5 27.5q-33 14 -67.5 40t-69 65.5t-56.5 96.5t-22 120q0 167 115 268.5t286 101.5t286 -101.5t115 -268.5q0 -63 -22 -120t-56.5 -96.5t-69 -65.5t-67.5 -40q30 -10 62.5 -27.5t70 -49.5t66.5 -72.5t48.5 -100 t19.5 -127.5q0 -184 -128 -301t-325 -117t-325 117t-128 301zM213 391q0 -132 92 -226.5t252 -94.5t252 94.5t92 226.5q0 150 -98 237t-246 87t-246 -87t-98 -237zM264 1090q0 -111 84 -193t209 -82t209 82t84 193q0 116 -78 194t-215 78t-215 -78t-78 -194z" />
<glyph horiz-adv-x="1114" d="M115 975q0 229 116 357t320 128q102 0 181 -34t128.5 -90.5t80.5 -137.5t43.5 -167t12.5 -187q0 -425 -121 -647t-382 -222q-168 0 -316 107l55 74q118 -84 261 -84q90 0 160 37.5t114 98.5t73 146t40.5 173.5t11.5 187.5q-52 -84 -139.5 -140.5t-210.5 -56.5 q-103 0 -185.5 36.5t-135 99.5t-80 145t-27.5 176zM221 975q0 -157 84.5 -258t239.5 -101q119 0 207.5 65t140.5 175q0 88 -7 156t-29.5 137t-59.5 113t-101 72t-151 28q-146 0 -235 -100.5t-89 -286.5z" />
</font>
</defs>
</svg>
